<svg width="171" height="41" viewBox="0 0 171 41" fill="none" xmlns="http://www.w3.org/2000/svg">
<path d="M16.0019 3.96352C16.3385 2.02429 18.0221 0.608276 19.9912 0.608276H52.2143L51.7681 1.14789C50.7173 2.41864 50.0163 3.9414 49.7344 5.56577Lnan nanL49.7344 5.56577L48.874 10.5233L47.1532 20.4382L43.7117 40.2682H9.70117L16.0019 3.96352Z" fill="#1BAAE2"/>
<path d="M0 17.2046H36.2571C38.2222 17.2046 39.9032 18.6163 40.2428 20.5516L43.702 40.2682H9.06345C7.0984 40.2682 5.4174 38.8565 5.07784 36.9212L3.64183 28.7364L2.63021 22.9705Lnan nanL2.63021 22.9705C2.29753 21.0743 1.53007 19.281 0.388018 17.7312L0 17.2046Z" fill="#F7C71D"/>
<path fill-rule="evenodd" clip-rule="evenodd" d="M9.70117 40.2682H43.7022L40.2419 20.5516C39.9022 18.6163 38.2207 17.2046 36.255 17.2046H13.7035L9.70117 40.2682Z" fill="#069257"/>
<path d="M68.5111 10.7416C67.2553 10.7416 66.1848 10.7416 64.9497 10.7416C64.8673 17.0822 76.6014 16.9793 76.6014 10.9269C76.6014 7.32433 73.8017 6.89202 70.9402 6.58323C69.6433 6.43912 68.5728 6.21267 68.6552 5.12161C68.7787 3.41295 72.6489 3.24826 72.6489 5.16278C73.9047 5.16278 74.8516 5.16278 76.1486 5.16278C76.2309 -1.05426 65.032 -1.05426 65.1555 5.16278C65.1967 8.29188 67.2553 9.36236 70.3844 9.58881C71.8254 9.67116 73.0194 9.89761 73.0194 10.9063C73.0194 12.5944 68.5111 12.5738 68.5111 10.7416Z" fill="#424242"/>
<path d="M83.5892 11.9151V3.94819H85.2772V0.736741H78.2573V3.94819H79.9454V11.9151H78.1132V15.1471H85.4214V11.9151H83.5892Z" fill="#424242"/>
<path d="M93.266 0.736741H87.8312V15.1471H93.266C102.653 15.1059 102.653 0.777914 93.266 0.736741ZM91.5162 4.09229H93.266C97.8567 4.09229 97.8567 11.7915 93.266 11.7915H91.5162V4.09229Z" fill="#424242"/>
<path d="M112.106 0.736741C108.73 0.736741 106.445 0.736741 103.11 0.736741C103.11 5.51274 103.11 10.3299 103.11 15.1471C106.445 15.1471 108.915 15.1471 112.292 15.1471C112.292 14.056 112.292 12.9444 112.292 11.8739C110.13 11.8739 108.895 11.8739 106.774 11.8739C106.774 11.0093 106.774 10.1858 106.774 9.34178H111.674C111.674 8.25071 111.674 7.15964 111.674 6.06857H106.774V4.03054C108.895 4.03054 109.965 4.03054 112.106 4.03054C112.106 2.91888 112.106 1.80723 112.106 0.736741Z" fill="#424242"/>
<path d="M126.097 5.16278C126.097 2.67185 124.1 0.736741 121.609 0.736741H115.454V15.1471H122.206C125.15 15.1471 126.673 13.1091 126.694 10.5975C126.694 9.32119 126.138 8.25071 124.965 7.65371C125.665 7.0773 126.097 6.0274 126.097 5.16278ZM121.938 9.42412C123.421 9.42412 123.441 11.8739 121.959 11.8739H119.015V9.42412H121.938ZM121.321 4.03054C122.803 4.03054 122.803 6.35678 121.341 6.35678H119.015V4.03054H121.321Z" fill="#424242"/>
<path d="M138.727 15.1471H142.33V14.6118L135.825 0.551465H134.24L127.755 14.6118V15.1471H131.358L132.202 13.3355H137.883L138.727 15.1471ZM136.689 10.1858H133.396L135.022 6.39795L136.689 10.1858Z" fill="#424242"/>
<path d="M153.568 10.0417C157.212 7.57137 156.183 0.757327 150.522 0.736741C148.422 0.736741 146.281 0.736741 144.202 0.736741C144.202 5.55392 144.202 10.3505 144.202 15.1471C145.396 15.1471 146.651 15.1471 147.886 15.1471V10.9063H149.801L152.271 15.1471H156.389V14.6118L153.568 10.0417ZM150.522 7.63312H147.886C147.886 6.48029 147.886 5.20395 147.886 4.03054C148.751 4.03054 149.657 4.00995 150.522 4.03054C152.621 4.05112 152.518 7.63312 150.522 7.63312Z" fill="#424242"/>
<path d="M65.27 27.1762H66.3627C66.3729 27.4055 66.4824 27.5787 66.6913 27.6958C66.9052 27.813 67.1548 27.8716 67.4401 27.8716C68.1227 27.8716 68.464 27.6474 68.464 27.1992C68.464 27.082 68.436 26.9801 68.3799 26.8935C68.329 26.8069 68.2704 26.7432 68.2042 26.7025C68.138 26.6566 68.0437 26.6184 67.9215 26.5879C67.7992 26.5573 67.6973 26.5369 67.6158 26.5267C67.5394 26.5166 67.4324 26.5064 67.2949 26.4962C65.9959 26.3841 65.3464 25.8773 65.3464 24.9756C65.3464 24.4204 65.54 24.0026 65.9272 23.7225C66.3143 23.4372 66.7982 23.2946 67.379 23.2946C67.6439 23.2946 67.8909 23.3251 68.1201 23.3863C68.3545 23.4423 68.571 23.5314 68.7696 23.6537C68.9683 23.776 69.1262 23.9466 69.2434 24.1657C69.3606 24.3796 69.4191 24.6292 69.4191 24.9145H68.3494C68.3188 24.7107 68.2118 24.5579 68.0285 24.456C67.8451 24.349 67.6286 24.2956 67.379 24.2956C67.1344 24.2956 66.9205 24.3567 66.7371 24.4789C66.5588 24.5961 66.4697 24.754 66.4697 24.9527C66.4697 25.1666 66.5563 25.3195 66.7295 25.4111C66.9078 25.4977 67.1625 25.5589 67.4936 25.5945C67.8145 25.6251 68.0845 25.6659 68.3035 25.7168C68.5277 25.7677 68.7442 25.8492 68.953 25.9613C69.167 26.0734 69.3274 26.2338 69.4344 26.4427C69.5414 26.6465 69.5949 26.8986 69.5949 27.1992C69.5949 27.4997 69.5337 27.7621 69.4115 27.9862C69.2892 28.2103 69.1211 28.3835 68.9072 28.5058C68.6983 28.6281 68.4716 28.7172 68.2271 28.7732C67.9877 28.8344 67.7279 28.8675 67.4477 28.8726C66.8568 28.8726 66.3449 28.7274 65.9119 28.437C65.484 28.1416 65.27 27.7213 65.27 27.1762Z" fill="#757575"/>
<path d="M70.4702 24.4789C70.3428 24.3669 70.2792 24.2115 70.2792 24.0128C70.2792 23.8142 70.3428 23.6613 70.4702 23.5544C70.5976 23.4474 70.7478 23.3964 70.921 23.4015C71.084 23.4066 71.2267 23.4627 71.3489 23.5696C71.4712 23.6766 71.5323 23.8243 71.5323 24.0128C71.5323 24.2064 71.4712 24.3567 71.3489 24.4637C71.2318 24.5706 71.0917 24.6267 70.9287 24.6318C70.7555 24.6369 70.6026 24.5859 70.4702 24.4789ZM71.4406 25.1208V28.7579H70.3709V25.1208H71.4406Z" fill="#757575"/>
<path d="M72.2159 27.6347H73.2856C73.2907 27.7773 73.3519 27.8869 73.469 27.9633C73.5862 28.0397 73.7263 28.0753 73.8893 28.0703C74.307 28.0703 74.5184 27.9302 74.5235 27.65C74.5235 27.5787 74.5108 27.5201 74.4853 27.4742C74.4598 27.4284 74.414 27.3927 74.3478 27.3673C74.2866 27.3418 74.2357 27.3265 74.1949 27.3214C74.1542 27.3112 74.088 27.2985 73.9963 27.2832C73.4257 27.2068 73.036 27.1177 72.8272 27.0158C72.4706 26.8426 72.2923 26.5675 72.2923 26.1905C72.2923 25.7932 72.4375 25.4927 72.7278 25.2889C73.0182 25.08 73.4003 24.9756 73.874 24.9756C74.3427 24.9756 74.7298 25.08 75.0355 25.2889C75.3462 25.4927 75.4914 25.7805 75.471 26.1523H74.4624C74.4573 26.025 74.4012 25.9307 74.2943 25.8696C74.1873 25.8085 74.0523 25.7779 73.8893 25.7779C73.7314 25.7779 73.5964 25.8136 73.4843 25.8849C73.3773 25.9511 73.3239 26.0428 73.3239 26.16C73.3239 26.2466 73.3544 26.3153 73.4155 26.3663C73.4767 26.4172 73.5378 26.4503 73.5989 26.4656C73.6652 26.4758 73.7492 26.486 73.8511 26.4962C74.4165 26.5624 74.7986 26.6363 74.9973 26.7178C75.4048 26.891 75.6034 27.2017 75.5933 27.65C75.5882 27.9302 75.5016 28.1645 75.3335 28.353C75.1704 28.5364 74.9692 28.6663 74.7298 28.7427C74.4955 28.8191 74.2306 28.8573 73.9351 28.8573C72.8195 28.8573 72.2465 28.4498 72.2159 27.6347Z" fill="#757575"/>
<path d="M77.7537 23.9364V25.0826H78.9534V25.8849H77.7537V27.3138C77.7537 27.5532 77.8148 27.734 77.9371 27.8563C78.0645 27.9735 78.2198 28.027 78.4032 28.0168C78.5866 28.0015 78.7853 27.9607 78.9992 27.8945L79.0985 28.7045C78.7674 28.7962 78.4618 28.8445 78.1816 28.8496C77.9065 28.8547 77.6544 28.814 77.4251 28.7274C77.201 28.6357 77.0253 28.4727 76.8979 28.2384C76.7706 28.004 76.7069 27.7035 76.7069 27.3367V25.8849L76.0115 25.8161V25.0826H76.7833L76.8979 23.9364H77.7537Z" fill="#757575"/>
<path d="M81.4993 24.9832C82.1565 24.9832 82.6277 25.1819 82.9129 25.5793C83.2033 25.9766 83.2772 26.4962 83.1345 27.138H80.6359C80.6716 27.6474 80.9976 27.9251 81.614 27.9709C81.8279 27.9811 81.9909 27.9786 82.103 27.9633C82.4494 27.9225 82.7423 27.8487 82.9817 27.7417L83.104 28.5211C82.6404 28.7401 82.1641 28.8496 81.6751 28.8496C81.0485 28.8598 80.5391 28.6866 80.1469 28.33C79.7597 27.9735 79.5661 27.487 79.5661 26.8706C79.5763 26.2644 79.7674 25.7983 80.1392 25.4723C80.5162 25.1463 80.9696 24.9832 81.4993 24.9832ZM81.4993 25.8008C81.2854 25.8008 81.0995 25.8594 80.9415 25.9766C80.7836 26.0887 80.6843 26.2466 80.6435 26.4503H82.2635C82.2736 26.2262 82.2049 26.0632 82.0571 25.9613C81.9094 25.8543 81.7235 25.8008 81.4993 25.8008Z" fill="#757575"/>
<path d="M89.9413 28.7579H88.8639V26.6261C88.8741 26.3867 88.8231 26.1956 88.711 26.053C88.6041 25.9104 88.4563 25.8416 88.2679 25.8467C88.0743 25.8518 87.9138 25.9257 87.7865 26.0683C87.6591 26.2058 87.5929 26.3943 87.5878 26.6337V28.7579H86.5333V26.6337C86.5384 26.3892 86.4824 26.1956 86.3652 26.053C86.2532 25.9104 86.0978 25.8416 85.8991 25.8467C85.6954 25.8518 85.5222 25.9282 85.3795 26.0759C85.242 26.2237 85.1732 26.4172 85.1732 26.6566V28.7579H84.1111V26.1982C84.1111 26.0046 84.0907 25.8773 84.05 25.8161C84.0143 25.7499 83.9175 25.7168 83.7596 25.7168V25.0673C83.8972 25.0265 84.0347 25.0011 84.1722 24.9909C84.3098 24.9756 84.4524 24.9782 84.6001 24.9985C84.7479 25.0138 84.865 25.0724 84.9516 25.1743C85.0433 25.2711 85.0892 25.4061 85.0892 25.5793C85.1809 25.3806 85.3362 25.2329 85.5553 25.1361C85.7794 25.0393 86.0188 24.9909 86.2735 24.9909C86.5843 24.9909 86.8262 25.0444 86.9994 25.1514C87.1726 25.2583 87.3051 25.429 87.3968 25.6633C87.5037 25.4494 87.6744 25.2838 87.9087 25.1666C88.1481 25.0495 88.4029 24.9909 88.6728 24.9909C89.1568 24.9909 89.493 25.1386 89.6815 25.4341C89.8699 25.7244 89.9565 26.1218 89.9413 26.6261V28.7579Z" fill="#757575"/>
<path d="M94.5214 27.8487H95.2779V28.7579H92.6188V27.8487H93.3753V24.2956H92.6799V23.4092H95.2168V24.2956H94.5214V27.8487Z" fill="#757575"/>
<path d="M99.7468 28.7579H98.6694V26.6261C98.6796 26.3867 98.6159 26.1956 98.4784 26.053C98.3459 25.9104 98.1778 25.8391 97.9741 25.8391C97.7601 25.8391 97.5767 25.9129 97.4239 26.0606C97.2711 26.2033 97.1947 26.3994 97.1947 26.649V28.7579H96.1249V26.2135C96.1249 26.1014 96.1224 26.0224 96.1173 25.9766C96.1173 25.9307 96.1046 25.8849 96.0791 25.8391C96.0587 25.7932 96.023 25.7652 95.9721 25.755C95.9263 25.7397 95.86 25.7321 95.7734 25.7321V25.0673C96.67 24.9145 97.1183 25.08 97.1183 25.564C97.2151 25.3653 97.373 25.2201 97.592 25.1284C97.8162 25.0367 98.0505 24.9909 98.295 24.9909C98.7891 24.9909 99.1534 25.1412 99.3877 25.4417C99.6271 25.7423 99.7468 26.1371 99.7468 26.6261V28.7579Z" fill="#757575"/>
<path d="M101.04 28.7579V25.8391H100.36V25.0826H101.055L101.063 24.6165C101.063 24.2548 101.129 23.9593 101.262 23.7301C101.394 23.4958 101.572 23.3379 101.797 23.2564C102.026 23.1698 102.275 23.1316 102.545 23.1417C102.82 23.1468 103.116 23.1978 103.432 23.2946L103.325 24.0892C103.177 24.0332 103.034 23.9975 102.897 23.9823C102.759 23.9619 102.627 23.9644 102.5 23.9899C102.372 24.0154 102.27 24.0841 102.194 24.1962C102.118 24.3032 102.079 24.4509 102.079 24.6394V25.0826H103.241V25.8391H102.079V28.7579H101.04Z" fill="#757575"/>
<path d="M106.873 25.4723C107.265 25.8136 107.461 26.2899 107.461 26.9012C107.461 27.5125 107.268 27.9887 106.88 28.33C106.498 28.6663 106.045 28.8344 105.52 28.8344C104.99 28.8344 104.529 28.6663 104.137 28.33C103.75 27.9887 103.556 27.5125 103.556 26.9012C103.556 26.3001 103.748 25.8289 104.13 25.4876C104.512 25.1463 104.965 24.9731 105.49 24.968C106.025 24.9629 106.486 25.131 106.873 25.4723ZM104.886 26.1676C104.708 26.3408 104.619 26.5853 104.619 26.9012C104.619 27.217 104.705 27.4641 104.878 27.6423C105.052 27.8155 105.258 27.9021 105.497 27.9021C105.742 27.9072 105.953 27.8206 106.132 27.6423C106.31 27.4641 106.399 27.217 106.399 26.9012C106.399 26.5904 106.312 26.3485 106.139 26.1753C105.966 25.997 105.76 25.9078 105.52 25.9078C105.276 25.9078 105.064 25.9944 104.886 26.1676Z" fill="#757575"/>
<path d="M109.387 25.5869C109.458 25.3831 109.588 25.2278 109.776 25.1208C109.97 25.0138 110.184 24.9603 110.418 24.9603C110.724 24.9501 110.986 25.0291 111.205 25.1972L110.968 26.0912C110.754 25.9486 110.525 25.8824 110.281 25.8925C110.036 25.8925 109.83 25.9715 109.662 26.1294C109.499 26.2822 109.417 26.4936 109.417 26.7636V28.7579H108.37V26.16C108.37 25.9817 108.348 25.8569 108.302 25.7856C108.256 25.7092 108.156 25.6837 108.004 25.7092V25.052C108.197 25.0215 108.391 25.0011 108.584 24.9909C108.783 24.9807 108.961 25.0265 109.119 25.1284C109.277 25.2303 109.366 25.3831 109.387 25.5869Z" fill="#757575"/>
<path d="M117.722 28.7579H116.645V26.6261C116.655 26.3867 116.604 26.1956 116.492 26.053C116.385 25.9104 116.237 25.8416 116.049 25.8467C115.855 25.8518 115.695 25.9257 115.568 26.0683C115.44 26.2058 115.374 26.3943 115.369 26.6337V28.7579H114.314V26.6337C114.319 26.3892 114.263 26.1956 114.146 26.053C114.034 25.9104 113.879 25.8416 113.68 25.8467C113.476 25.8518 113.303 25.9282 113.161 26.0759C113.023 26.2237 112.954 26.4172 112.954 26.6566V28.7579H111.892V26.1982C111.892 26.0046 111.872 25.8773 111.831 25.8161C111.795 25.7499 111.699 25.7168 111.541 25.7168V25.0673C111.678 25.0265 111.816 25.0011 111.953 24.9909C112.091 24.9756 112.233 24.9782 112.381 24.9985C112.529 25.0138 112.646 25.0724 112.733 25.1743C112.824 25.2711 112.87 25.4061 112.87 25.5793C112.962 25.3806 113.117 25.2329 113.336 25.1361C113.56 25.0393 113.8 24.9909 114.055 24.9909C114.365 24.9909 114.607 25.0444 114.78 25.1514C114.954 25.2583 115.086 25.429 115.178 25.6633C115.285 25.4494 115.455 25.2838 115.69 25.1666C115.929 25.0495 116.184 24.9909 116.454 24.9909C116.938 24.9909 117.274 25.1386 117.463 25.4341C117.651 25.7244 117.738 26.1218 117.722 26.6261V28.7579Z" fill="#757575"/>
<path d="M121.041 28.1925C120.939 28.4065 120.766 28.5669 120.521 28.6739C120.282 28.7758 120.03 28.8267 119.765 28.8267C119.408 28.8267 119.097 28.7223 118.833 28.5134C118.573 28.2995 118.438 28.0193 118.428 27.6729C118.407 27.2399 118.532 26.9114 118.802 26.6872C119.072 26.458 119.423 26.3434 119.856 26.3434C120.259 26.3434 120.585 26.4223 120.834 26.5802V26.3281C120.834 25.9766 120.529 25.8008 119.918 25.8008C119.474 25.8008 119.12 25.8747 118.855 26.0224L118.718 25.2583C119.105 25.0749 119.566 24.9832 120.101 24.9832C121.273 24.9832 121.858 25.4417 121.858 26.3586V27.6882C121.858 27.7901 121.858 27.8614 121.858 27.9021C121.863 27.9429 121.876 27.9913 121.897 28.0473C121.917 28.0983 121.95 28.1314 121.996 28.1467C122.047 28.1619 122.116 28.167 122.202 28.1619L122.21 28.7579C122.016 28.7936 121.833 28.8114 121.66 28.8114C121.487 28.8114 121.339 28.7605 121.217 28.6586C121.099 28.5516 121.041 28.3963 121.041 28.1925ZM120.812 27.436V27.245C120.603 27.1024 120.348 27.0311 120.047 27.0311C119.869 27.0413 119.724 27.0973 119.612 27.1992C119.5 27.296 119.454 27.4309 119.474 27.6041C119.485 27.7315 119.538 27.8308 119.635 27.9021C119.732 27.9684 119.846 28.0015 119.979 28.0015C120.177 28.0015 120.361 27.9531 120.529 27.8563C120.702 27.7544 120.796 27.6143 120.812 27.436Z" fill="#757575"/>
<path d="M122.681 27.6347H123.751C123.756 27.7773 123.817 27.8869 123.935 27.9633C124.052 28.0397 124.192 28.0753 124.355 28.0703C124.773 28.0703 124.984 27.9302 124.989 27.65C124.989 27.5787 124.976 27.5201 124.951 27.4742C124.925 27.4284 124.88 27.3927 124.813 27.3673C124.752 27.3418 124.701 27.3265 124.66 27.3214C124.62 27.3112 124.554 27.2985 124.462 27.2832C123.891 27.2068 123.502 27.1177 123.293 27.0158C122.936 26.8426 122.758 26.5675 122.758 26.1905C122.758 25.7932 122.903 25.4927 123.193 25.2889C123.484 25.08 123.866 24.9756 124.34 24.9756C124.808 24.9756 125.195 25.08 125.501 25.2889C125.812 25.4927 125.957 25.7805 125.937 26.1523H124.928C124.923 26.025 124.867 25.9307 124.76 25.8696C124.653 25.8085 124.518 25.7779 124.355 25.7779C124.197 25.7779 124.062 25.8136 123.95 25.8849C123.843 25.9511 123.789 26.0428 123.789 26.16C123.789 26.2466 123.82 26.3153 123.881 26.3663C123.942 26.4172 124.003 26.4503 124.064 26.4656C124.131 26.4758 124.215 26.486 124.317 26.4962C124.882 26.5624 125.264 26.6363 125.463 26.7178C125.87 26.891 126.069 27.2017 126.059 27.65C126.054 27.9302 125.967 28.1645 125.799 28.353C125.636 28.5364 125.435 28.6663 125.195 28.7427C124.961 28.8191 124.696 28.8573 124.401 28.8573C123.285 28.8573 122.712 28.4498 122.681 27.6347Z" fill="#757575"/>
<path d="M126.92 24.4789C126.793 24.3669 126.729 24.2115 126.729 24.0128C126.729 23.8142 126.793 23.6613 126.92 23.5544C127.048 23.4474 127.198 23.3964 127.371 23.4015C127.534 23.4066 127.677 23.4627 127.799 23.5696C127.921 23.6766 127.982 23.8243 127.982 24.0128C127.982 24.2064 127.921 24.3567 127.799 24.4637C127.682 24.5706 127.542 24.6267 127.379 24.6318C127.206 24.6369 127.053 24.5859 126.92 24.4789ZM127.891 25.1208V28.7579H126.821V25.1208H127.891Z" fill="#757575"/>
<path d="M130.898 23.4168H132.885C133.695 23.4168 134.334 23.6792 134.803 24.2039C135.271 24.7235 135.506 25.3449 135.506 26.0683C135.516 26.7967 135.287 27.4284 134.818 27.9633C134.349 28.4931 133.705 28.7579 132.885 28.7579H130.898V23.4168ZM132.037 27.7264H132.869C133.338 27.7264 133.705 27.5659 133.97 27.245C134.235 26.9241 134.367 26.5344 134.367 26.0759C134.367 25.6226 134.232 25.238 133.962 24.9221C133.697 24.6063 133.333 24.4484 132.869 24.4484H132.037V27.7264Z" fill="#757575"/>
<path d="M139.385 25.4723C139.777 25.8136 139.973 26.2899 139.973 26.9012C139.973 27.5125 139.779 27.9887 139.392 28.33C139.01 28.6663 138.557 28.8344 138.032 28.8344C137.502 28.8344 137.041 28.6663 136.649 28.33C136.262 27.9887 136.068 27.5125 136.068 26.9012C136.068 26.3001 136.259 25.8289 136.642 25.4876C137.024 25.1463 137.477 24.9731 138.002 24.968C138.537 24.9629 138.998 25.131 139.385 25.4723ZM137.398 26.1676C137.22 26.3408 137.131 26.5853 137.131 26.9012C137.131 27.217 137.217 27.4641 137.39 27.6423C137.564 27.8155 137.77 27.9021 138.009 27.9021C138.254 27.9072 138.465 27.8206 138.643 27.6423C138.822 27.4641 138.911 27.217 138.911 26.9012C138.911 26.5904 138.824 26.3485 138.651 26.1753C138.478 25.997 138.272 25.9078 138.032 25.9078C137.788 25.9078 137.576 25.9944 137.398 26.1676Z" fill="#757575"/>
<path d="M141.807 26.4274H142.067C142.459 26.4274 142.734 26.3077 142.892 26.0683C143.05 25.8238 143.129 25.4901 143.129 25.0673H144.138C144.148 25.4952 144.089 25.862 143.962 26.1676C143.834 26.4682 143.6 26.7076 143.259 26.8859L144.313 28.6433V28.7503H143.236L142.357 27.2221C142.265 27.2527 142.164 27.2679 142.051 27.2679H141.807V28.7503H140.745V23.1723H141.807V26.4274Z" fill="#757575"/>
<path d="M147.45 25.0749H148.52V27.65C148.52 27.8385 148.538 27.9633 148.574 28.0244C148.614 28.0804 148.711 28.1034 148.864 28.0932L148.872 28.7579C148.724 28.7936 148.579 28.8165 148.436 28.8267C148.299 28.8369 148.156 28.8293 148.008 28.8038C147.866 28.7834 147.748 28.7248 147.657 28.6281C147.57 28.5262 147.527 28.3912 147.527 28.2231C147.43 28.4217 147.272 28.5695 147.053 28.6663C146.839 28.763 146.605 28.8114 146.35 28.8114C145.438 28.8114 144.982 28.2689 144.982 27.1839V25.0749H146.06V27.1839C146.05 27.4335 146.103 27.6271 146.22 27.7646C146.342 27.9021 146.5 27.9709 146.694 27.9709C146.913 27.976 147.094 27.9047 147.236 27.757C147.379 27.6041 147.45 27.4055 147.45 27.161V25.0749Z" fill="#757575"/>
<path d="M155.599 28.7579H154.522V26.6261C154.532 26.3867 154.481 26.1956 154.369 26.053C154.262 25.9104 154.115 25.8416 153.926 25.8467C153.732 25.8518 153.572 25.9257 153.445 26.0683C153.317 26.2058 153.251 26.3943 153.246 26.6337V28.7579H152.192V26.6337C152.197 26.3892 152.141 26.1956 152.023 26.053C151.911 25.9104 151.756 25.8416 151.557 25.8467C151.354 25.8518 151.18 25.9282 151.038 26.0759C150.9 26.2237 150.831 26.4172 150.831 26.6566V28.7579H149.769V26.1982C149.769 26.0046 149.749 25.8773 149.708 25.8161C149.673 25.7499 149.576 25.7168 149.418 25.7168V25.0673C149.555 25.0265 149.693 25.0011 149.83 24.9909C149.968 24.9756 150.111 24.9782 150.258 24.9985C150.406 25.0138 150.523 25.0724 150.61 25.1743C150.701 25.2711 150.747 25.4061 150.747 25.5793C150.839 25.3806 150.994 25.2329 151.213 25.1361C151.438 25.0393 151.677 24.9909 151.932 24.9909C152.242 24.9909 152.484 25.0444 152.658 25.1514C152.831 25.2583 152.963 25.429 153.055 25.6633C153.162 25.4494 153.333 25.2838 153.567 25.1666C153.806 25.0495 154.061 24.9909 154.331 24.9909C154.815 24.9909 155.151 25.1386 155.34 25.4341C155.528 25.7244 155.615 26.1218 155.599 26.6261V28.7579Z" fill="#757575"/>
<path d="M158.268 24.9832C158.926 24.9832 159.397 25.1819 159.682 25.5793C159.972 25.9766 160.046 26.4962 159.904 27.138H157.405C157.441 27.6474 157.767 27.9251 158.383 27.9709C158.597 27.9811 158.76 27.9786 158.872 27.9633C159.218 27.9225 159.511 27.8487 159.751 27.7417L159.873 28.5211C159.41 28.7401 158.933 28.8496 158.444 28.8496C157.818 28.8598 157.308 28.6866 156.916 28.33C156.529 27.9735 156.335 27.487 156.335 26.8706C156.345 26.2644 156.536 25.7983 156.908 25.4723C157.285 25.1463 157.739 24.9832 158.268 24.9832ZM158.268 25.8008C158.054 25.8008 157.869 25.8594 157.711 25.9766C157.553 26.0887 157.453 26.2466 157.413 26.4503H159.033C159.043 26.2262 158.974 26.0632 158.826 25.9613C158.679 25.8543 158.493 25.8008 158.268 25.8008Z" fill="#757575"/>
<path d="M164.502 28.7579H163.425V26.6261C163.435 26.3867 163.371 26.1956 163.234 26.053C163.101 25.9104 162.933 25.8391 162.729 25.8391C162.515 25.8391 162.332 25.9129 162.179 26.0606C162.026 26.2033 161.95 26.3994 161.95 26.649V28.7579H160.88V26.2135C160.88 26.1014 160.878 26.0224 160.873 25.9766C160.873 25.9307 160.86 25.8849 160.834 25.8391C160.814 25.7932 160.778 25.7652 160.727 25.755C160.682 25.7397 160.615 25.7321 160.529 25.7321V25.0673C161.425 24.9145 161.874 25.08 161.874 25.564C161.97 25.3653 162.128 25.2201 162.347 25.1284C162.571 25.0367 162.806 24.9909 163.05 24.9909C163.544 24.9909 163.909 25.1412 164.143 25.4417C164.382 25.7423 164.502 26.1371 164.502 26.6261V28.7579Z" fill="#757575"/>
<path d="M68.8461 33.5973V34.5983H66.7218V35.6833H68.7085V36.6843H66.7218V37.9069H68.9072V38.9461H65.568V33.5973H68.8461Z" fill="#757575"/>
<path d="M69.7879 33.3528H70.8424V37.5478C70.8424 37.8228 70.8984 38.0037 71.0105 38.0903C71.1226 38.1718 71.3111 38.1896 71.576 38.1438L71.6142 38.9461C71.008 39.053 70.552 39.0047 70.2464 38.8009C69.9408 38.5971 69.7879 38.1794 69.7879 37.5478V33.3528Z" fill="#757575"/>
<path d="M73.8881 35.1714C74.5452 35.1714 75.0164 35.37 75.3017 35.7674C75.5921 36.1647 75.6659 36.6843 75.5233 37.3262H73.0247C73.0603 37.8356 73.3863 38.1132 74.0027 38.159C74.2167 38.1692 74.3797 38.1667 74.4917 38.1514C74.8381 38.1106 75.131 38.0368 75.3705 37.9298L75.4927 38.7092C75.0292 38.9282 74.5529 39.0378 74.0638 39.0378C73.4373 39.048 72.9279 38.8748 72.5356 38.5182C72.1485 38.1616 71.9549 37.6751 71.9549 37.0587C71.9651 36.4525 72.1561 35.9864 72.528 35.6604C72.9049 35.3344 73.3583 35.1714 73.8881 35.1714ZM73.8881 35.989C73.6741 35.989 73.4882 36.0476 73.3303 36.1647C73.1724 36.2768 73.073 36.4347 73.0323 36.6385H74.6522C74.6624 36.4143 74.5936 36.2513 74.4459 36.1494C74.2982 36.0425 74.1122 35.989 73.8881 35.989Z" fill="#757575"/>
<path d="M77.4397 36.6155H77.6995C78.0918 36.6155 78.3668 36.4958 78.5247 36.2564C78.6827 36.0119 78.7616 35.6782 78.7616 35.2554H79.7702C79.7804 35.6833 79.7219 36.0501 79.5945 36.3557C79.4672 36.6563 79.2328 36.8957 78.8915 37.074L79.946 38.8315V38.9384H78.8686L77.9899 37.4102C77.8982 37.4408 77.7963 37.4561 77.6842 37.4561H77.4397V38.9384H76.3776V33.3604H77.4397V36.6155Z" fill="#757575"/>
<path d="M82.0593 34.1245V35.2707H83.2589V36.073H82.0593V37.5019C82.0593 37.7413 82.1204 37.9222 82.2427 38.0444C82.37 38.1616 82.5254 38.2151 82.7088 38.2049C82.8922 38.1896 83.0908 38.1489 83.3048 38.0826L83.4041 38.8926C83.073 38.9843 82.7674 39.0327 82.4872 39.0378C82.2121 39.0429 81.96 39.0021 81.7307 38.9155C81.5066 38.8238 81.3308 38.6608 81.2035 38.4265C81.0761 38.1922 81.0125 37.8916 81.0125 37.5248V36.073L80.3171 36.0043V35.2707H81.0889L81.2035 34.1245H82.0593Z" fill="#757575"/>
<path d="M85.2471 35.775C85.3184 35.5713 85.4483 35.4159 85.6368 35.3089C85.8304 35.2019 86.0443 35.1484 86.2787 35.1484C86.5843 35.1383 86.8467 35.2172 87.0657 35.3853L86.8288 36.2793C86.6149 36.1367 86.3856 36.0705 86.1411 36.0807C85.8966 36.0807 85.6903 36.1596 85.5222 36.3175C85.3592 36.4704 85.2777 36.6818 85.2777 36.9517V38.9461H84.2309V36.3481C84.2309 36.1698 84.2079 36.045 84.1621 35.9737C84.1162 35.8973 84.0169 35.8718 83.8641 35.8973V35.2401C84.0577 35.2096 84.2512 35.1892 84.4448 35.179C84.6435 35.1688 84.8218 35.2147 84.9797 35.3166C85.1376 35.4184 85.2267 35.5713 85.2471 35.775Z" fill="#757575"/>
<path d="M90.6429 35.6604C91.0351 36.0017 91.2312 36.478 91.2312 37.0893C91.2312 37.7006 91.0377 38.1769 90.6505 38.5182C90.2685 38.8544 89.8151 39.0225 89.2904 39.0225C88.7606 39.0225 88.2996 38.8544 87.9074 38.5182C87.5202 38.1769 87.3266 37.7006 87.3266 37.0893C87.3266 36.4882 87.5177 36.017 87.8997 35.6757C88.2818 35.3344 88.7351 35.1612 89.2598 35.1561C89.7947 35.151 90.2557 35.3191 90.6429 35.6604ZM88.6562 36.3557C88.4779 36.5289 88.3887 36.7735 88.3887 37.0893C88.3887 37.4051 88.4753 37.6522 88.6485 37.8305C88.8217 38.0037 89.028 38.0903 89.2675 38.0903C89.512 38.0954 89.7234 38.0088 89.9017 37.8305C90.08 37.6522 90.1691 37.4051 90.1691 37.0893C90.1691 36.7786 90.0825 36.5366 89.9093 36.3634C89.7361 36.1851 89.5298 36.0959 89.2904 36.0959C89.0459 36.0959 88.8345 36.1825 88.6562 36.3557Z" fill="#757575"/>
<path d="M95.7472 38.9461H94.6698V36.8142C94.68 36.5748 94.6163 36.3838 94.4788 36.2411C94.3463 36.0985 94.1782 36.0272 93.9744 36.0272C93.7605 36.0272 93.5771 36.101 93.4243 36.2488C93.2715 36.3914 93.195 36.5875 93.195 36.8371V38.9461H92.1253V36.4016C92.1253 36.2895 92.1227 36.2106 92.1177 36.1647C92.1177 36.1189 92.1049 36.073 92.0795 36.0272C92.0591 35.9813 92.0234 35.9533 91.9725 35.9431C91.9266 35.9278 91.8604 35.9202 91.7738 35.9202V35.2554C92.6704 35.1026 93.1186 35.2682 93.1186 35.7521C93.2154 35.5534 93.3733 35.4082 93.5924 35.3166C93.8165 35.2249 94.0509 35.179 94.2954 35.179C94.7895 35.179 95.1537 35.3293 95.388 35.6298C95.6275 35.9304 95.7472 36.3252 95.7472 36.8142V38.9461Z" fill="#757575"/>
<path d="M96.8036 34.6671C96.6763 34.555 96.6126 34.3996 96.6126 34.201C96.6126 34.0023 96.6763 33.8495 96.8036 33.7425C96.931 33.6355 97.0812 33.5846 97.2544 33.5897C97.4174 33.5948 97.5601 33.6508 97.6823 33.7578C97.8046 33.8647 97.8657 34.0125 97.8657 34.201C97.8657 34.3945 97.8046 34.5448 97.6823 34.6518C97.5652 34.7588 97.4251 34.8148 97.2621 34.8199C97.0889 34.825 96.9361 34.774 96.8036 34.6671ZM97.774 35.3089V38.9461H96.7043V35.3089H97.774Z" fill="#757575"/>
<path d="M99.8407 36.6155H100.1C100.493 36.6155 100.768 36.4958 100.926 36.2564C101.084 36.0119 101.163 35.6782 101.163 35.2554H102.171C102.181 35.6833 102.123 36.0501 101.995 36.3557C101.868 36.6563 101.634 36.8957 101.292 37.074L102.347 38.8315V38.9384H101.27L100.391 37.4102C100.299 37.4408 100.197 37.4561 100.085 37.4561H99.8407V38.9384H98.7785V33.3604H99.8407V36.6155Z" fill="#757575"/>
<path d="M108.477 33.5973V37.1733C108.477 37.7337 108.279 38.182 107.881 38.5182C107.489 38.8544 107.005 39.0225 106.43 39.0225C105.859 39.0225 105.383 38.8569 105.001 38.5258C104.624 38.1896 104.435 37.7388 104.435 37.1733V36.5238H105.497V37.1504C105.497 37.4306 105.581 37.6445 105.749 37.7923C105.923 37.9349 106.149 38.0062 106.43 38.0062C106.705 38.0062 106.924 37.9324 107.087 37.7846C107.25 37.6369 107.331 37.4255 107.331 37.1504V34.583H106.376V33.5973H108.477Z" fill="#757575"/>
<path d="M111.833 38.3806C111.731 38.5946 111.558 38.755 111.313 38.862C111.074 38.9639 110.822 39.0148 110.557 39.0148C110.2 39.0148 109.889 38.9104 109.624 38.7016C109.365 38.4876 109.23 38.2074 109.219 37.861C109.199 37.428 109.324 37.0995 109.594 36.8753C109.864 36.6461 110.215 36.5315 110.648 36.5315C111.051 36.5315 111.377 36.6104 111.626 36.7684V36.5162C111.626 36.1647 111.321 35.989 110.709 35.989C110.266 35.989 109.912 36.0628 109.647 36.2106L109.51 35.4465C109.897 35.2631 110.358 35.1714 110.893 35.1714C112.064 35.1714 112.65 35.6298 112.65 36.5468V37.8763C112.65 37.9782 112.65 38.0495 112.65 38.0903C112.655 38.131 112.668 38.1794 112.688 38.2355C112.709 38.2864 112.742 38.3195 112.788 38.3348C112.839 38.3501 112.908 38.3552 112.994 38.3501L113.002 38.9461C112.808 38.9817 112.625 38.9996 112.452 38.9996C112.278 38.9996 112.131 38.9486 112.008 38.8467C111.891 38.7398 111.833 38.5844 111.833 38.3806ZM111.603 37.6242V37.4331C111.395 37.2905 111.14 37.2192 110.839 37.2192C110.661 37.2294 110.516 37.2854 110.404 37.3873C110.292 37.4841 110.246 37.6191 110.266 37.7923C110.276 37.9196 110.33 38.019 110.427 38.0903C110.524 38.1565 110.638 38.1896 110.771 38.1896C110.969 38.1896 111.153 38.1412 111.321 38.0444C111.494 37.9425 111.588 37.8025 111.603 37.6242Z" fill="#757575"/>
<path d="M115.172 38.9996H114.699L113.186 35.3853V35.2631H114.324L114.714 36.3405L114.997 37.181H115.012L115.837 35.3471H116.242L117.075 37.181H117.098L117.373 36.3405L117.732 35.2631H118.886V35.3853L117.358 38.9996H116.953L116.494 38.0979L116.036 37.1275L115.593 38.1285L115.172 38.9996Z" fill="#757575"/>
<path d="M121.765 38.3806C121.663 38.5946 121.49 38.755 121.245 38.862C121.006 38.9639 120.753 39.0148 120.489 39.0148C120.132 39.0148 119.821 38.9104 119.556 38.7016C119.297 38.4876 119.162 38.2074 119.151 37.861C119.131 37.428 119.256 37.0995 119.526 36.8753C119.796 36.6461 120.147 36.5315 120.58 36.5315C120.983 36.5315 121.309 36.6104 121.558 36.7684V36.5162C121.558 36.1647 121.253 35.989 120.641 35.989C120.198 35.989 119.844 36.0628 119.579 36.2106L119.442 35.4465C119.829 35.2631 120.29 35.1714 120.825 35.1714C121.996 35.1714 122.582 35.6298 122.582 36.5468V37.8763C122.582 37.9782 122.582 38.0495 122.582 38.0903C122.587 38.131 122.6 38.1794 122.62 38.2355C122.641 38.2864 122.674 38.3195 122.72 38.3348C122.771 38.3501 122.839 38.3552 122.926 38.3501L122.934 38.9461C122.74 38.9817 122.557 38.9996 122.384 38.9996C122.21 38.9996 122.063 38.9486 121.94 38.8467C121.823 38.7398 121.765 38.5844 121.765 38.3806ZM121.535 37.6242V37.4331C121.327 37.2905 121.072 37.2192 120.771 37.2192C120.593 37.2294 120.448 37.2854 120.336 37.3873C120.224 37.4841 120.178 37.6191 120.198 37.7923C120.208 37.9196 120.262 38.019 120.359 38.0903C120.455 38.1565 120.57 38.1896 120.703 38.1896C120.901 38.1896 121.085 38.1412 121.253 38.0444C121.426 37.9425 121.52 37.8025 121.535 37.6242Z" fill="#757575"/>
<path d="M129.588 35.1867C129.588 35.3853 129.539 35.5738 129.443 35.7521C129.351 35.9304 129.221 36.0705 129.053 36.1724C129.562 36.3863 129.817 36.7836 129.817 37.3644C129.817 37.8432 129.667 38.2278 129.366 38.5182C129.066 38.8034 128.65 38.9461 128.121 38.9461H125.637V33.6049H127.907C128.406 33.6049 128.811 33.7476 129.122 34.0329C129.432 34.313 129.588 34.6976 129.588 35.1867ZM127.823 34.583H126.776V35.7979H127.823C128.016 35.7979 128.169 35.747 128.281 35.6451C128.398 35.5432 128.459 35.4032 128.465 35.2249C128.47 35.0313 128.414 34.8759 128.296 34.7588C128.179 34.6416 128.021 34.583 127.823 34.583ZM127.991 36.7302H126.776V37.9527H128.044C128.238 37.9527 128.391 37.9018 128.503 37.7999C128.615 37.6929 128.676 37.5478 128.686 37.3644C128.696 37.13 128.617 36.9543 128.449 36.8371C128.347 36.7658 128.195 36.7302 127.991 36.7302Z" fill="#757575"/>
<path d="M133.002 38.3806C132.901 38.5946 132.727 38.755 132.483 38.862C132.243 38.9639 131.991 39.0148 131.726 39.0148C131.37 39.0148 131.059 38.9104 130.794 38.7016C130.534 38.4876 130.399 38.2074 130.389 37.861C130.369 37.428 130.494 37.0995 130.764 36.8753C131.034 36.6461 131.385 36.5315 131.818 36.5315C132.22 36.5315 132.546 36.6104 132.796 36.7684V36.5162C132.796 36.1647 132.49 35.989 131.879 35.989C131.436 35.989 131.082 36.0628 130.817 36.2106L130.68 35.4465C131.067 35.2631 131.528 35.1714 132.063 35.1714C133.234 35.1714 133.82 35.6298 133.82 36.5468V37.8763C133.82 37.9782 133.82 38.0495 133.82 38.0903C133.825 38.131 133.838 38.1794 133.858 38.2355C133.879 38.2864 133.912 38.3195 133.958 38.3348C134.008 38.3501 134.077 38.3552 134.164 38.3501L134.171 38.9461C133.978 38.9817 133.795 38.9996 133.621 38.9996C133.448 38.9996 133.3 38.9486 133.178 38.8467C133.061 38.7398 133.002 38.5844 133.002 38.3806ZM132.773 37.6242V37.4331C132.564 37.2905 132.31 37.2192 132.009 37.2192C131.831 37.2294 131.686 37.2854 131.574 37.3873C131.461 37.4841 131.416 37.6191 131.436 37.7923C131.446 37.9196 131.5 38.019 131.596 38.0903C131.693 38.1565 131.808 38.1896 131.94 38.1896C132.139 38.1896 132.322 38.1412 132.49 38.0444C132.664 37.9425 132.758 37.8025 132.773 37.6242Z" fill="#757575"/>
<path d="M136.026 35.775C136.097 35.5713 136.227 35.4159 136.416 35.3089C136.609 35.2019 136.823 35.1484 137.058 35.1484C137.363 35.1383 137.626 35.2172 137.845 35.3853L137.608 36.2793C137.394 36.1367 137.165 36.0705 136.92 36.0807C136.676 36.0807 136.469 36.1596 136.301 36.3175C136.138 36.4704 136.057 36.6818 136.057 36.9517V38.9461H135.01V36.3481C135.01 36.1698 134.987 36.045 134.941 35.9737C134.895 35.8973 134.796 35.8718 134.643 35.8973V35.2401C134.837 35.2096 135.03 35.1892 135.224 35.179C135.422 35.1688 135.601 35.2147 135.759 35.3166C135.917 35.4184 136.006 35.5713 136.026 35.775Z" fill="#757575"/>
<path d="M140.703 38.3806C140.601 38.5946 140.428 38.755 140.184 38.862C139.944 38.9639 139.692 39.0148 139.427 39.0148C139.071 39.0148 138.76 38.9104 138.495 38.7016C138.235 38.4876 138.1 38.2074 138.09 37.861C138.07 37.428 138.194 37.0995 138.464 36.8753C138.734 36.6461 139.086 36.5315 139.519 36.5315C139.921 36.5315 140.247 36.6104 140.497 36.7684V36.5162C140.497 36.1647 140.191 35.989 139.58 35.989C139.137 35.989 138.783 36.0628 138.518 36.2106L138.38 35.4465C138.767 35.2631 139.228 35.1714 139.763 35.1714C140.935 35.1714 141.521 35.6298 141.521 36.5468V37.8763C141.521 37.9782 141.521 38.0495 141.521 38.0903C141.526 38.131 141.539 38.1794 141.559 38.2355C141.579 38.2864 141.612 38.3195 141.658 38.3348C141.709 38.3501 141.778 38.3552 141.865 38.3501L141.872 38.9461C141.679 38.9817 141.495 38.9996 141.322 38.9996C141.149 38.9996 141.001 38.9486 140.879 38.8467C140.762 38.7398 140.703 38.5844 140.703 38.3806ZM140.474 37.6242V37.4331C140.265 37.2905 140.01 37.2192 139.71 37.2192C139.532 37.2294 139.386 37.2854 139.274 37.3873C139.162 37.4841 139.116 37.6191 139.137 37.7923C139.147 37.9196 139.2 38.019 139.297 38.0903C139.394 38.1565 139.509 38.1896 139.641 38.1896C139.84 38.1896 140.023 38.1412 140.191 38.0444C140.364 37.9425 140.459 37.8025 140.474 37.6242Z" fill="#757575"/>
<path d="M143.927 34.1245V35.2707H145.126V36.073H143.927V37.5019C143.927 37.7413 143.988 37.9222 144.11 38.0444C144.238 38.1616 144.393 38.2151 144.576 38.2049C144.76 38.1896 144.958 38.1489 145.172 38.0826L145.272 38.8926C144.94 38.9843 144.635 39.0327 144.355 39.0378C144.08 39.0429 143.827 39.0021 143.598 38.9155C143.374 38.8238 143.198 38.6608 143.071 38.4265C142.944 38.1922 142.88 37.8916 142.88 37.5248V36.073L142.185 36.0043V35.2707H142.956L143.071 34.1245H143.927Z" fill="#757575"/>
</svg>
