<svg width="1160" height="235" viewBox="0 0 1160 235" fill="none" xmlns="http://www.w3.org/2000/svg">
<g clip-path="url(#clip0_777_6512)">
<rect y="0.5" width="1160" height="234" rx="16" fill="#1976D2"/>
<g opacity="0.6">
<path d="M825.763 64.9495C828.218 50.8184 840.504 40.5 854.872 40.5H1090L1086.74 44.4321C1079.08 53.692 1073.96 64.7883 1071.9 76.625L-nan -nanL1071.9 76.625L1065.63 112.75L1053.07 185L1027.96 329.5H779.787L825.763 64.9495Z" fill="#1E88E5"/>
<path d="M709 161.436H973.564C987.903 161.436 1000.17 171.723 1002.65 185.826L1027.89 329.499H775.135C760.796 329.499 748.53 319.212 746.052 305.109L735.574 245.467L728.192 203.452L-nan -nanL728.192 203.452C725.765 189.634 720.165 176.566 711.831 165.273L709 161.436Z" fill="#2196F3"/>
<path fill-rule="evenodd" clip-rule="evenodd" d="M779.787 329.499H1027.89L1002.64 185.826C1000.16 171.723 987.89 161.436 973.547 161.436H808.991L779.787 329.499Z" fill="#42A5F5"/>
</g>
</g>
<defs>
<clipPath id="clip0_777_6512">
<rect y="0.5" width="1160" height="234" rx="16" fill="white"/>
</clipPath>
</defs>
</svg>
