<svg width="1440" height="760" viewBox="0 0 1440 760" fill="none" xmlns="http://www.w3.org/2000/svg">
<g clip-path="url(#clip0_777_4208)">
<rect width="1440" height="760" fill="#1976D2"/>
<g opacity="0.5">
<path d="M832.66 243.797C803.958 238.808 783 213.851 783 184.662L783 -293L790.987 -286.385C809.795 -270.809 832.333 -260.417 856.375 -256.238Lnan nanL856.375 -256.238L929.75 -243.484L1076.5 -217.976L1370 -166.96L1370 337.197L832.66 243.797Z" fill="#1E88E5"/>
<path d="M1028.64 481L1028.64 -56.461C1028.64 -85.59 1049.53 -110.508 1078.18 -115.542L1370 -166.82L1370 346.647C1370 375.776 1349.1 400.695 1320.46 405.728L1199.32 427.015L1113.98 442.011Lnan nanL1113.98 442.011C1085.91 446.942 1059.37 458.319 1036.43 475.248L1028.64 481Z" fill="#1565C0"/>
<path fill-rule="evenodd" clip-rule="evenodd" d="M1370 337.197L1370 -166.819L1078.18 -115.525C1049.53 -110.49 1028.64 -85.5638 1028.64 -56.4257L1028.64 277.869L1370 337.197Z" fill="#2196F3"/>
<path d="M1225.26 515.203C1254.01 520.192 1275 545.149 1275 574.338L1275 1052L1267 1045.39C1248.16 1029.81 1225.58 1019.42 1201.5 1015.24Lnan nanL1201.5 1015.24L1128 1002.48L981 976.976L687 925.96L687 421.803L1225.26 515.203Z" fill="#1E88E5"/>
<path d="M1028.94 278L1028.94 815.461C1028.94 844.59 1008.01 869.508 979.321 874.542L687.002 925.82L687.002 412.353C687.002 383.224 707.932 358.305 736.626 353.272L857.973 331.985L943.459 316.989Lnan nanL943.459 316.989C971.571 312.058 998.159 300.681 1021.14 283.752L1028.94 278Z" fill="#1565C0"/>
<path fill-rule="evenodd" clip-rule="evenodd" d="M687.002 421.803L687.002 925.819L979.321 874.525C1008.01 869.49 1028.94 844.564 1028.94 815.426L1028.94 481.131L687.002 421.803Z" fill="#2196F3"/>
</g>
</g>
<defs>
<clipPath id="clip0_777_4208">
<rect width="1440" height="760" fill="white"/>
</clipPath>
</defs>
</svg>
