<svg width="129" height="44" viewBox="0 0 129 44" fill="none" xmlns="http://www.w3.org/2000/svg">
<path d="M118.144 0.666643H10.8368C10.4457 0.666643 10.0592 0.666643 9.66912 0.668776C9.34256 0.670909 9.0186 0.677107 8.6889 0.682323C7.97265 0.690751 7.25808 0.753764 6.55141 0.870813C5.84573 0.990411 5.16215 1.21589 4.5238 1.53961C3.88624 1.86608 3.30367 2.29029 2.79725 2.79685C2.28816 3.30199 1.8638 3.88586 1.54048 4.52601C1.21626 5.16489 0.991454 5.84951 0.873811 6.55622C0.755049 7.26204 0.691142 7.976 0.682664 8.69169C0.672765 9.01873 0.67172 9.34686 0.666504 9.67394V34.3292C0.67172 34.6604 0.672765 34.9812 0.682664 35.3125C0.691145 36.0282 0.755052 36.7421 0.873811 37.4479C0.991129 38.155 1.21595 38.84 1.54048 39.4791C1.86365 40.1172 2.28807 40.6987 2.79725 41.201C3.30175 41.7099 3.88469 42.1344 4.5238 42.4583C5.16215 42.7829 5.84565 43.0097 6.55141 43.1312C7.2582 43.2473 7.9727 43.3103 8.6889 43.3198C9.0186 43.327 9.34256 43.3312 9.66912 43.3312C10.0592 43.3333 10.4457 43.3333 10.8368 43.3333H118.144C118.527 43.3333 118.916 43.3333 119.3 43.3312C119.625 43.3312 119.958 43.327 120.283 43.3198C120.998 43.3108 121.711 43.2478 122.417 43.1312C123.125 43.0089 123.811 42.7821 124.452 42.4583C125.09 42.1342 125.673 41.7097 126.177 41.201C126.685 40.6967 127.11 40.1157 127.437 39.4791C127.759 38.8395 127.982 38.1546 128.098 37.4479C128.217 36.742 128.283 36.0282 128.296 35.3125C128.3 34.9812 128.3 34.6604 128.3 34.3292C128.308 33.9416 128.308 33.5562 128.308 33.1624V10.8385C128.308 10.4479 128.308 10.0604 128.3 9.67394C128.3 9.34686 128.3 9.01873 128.296 8.69165C128.283 7.97589 128.217 7.26209 128.098 6.55618C127.982 5.84988 127.759 5.16531 127.437 4.52597C126.779 3.24285 125.735 2.1984 124.452 1.53952C123.811 1.21658 123.125 0.991166 122.417 0.870717C121.711 0.753152 120.998 0.690118 120.283 0.682173C119.958 0.676968 119.625 0.670717 119.3 0.668637C118.916 0.666504 118.527 0.666504 118.144 0.666504V0.666643Z" fill="#A6A6A6"/>
<path d="M9.67426 42.4001C9.34927 42.4001 9.03213 42.3959 8.70969 42.3887C8.04172 42.38 7.37532 42.3218 6.71594 42.2147C6.1011 42.1088 5.50549 41.9118 4.94875 41.6303C4.39711 41.3511 3.89398 40.9849 3.45862 40.5459C3.01695 40.1121 2.64925 39.6089 2.37007 39.0563C2.08782 38.5001 1.89249 37.904 1.79087 37.2886C1.68114 36.6274 1.62177 35.9588 1.61327 35.2886C1.60651 35.0637 1.59766 34.3147 1.59766 34.3147V9.67406C1.59766 9.67406 1.60709 8.93656 1.61333 8.71988C1.62146 8.05074 1.68049 7.38319 1.78989 6.72301C1.89169 6.10596 2.08718 5.5081 2.36958 4.9501C2.64773 4.3979 3.01339 3.89435 3.4524 3.45896C3.89091 3.01943 4.39565 2.65141 4.94823 2.36832C5.50369 2.08766 6.09817 1.89208 6.71177 1.78812C7.37331 1.67992 8.04203 1.62143 8.71231 1.61312L9.67479 1.6001H119.295L120.269 1.61364C120.933 1.62154 121.595 1.67951 122.251 1.78707C122.871 1.89234 123.471 2.08929 124.033 2.37145C125.14 2.94195 126.041 3.84454 126.609 4.95271C126.887 5.50685 127.08 6.09984 127.18 6.71155C127.291 7.37715 127.353 8.04995 127.365 8.72458C127.369 9.02666 127.369 9.35114 127.369 9.67406C127.377 10.0741 127.377 10.4548 127.377 10.8386V33.1625C127.377 33.5501 127.377 33.9282 127.369 34.3094C127.369 34.6563 127.368 34.9741 127.364 35.3011C127.352 35.9637 127.291 36.6245 127.182 37.2782C127.083 37.898 126.888 38.4988 126.606 39.0595C126.325 39.6061 125.959 40.1049 125.523 40.5376C125.087 40.979 124.583 41.3472 124.03 41.6283C123.47 41.912 122.87 42.1097 122.251 42.2147C121.592 42.3224 120.925 42.3806 120.257 42.3887C119.945 42.3959 119.617 42.4001 119.3 42.4001L118.144 42.4022L9.67426 42.4001Z" fill="black"/>
<path d="M27.0865 22.3208C27.098 21.4305 27.3345 20.5576 27.774 19.7832C28.2135 19.0089 28.8417 18.3583 29.6002 17.8919C29.1183 17.2038 28.4827 16.6374 27.7437 16.2379C27.0046 15.8384 26.1826 15.6167 25.343 15.5904C23.5518 15.4024 21.8153 16.6622 20.9025 16.6622C19.9721 16.6622 18.5668 15.6091 17.0535 15.6402C16.0746 15.6718 15.1206 15.9565 14.2845 16.4664C13.4484 16.9763 12.7586 17.6942 12.2824 18.5499C10.2194 22.1216 11.7582 27.3707 13.7343 30.2578C14.723 31.6715 15.8785 33.2506 17.3904 33.1946C18.87 33.1333 19.4225 32.2512 21.2085 32.2512C22.9778 32.2512 23.4962 33.1946 25.0389 33.159C26.6265 33.1332 27.6267 31.739 28.5807 30.3119C29.2911 29.3046 29.8377 28.1913 30.2004 27.0133C29.278 26.6231 28.4909 25.9702 27.9372 25.1357C27.3835 24.3013 27.0876 23.3223 27.0865 22.3208Z" fill="white"/>
<path d="M24.173 13.6916C25.0386 12.6524 25.465 11.3168 25.3618 9.96826C24.0393 10.1072 22.8177 10.7392 21.9404 11.7385C21.5114 12.2267 21.1829 12.7946 20.9735 13.4098C20.7642 14.0251 20.6782 14.6755 20.7204 15.324C21.3819 15.3308 22.0363 15.1874 22.6343 14.9047C23.2324 14.6219 23.7585 14.2071 24.173 13.6916Z" fill="white"/>
<path d="M45.7887 29.6156H40.7397L39.5272 33.1958H37.3887L42.171 19.95H44.3928L49.1751 33.1958H47.0001L45.7887 29.6156ZM41.2626 27.9635H45.2648L43.2918 22.1531H43.2366L41.2626 27.9635Z" fill="white"/>
<path d="M59.5032 28.3675C59.5032 31.3686 57.8969 33.2967 55.4729 33.2967C54.8589 33.3288 54.2483 33.1874 53.7109 32.8886C53.1735 32.5898 52.7311 32.1457 52.4344 31.6071H52.3885V36.3904H50.4062V23.5384H52.325V25.1446H52.3615C52.6718 24.6087 53.1217 24.1669 53.6632 23.8662C54.2046 23.5656 54.8175 23.4174 55.4365 23.4373C57.8875 23.4373 59.5032 25.3748 59.5032 28.3675ZM57.4657 28.3675C57.4657 26.4123 56.4552 25.1269 54.9136 25.1269C53.399 25.1269 52.3802 26.4394 52.3802 28.3675C52.3802 30.3134 53.399 31.6165 54.9136 31.6165C56.4552 31.6165 57.4657 30.3405 57.4657 28.3675Z" fill="white"/>
<path d="M70.1325 28.3675C70.1325 31.3686 68.5263 33.2967 66.1023 33.2967C65.4883 33.3288 64.8776 33.1874 64.3403 32.8886C63.8029 32.5897 63.3605 32.1456 63.0638 31.6071H63.0179V36.3904H61.0356V23.5384H62.9544V25.1446H62.9908C63.3012 24.6087 63.751 24.1668 64.2925 23.8662C64.834 23.5656 65.4468 23.4174 66.0659 23.4373C68.5169 23.4373 70.1325 25.3748 70.1325 28.3675ZM68.095 28.3675C68.095 26.4123 67.0846 25.1269 65.543 25.1269C64.0284 25.1269 63.0096 26.4394 63.0096 28.3675C63.0096 30.3134 64.0284 31.6165 65.543 31.6165C67.0846 31.6165 68.0951 30.3405 68.0951 28.3675H68.095Z" fill="white"/>
<path d="M77.1576 29.5051C77.3045 30.8186 78.5806 31.6811 80.3243 31.6811C81.9951 31.6811 83.1972 30.8186 83.1972 29.6342C83.1972 28.6061 82.4722 27.9905 80.7555 27.5686L79.0389 27.1551C76.6066 26.5676 75.4774 25.43 75.4774 23.5842C75.4774 21.2988 77.4691 19.729 80.2972 19.729C83.0961 19.729 85.0149 21.2988 85.0795 23.5842H83.0784C82.9586 22.2623 81.8659 21.4644 80.2691 21.4644C78.6722 21.4644 77.5795 22.2717 77.5795 23.4467C77.5795 24.3832 78.2774 24.9342 79.9847 25.3561L81.444 25.7144C84.1617 26.3571 85.2909 27.4488 85.2909 29.3863C85.2909 31.8644 83.317 33.4165 80.1774 33.4165C77.2399 33.4165 75.2565 31.9008 75.1284 29.505L77.1576 29.5051Z" fill="white"/>
<path d="M89.5687 21.2529V23.5383H91.4051V25.1081H89.5687V30.4321C89.5687 31.2592 89.9364 31.6446 90.7437 31.6446C90.9617 31.6408 91.1794 31.6255 91.3958 31.5987V33.1591C91.0328 33.227 90.6639 33.2577 90.2947 33.2508C88.3395 33.2508 87.577 32.5164 87.577 30.6435V25.1081H86.1729V23.5383H87.577V21.2529H89.5687Z" fill="white"/>
<path d="M92.4688 28.3676C92.4688 25.3291 94.2583 23.4197 97.049 23.4197C99.849 23.4197 101.63 25.329 101.63 28.3676C101.63 31.4145 99.8583 33.3155 97.049 33.3155C94.2406 33.3155 92.4688 31.4145 92.4688 28.3676ZM99.6104 28.3676C99.6104 26.2832 98.6552 25.053 97.0489 25.053C95.4427 25.053 94.4885 26.2926 94.4885 28.3676C94.4885 30.4603 95.4427 31.6811 97.0489 31.6811C98.6552 31.6811 99.6104 30.4603 99.6104 28.3676H99.6104Z" fill="white"/>
<path d="M103.265 23.5385H105.155V25.1823H105.201C105.329 24.6689 105.63 24.2152 106.053 23.8975C106.476 23.5797 106.995 23.4173 107.524 23.4375C107.753 23.4367 107.98 23.4615 108.203 23.5114V25.3656C107.915 25.2775 107.614 25.237 107.313 25.2458C107.025 25.2341 106.737 25.2849 106.471 25.3946C106.204 25.5044 105.965 25.6705 105.769 25.8816C105.572 26.0927 105.424 26.3437 105.334 26.6175C105.244 26.8913 105.214 27.1813 105.247 27.4677V33.1958H103.265L103.265 23.5385Z" fill="white"/>
<path d="M117.343 30.3593C117.076 32.1124 115.369 33.3155 113.184 33.3155C110.375 33.3155 108.631 31.4332 108.631 28.4134C108.631 25.3843 110.384 23.4197 113.101 23.4197C115.773 23.4197 117.453 25.2551 117.453 28.1832V28.8624H110.632V28.9822C110.601 29.3376 110.645 29.6956 110.763 30.0325C110.88 30.3694 111.068 30.6775 111.314 30.9362C111.56 31.1949 111.858 31.3984 112.188 31.5331C112.518 31.6678 112.874 31.7307 113.23 31.7176C113.699 31.7615 114.169 31.653 114.571 31.4082C114.972 31.1635 115.285 30.7956 115.461 30.3593L117.343 30.3593ZM110.642 27.477H115.47C115.488 27.1574 115.439 26.8376 115.328 26.5376C115.216 26.2377 115.043 25.964 114.821 25.7339C114.599 25.5037 114.331 25.3221 114.035 25.2002C113.739 25.0784 113.421 25.0191 113.101 25.0259C112.778 25.024 112.458 25.086 112.16 25.2084C111.861 25.3308 111.589 25.5111 111.361 25.739C111.132 25.9669 110.951 26.2378 110.827 26.5361C110.704 26.8344 110.641 27.1542 110.642 27.477V27.477Z" fill="white"/>
<path d="M41.0143 9.97988C41.4299 9.95006 41.8469 10.0128 42.2353 10.1637C42.6237 10.3146 42.9737 10.5497 43.2602 10.8523C43.5467 11.1548 43.7625 11.5172 43.892 11.9132C44.0215 12.3092 44.0615 12.729 44.0091 13.1424C44.0091 15.1757 42.9101 16.3445 41.0143 16.3445H38.7153V9.97988H41.0143ZM39.7039 15.4444H40.9039C41.2008 15.4622 41.498 15.4135 41.7738 15.3019C42.0496 15.1903 42.297 15.0186 42.4981 14.7993C42.6991 14.5801 42.8487 14.3187 42.9361 14.0343C43.0234 13.7499 43.0462 13.4497 43.0028 13.1553C43.043 12.8622 43.0179 12.5638 42.9293 12.2815C42.8406 11.9992 42.6906 11.7399 42.49 11.5224C42.2894 11.3049 42.0432 11.1344 41.7689 11.0232C41.4947 10.9121 41.1993 10.8629 40.9039 10.8793H39.7039V15.4444Z" fill="white"/>
<path d="M45.1259 13.9409C45.0958 13.6252 45.1319 13.3067 45.232 13.0059C45.3321 12.705 45.4939 12.4284 45.7072 12.1937C45.9205 11.9591 46.1804 11.7716 46.4704 11.6433C46.7604 11.515 47.074 11.4487 47.3911 11.4487C47.7081 11.4487 48.0217 11.515 48.3117 11.6433C48.6017 11.7716 48.8616 11.9591 49.0749 12.1937C49.2882 12.4284 49.4501 12.705 49.5502 13.0059C49.6502 13.3067 49.6864 13.6252 49.6562 13.9409C49.6869 14.2568 49.6512 14.5758 49.5514 14.8771C49.4516 15.1785 49.2898 15.4556 49.0765 15.6907C48.8632 15.9258 48.603 16.1137 48.3127 16.2423C48.0225 16.3708 47.7085 16.4373 47.3911 16.4373C47.0736 16.4373 46.7596 16.3708 46.4694 16.2423C46.1791 16.1137 45.919 15.9258 45.7056 15.6907C45.4923 15.4556 45.3305 15.1785 45.2307 14.8771C45.1309 14.5758 45.0952 14.2568 45.1259 13.9409ZM48.6811 13.9409C48.6811 12.8997 48.2134 12.2909 47.3926 12.2909C46.5687 12.2909 46.1051 12.8997 46.1051 13.9409C46.1051 14.9904 46.5687 15.5945 47.3926 15.5945C48.2135 15.5945 48.6812 14.9862 48.6812 13.9409H48.6811Z" fill="white"/>
<path d="M55.6778 16.3444H54.6945L53.7018 12.8069H53.6268L52.6383 16.3444H51.6643L50.3403 11.5413H51.3018L52.1622 15.2063H52.233L53.2205 11.5413H54.1299L55.1174 15.2063H55.1924L56.0487 11.5413H56.9966L55.6778 16.3444Z" fill="white"/>
<path d="M58.1099 11.5413H59.0224V12.3043H59.0932C59.2134 12.0303 59.416 11.8005 59.673 11.6471C59.9299 11.4937 60.2283 11.4243 60.5265 11.4486C60.7602 11.431 60.9949 11.4662 61.2131 11.5517C61.4314 11.6371 61.6276 11.7706 61.7873 11.9421C61.9469 12.1137 62.0659 12.319 62.1355 12.5428C62.205 12.7666 62.2233 13.0032 62.189 13.235V16.3444H61.2411V13.4731C61.2411 12.7012 60.9057 12.3173 60.2047 12.3173C60.046 12.3099 59.8876 12.3369 59.7403 12.3965C59.5931 12.4561 59.4604 12.5467 59.3515 12.6624C59.2426 12.778 59.1599 12.9158 59.1092 13.0663C59.0585 13.2168 59.041 13.3766 59.0578 13.5345V16.3444H58.1099L58.1099 11.5413Z" fill="white"/>
<path d="M63.6997 9.66626H64.6476V16.3444H63.6997V9.66626Z" fill="white"/>
<path d="M65.9653 13.9407C65.9351 13.625 65.9712 13.3066 66.0714 13.0057C66.1715 12.7048 66.3334 12.4281 66.5467 12.1935C66.76 11.9588 67.0199 11.7714 67.3099 11.6431C67.5999 11.5148 67.9135 11.4485 68.2306 11.4485C68.5478 11.4485 68.8614 11.5148 69.1514 11.6431C69.4413 11.7714 69.7013 11.9588 69.9146 12.1935C70.1279 12.4281 70.2898 12.7048 70.3899 13.0057C70.49 13.3066 70.5262 13.625 70.496 13.9407C70.5267 14.2567 70.491 14.5756 70.3912 14.877C70.2913 15.1783 70.1295 15.4555 69.9161 15.6906C69.7028 15.9257 69.4426 16.1135 69.1524 16.2421C68.8621 16.3707 68.5481 16.4371 68.2306 16.4371C67.9132 16.4371 67.5992 16.3707 67.3089 16.2421C67.0187 16.1135 66.7585 15.9257 66.5451 15.6906C66.3318 15.4555 66.17 15.1783 66.0701 14.877C65.9703 14.5756 65.9345 14.2567 65.9653 13.9407ZM69.5205 13.9407C69.5205 12.8996 69.0528 12.2907 68.2319 12.2907C67.408 12.2907 66.9445 12.8996 66.9445 13.9407C66.9445 14.9902 67.408 15.5944 68.2319 15.5944C69.0528 15.5944 69.5205 14.986 69.5205 13.9407H69.5205Z" fill="white"/>
<path d="M71.4941 14.986C71.4941 14.1214 72.1379 13.623 73.2806 13.5521L74.5816 13.4771V13.0625C74.5816 12.5552 74.2462 12.2688 73.5983 12.2688C73.0691 12.2688 72.7025 12.4631 72.5973 12.8027H71.6796C71.7764 11.9776 72.5525 11.4485 73.6421 11.4485C74.8462 11.4485 75.5254 12.048 75.5254 13.0625V16.3443H74.6129V15.6693H74.5379C74.3857 15.9114 74.1719 16.1088 73.9184 16.2413C73.665 16.3738 73.3809 16.4367 73.0952 16.4235C72.8935 16.4444 72.6898 16.4229 72.4969 16.3603C72.3041 16.2977 72.1266 16.1954 71.9757 16.0599C71.8249 15.9245 71.7041 15.759 71.6212 15.574C71.5382 15.389 71.4949 15.1887 71.4941 14.986ZM74.5816 14.5756V14.174L73.4087 14.249C72.7473 14.2933 72.4473 14.5183 72.4473 14.9417C72.4473 15.374 72.8223 15.6256 73.3379 15.6256C73.489 15.6408 73.6416 15.6256 73.7867 15.5807C73.9318 15.5358 74.0663 15.4622 74.1824 15.3642C74.2984 15.2663 74.3936 15.1459 74.4622 15.0105C74.5307 14.875 74.5714 14.7271 74.5816 14.5756Z" fill="white"/>
<path d="M76.771 13.9408C76.771 12.423 77.5512 11.4616 78.7647 11.4616C79.0649 11.4478 79.3628 11.5197 79.6237 11.6689C79.8845 11.8181 80.0975 12.0385 80.2377 12.3043H80.3085V9.66626H81.2564V16.3444H80.3481V15.5855H80.2731C80.122 15.8495 79.9017 16.0672 79.6358 16.2149C79.3699 16.3626 79.0687 16.4347 78.7648 16.4235C77.5429 16.4236 76.771 15.4621 76.771 13.9408ZM77.7502 13.9408C77.7502 14.9595 78.2304 15.5725 79.0335 15.5725C79.8325 15.5725 80.3262 14.9507 80.3262 13.9449C80.3262 12.9439 79.8273 12.3132 79.0335 12.3132C78.2356 12.3132 77.7502 12.9303 77.7502 13.9408H77.7502Z" fill="white"/>
<path d="M85.1782 13.9409C85.148 13.6252 85.1841 13.3067 85.2842 13.0059C85.3843 12.705 85.5462 12.4284 85.7594 12.1937C85.9727 11.9591 86.2327 11.7716 86.5226 11.6433C86.8126 11.515 87.1262 11.4487 87.4433 11.4487C87.7604 11.4487 88.074 11.515 88.3639 11.6433C88.6539 11.7716 88.9139 11.9591 89.1271 12.1937C89.3404 12.4284 89.5023 12.705 89.6024 13.0059C89.7025 13.3067 89.7386 13.6252 89.7084 13.9409C89.7392 14.2568 89.7035 14.5758 89.6037 14.8771C89.5038 15.1785 89.3421 15.4556 89.1287 15.6907C88.9154 15.9258 88.6552 16.1137 88.365 16.2423C88.0747 16.3708 87.7608 16.4373 87.4433 16.4373C87.1258 16.4373 86.8119 16.3708 86.5216 16.2423C86.2313 16.1137 85.9712 15.9258 85.7579 15.6907C85.5445 15.4556 85.3828 15.1785 85.2829 14.8771C85.1831 14.5758 85.1474 14.2568 85.1782 13.9409ZM88.7334 13.9409C88.7334 12.8997 88.2657 12.2909 87.4449 12.2909C86.6209 12.2909 86.1574 12.8997 86.1574 13.9409C86.1574 14.9904 86.6209 15.5945 87.4449 15.5945C88.2657 15.5945 88.7334 14.9862 88.7334 13.9409Z" fill="white"/>
<path d="M90.9805 11.5413H91.893V12.3043H91.9638C92.084 12.0303 92.2866 11.8005 92.5436 11.6471C92.8005 11.4937 93.0989 11.4243 93.3971 11.4486C93.6308 11.431 93.8655 11.4662 94.0837 11.5517C94.302 11.6371 94.4982 11.7706 94.6579 11.9421C94.8175 12.1137 94.9365 12.319 95.0061 12.5428C95.0756 12.7666 95.0939 13.0032 95.0596 13.235V16.3444H94.1117V13.4731C94.1117 12.7012 93.7763 12.3173 93.0753 12.3173C92.9166 12.3099 92.7582 12.3369 92.6109 12.3965C92.4637 12.4561 92.331 12.5467 92.2221 12.6624C92.1132 12.778 92.0305 12.9158 91.9798 13.0663C91.9291 13.2168 91.9116 13.3766 91.9284 13.5345V16.3444H90.9805V11.5413Z" fill="white"/>
<path d="M100.416 10.3455V11.5632H101.457V12.3616H100.416V14.8314C100.416 15.3345 100.623 15.5548 101.095 15.5548C101.216 15.5544 101.337 15.5471 101.457 15.533V16.3225C101.286 16.353 101.114 16.3692 100.941 16.371C99.8869 16.371 99.4671 16.0001 99.4671 15.0741V12.3616H98.7046V11.5631H99.4671V10.3455H100.416Z" fill="white"/>
<path d="M102.751 9.66626H103.691V12.3131H103.766C103.892 12.0365 104.1 11.8055 104.362 11.6515C104.624 11.4976 104.928 11.4281 105.231 11.4527C105.463 11.4401 105.695 11.4789 105.911 11.5664C106.127 11.6539 106.321 11.788 106.479 11.959C106.637 12.13 106.755 12.3338 106.825 12.5558C106.895 12.7778 106.916 13.0126 106.885 13.2433V16.3444H105.936V13.4772C105.936 12.71 105.579 12.3215 104.909 12.3215C104.746 12.3081 104.582 12.3305 104.429 12.3871C104.275 12.4437 104.136 12.5331 104.021 12.6491C103.906 12.7651 103.817 12.9048 103.762 13.0586C103.706 13.2123 103.685 13.3763 103.699 13.5392V16.3444H102.752L102.751 9.66626Z" fill="white"/>
<path d="M112.412 15.0475C112.283 15.4865 112.004 15.8662 111.623 16.1202C111.243 16.3743 110.785 16.4864 110.331 16.4371C110.014 16.4455 109.7 16.3848 109.409 16.2595C109.118 16.1341 108.858 15.947 108.647 15.7111C108.436 15.4752 108.279 15.1962 108.186 14.8935C108.094 14.5908 108.069 14.2715 108.112 13.9579C108.07 13.6434 108.096 13.3235 108.188 13.0198C108.28 12.7162 108.437 12.4359 108.647 12.1979C108.856 11.96 109.115 11.7699 109.405 11.6407C109.695 11.5114 110.009 11.4459 110.326 11.4486C111.663 11.4486 112.469 12.3616 112.469 13.8699V14.2007H109.077V14.2538C109.063 14.43 109.085 14.6075 109.142 14.7747C109.2 14.9419 109.292 15.0952 109.413 15.2247C109.533 15.3543 109.679 15.4572 109.842 15.527C110.004 15.5967 110.18 15.6317 110.357 15.6298C110.583 15.657 110.813 15.6162 111.017 15.5125C111.22 15.4088 111.388 15.2469 111.499 15.0475L112.412 15.0475ZM109.077 13.4996H111.503C111.515 13.3384 111.493 13.1765 111.439 13.0243C111.385 12.872 111.299 12.7328 111.188 12.6157C111.076 12.4985 110.942 12.4059 110.793 12.3438C110.643 12.2818 110.483 12.2516 110.321 12.2553C110.157 12.2533 109.994 12.2841 109.843 12.3459C109.691 12.4077 109.553 12.4993 109.437 12.6152C109.321 12.7312 109.229 12.8692 109.168 13.0211C109.106 13.173 109.075 13.3357 109.077 13.4996H109.077Z" fill="white"/>
</svg>
