<svg width="683" height="760" viewBox="0 0 683 760" fill="none" xmlns="http://www.w3.org/2000/svg">
<g opacity="0.5">
<path d="M145.66 243.797C116.958 238.808 96 213.851 96 184.662L96 -293L103.987 -286.385C122.795 -270.809 145.333 -260.417 169.375 -256.238Lnan nanL169.375 -256.238L242.75 -243.484L389.5 -217.976L683 -166.96L683 337.197L145.66 243.797Z" fill="#1E88E5"/>
<path d="M341.638 481L341.638 -56.461C341.638 -85.59 362.532 -110.508 391.177 -115.542L682.999 -166.82L682.999 346.647C682.999 375.776 662.105 400.695 633.459 405.728L512.318 427.015L426.978 442.011Lnan nanL426.978 442.011C398.913 446.942 372.37 458.319 349.431 475.248L341.638 481Z" fill="#1565C0"/>
<path fill-rule="evenodd" clip-rule="evenodd" d="M682.999 337.197L682.999 -166.819L391.177 -115.525C362.532 -110.49 341.638 -85.5638 341.638 -56.4257L341.638 277.869L682.999 337.197Z" fill="#2196F3"/>
<path d="M538.255 515.203C567.006 520.192 588 545.149 588 574.338L588 1052L580 1045.39C561.16 1029.81 538.583 1019.42 514.5 1015.24Lnan nanL514.5 1015.24L441 1002.48L294 976.976L2.20374e-05 925.96L0 421.803L538.255 515.203Z" fill="#1E88E5"/>
<path d="M341.944 278L341.944 815.461C341.944 844.59 321.015 869.508 292.321 874.542L0.00192041 925.82L0.00189796 412.353C0.00189669 383.224 20.9316 358.305 49.6256 353.272L170.973 331.985L256.459 316.989Lnan nanL256.459 316.989C284.571 312.058 311.159 300.681 334.137 283.752L341.944 278Z" fill="#1565C0"/>
<path fill-rule="evenodd" clip-rule="evenodd" d="M0.00189209 421.803L0.00191412 925.819L292.321 874.525C321.015 869.49 341.944 844.564 341.944 815.426L341.944 481.131L0.00189209 421.803Z" fill="#2196F3"/>
</g>
</svg>
