<svg width="172" height="40" viewBox="0 0 172 40" fill="none" xmlns="http://www.w3.org/2000/svg">
<path d="M16.139 3.38401C16.4784 1.42816 18.1765 0 20.1625 0H52.6619L52.2118 0.544236C51.152 1.82588 50.445 3.3617 50.1607 5L49.2929 10L47.5574 20L44.0863 40H9.78418L16.139 3.38401Z" fill="#1BAAE2"/>
<path d="M0 16.7385H36.568C38.5499 16.7385 40.2454 18.1623 40.5878 20.1143L44.0767 39.9999H9.14116C7.15927 39.9999 5.46385 38.5761 5.12138 36.6242L3.67306 28.3692L2.65277 22.5539C2.31723 20.6414 1.54319 18.8327 0.391345 17.2696L0 16.7385Z" fill="#F7C71D"/>
<path fill-rule="evenodd" clip-rule="evenodd" d="M9.78418 39.9999H44.0767L40.5868 20.1143C40.2442 18.1623 38.5482 16.7385 36.5657 16.7385H13.8208L9.78418 39.9999Z" fill="#069257"/>
<path d="M65.0368 25.928C63.5197 25.928 62.2265 25.928 60.7344 25.928C60.6349 33.5877 74.8103 33.4633 74.8103 26.1518C74.8103 21.7997 71.4281 21.2775 67.9713 20.9045C66.4045 20.7304 65.1114 20.4568 65.2108 19.1388C65.36 17.0746 70.0354 16.8757 70.0354 19.1885C71.5524 19.1885 72.6964 19.1885 74.2632 19.1885C74.3626 11.6781 60.8339 11.6781 60.9831 19.1885C61.0328 22.9686 63.5197 24.2618 67.2998 24.5353C69.0407 24.6348 70.4831 24.9084 70.4831 26.127C70.4831 28.1662 65.0368 28.1414 65.0368 25.928Z" fill="#424242"/>
<path d="M83.2518 27.3455V17.7212H85.291V13.8417H76.8107V17.7212H78.8499V27.3455H76.6366V31.25H85.4651V27.3455H83.2518Z" fill="#424242"/>
<path d="M94.9418 13.8417H88.3763V31.25H94.9418C106.282 31.2002 106.282 13.8914 94.9418 13.8417ZM92.8279 17.8953H94.9418C100.488 17.8953 100.488 27.1963 94.9418 27.1963H92.8279V17.8953Z" fill="#424242"/>
<path d="M117.702 13.8417C113.623 13.8417 110.863 13.8417 106.834 13.8417C106.834 19.6113 106.834 25.4306 106.834 31.25C110.863 31.25 113.847 31.25 117.925 31.25C117.925 29.9319 117.925 28.589 117.925 27.2958C115.314 27.2958 113.822 27.2958 111.261 27.2958C111.261 26.2513 111.261 25.2565 111.261 24.2369H117.179C117.179 22.9189 117.179 21.6008 117.179 20.2827H111.261V17.8207C113.822 17.8207 115.115 17.8207 117.702 17.8207C117.702 16.4778 117.702 15.1348 117.702 13.8417Z" fill="#424242"/>
<path d="M134.603 19.1885C134.603 16.1793 132.191 13.8417 129.181 13.8417H121.746V31.25H129.903C133.459 31.25 135.299 28.7879 135.324 25.7539C135.324 24.212 134.653 22.9189 133.235 22.1977C134.081 21.5013 134.603 20.233 134.603 19.1885ZM129.579 24.3364C131.37 24.3364 131.395 27.2958 129.604 27.2958H126.048V24.3364H129.579ZM128.833 17.8207C130.624 17.8207 130.624 20.6309 128.858 20.6309H126.048V17.8207H128.833Z" fill="#424242"/>
<path d="M149.861 31.25H154.213V30.6034L146.355 13.6178H144.44L136.606 30.6034V31.25H140.958L141.978 29.0615H148.841L149.861 31.25ZM147.399 25.2565H143.42L145.385 20.6806L147.399 25.2565Z" fill="#424242"/>
<path d="M167.79 25.0825C172.191 22.0982 170.948 13.8665 164.109 13.8417C161.572 13.8417 158.986 13.8417 156.474 13.8417C156.474 19.661 156.474 25.4555 156.474 31.25C157.917 31.25 159.434 31.25 160.926 31.25V26.127H163.239L166.223 31.25H171.197V30.6034L167.79 25.0825ZM164.109 22.1728H160.926C160.926 20.7801 160.926 19.2382 160.926 17.8207C161.97 17.8207 163.064 17.7958 164.109 17.8207C166.646 17.8456 166.521 22.1728 164.109 22.1728Z" fill="#424242"/>
</svg>
