<svg width="20" height="15" viewBox="0 0 20 15" fill="none" xmlns="http://www.w3.org/2000/svg">
<path d="M18.125 9.1875H17.8125V2.625C17.8104 2.04547 17.5793 1.49027 17.1695 1.08048C16.7597 0.670688 16.2045 0.439559 15.625 0.4375H4.375C3.79547 0.439559 3.24027 0.670688 2.83048 1.08048C2.42069 1.49027 2.18956 2.04547 2.1875 2.625V9.1875H1.875C1.62636 9.1875 1.3879 9.28627 1.21209 9.46209C1.03627 9.6379 0.9375 9.87636 0.9375 10.125V12C0.939559 12.5795 1.17069 13.1347 1.58048 13.5445C1.99027 13.9543 2.54547 14.1854 3.125 14.1875H16.875C17.4545 14.1854 18.0097 13.9543 18.4195 13.5445C18.8293 13.1347 19.0604 12.5795 19.0625 12V10.125C19.0625 9.87636 18.9637 9.6379 18.7879 9.46209C18.6121 9.28627 18.3736 9.1875 18.125 9.1875ZM4.0625 2.625C4.0625 2.54212 4.09542 2.46263 4.15403 2.40403C4.21263 2.34542 4.29212 2.3125 4.375 2.3125H15.625C15.7079 2.3125 15.7874 2.34542 15.846 2.40403C15.9046 2.46263 15.9375 2.54212 15.9375 2.625V9.1875H4.0625V2.625ZM17.1875 12C17.1875 12.0829 17.1546 12.1624 17.096 12.221C17.0374 12.2796 16.9579 12.3125 16.875 12.3125H3.125C3.04212 12.3125 2.96263 12.2796 2.90403 12.221C2.84542 12.1624 2.8125 12.0829 2.8125 12V11.0625H17.1875V12ZM12.1875 4.5C12.1875 4.74864 12.0887 4.9871 11.9129 5.16291C11.7371 5.33873 11.4986 5.4375 11.25 5.4375H8.75C8.50136 5.4375 8.2629 5.33873 8.08709 5.16291C7.91127 4.9871 7.8125 4.74864 7.8125 4.5C7.8125 4.25136 7.91127 4.0129 8.08709 3.83709C8.2629 3.66127 8.50136 3.5625 8.75 3.5625H11.25C11.4986 3.5625 11.7371 3.66127 11.9129 3.83709C12.0887 4.0129 12.1875 4.25136 12.1875 4.5Z" fill="#1976D2"/>
</svg>
