<svg width="472" height="204" viewBox="0 0 472 204" fill="none" xmlns="http://www.w3.org/2000/svg">
<g clip-path="url(#clip0_785_4149)">
<rect width="472" height="204" rx="16" fill="#E6F6EC"/>
<path d="M228.814 66.8096H136.827C134.736 66.8096 133.048 65.1165 133.048 63.0331V34.4893C133.048 32.3997 134.742 30.7129 136.827 30.7129H228.814C230.905 30.7129 232.592 32.406 232.592 34.4893V63.0331C232.592 65.1227 230.905 66.8096 228.814 66.8096Z" fill="#F5F7FB"/>
<path d="M163.058 62.5484H139.92C138.736 62.5484 137.772 61.5917 137.772 60.4021V37.0006C137.772 35.8173 138.729 34.8543 139.92 34.8543H163.058C164.242 34.8543 165.205 35.811 165.205 37.0006V60.4021C165.199 61.5917 164.242 62.5484 163.058 62.5484Z" fill="#1FB767"/>
<path d="M199.106 39.9531H170.715C170.438 39.9531 170.211 39.7264 170.211 39.4493V39.3737C170.211 39.0966 170.438 38.8699 170.715 38.8699H199.106C199.383 38.8699 199.61 39.0966 199.61 39.3737V39.4493C199.61 39.7327 199.383 39.9531 199.106 39.9531Z" fill="#D8E1ED"/>
<path d="M222.994 45.92H170.715C170.438 45.92 170.211 45.6933 170.211 45.4162V45.3406C170.211 45.0635 170.438 44.8368 170.715 44.8368H222.994C223.271 44.8368 223.498 45.0635 223.498 45.3406V45.4162C223.498 45.6933 223.271 45.92 222.994 45.92Z" fill="#D8E1ED"/>
<path d="M222.994 51.8806H170.715C170.438 51.8806 170.211 51.6539 170.211 51.3768V51.3012C170.211 51.0241 170.438 50.7973 170.715 50.7973H222.994C223.271 50.7973 223.498 51.0241 223.498 51.3012V51.3768C223.498 51.6602 223.271 51.8806 222.994 51.8806Z" fill="#D8E1ED"/>
<path d="M222.994 57.8474H170.715C170.438 57.8474 170.211 57.6206 170.211 57.3435V57.268C170.211 56.9909 170.438 56.7641 170.715 56.7641H222.994C223.271 56.7641 223.498 56.9909 223.498 57.268V57.3435C223.498 57.6206 223.271 57.8474 222.994 57.8474Z" fill="#D8E1ED"/>
<path fill-rule="evenodd" clip-rule="evenodd" d="M151.06 42.0486C150.122 42.0486 149.227 42.4199 148.566 43.0871C147.905 43.7543 147.533 44.648 147.533 45.5859C147.533 46.5237 147.905 47.4238 148.566 48.0846C148.635 48.1539 148.711 48.2231 148.78 48.286C147.905 48.4245 147.092 48.8588 146.475 49.526C145.713 50.3379 145.297 51.4331 145.297 52.566V53.4661C145.297 53.8689 145.619 54.1899 146.022 54.1899C146.425 54.1899 146.746 53.8689 146.746 53.4661V52.566C146.746 51.7856 147.036 51.0492 147.533 50.5079C148.031 49.9729 148.698 49.6833 149.378 49.6833H152.735C152.786 49.6833 152.836 49.6833 152.886 49.6896H155.783C155.733 49.633 155.689 49.5763 155.638 49.526C155.015 48.8588 154.209 48.4245 153.333 48.286C153.409 48.2231 153.478 48.1539 153.548 48.0846C154.209 47.4175 154.58 46.5237 154.58 45.5859C154.58 44.648 154.209 43.748 153.548 43.0871C152.893 42.4199 151.998 42.0486 151.06 42.0486ZM149.599 44.1068C149.989 43.7165 150.518 43.4962 151.066 43.4962C151.614 43.4962 152.143 43.7165 152.534 44.1068C152.924 44.497 153.145 45.032 153.145 45.5859C153.145 46.1398 152.924 46.6748 152.534 47.065C152.143 47.4552 151.614 47.6755 151.066 47.6755C150.518 47.6755 149.989 47.4552 149.599 47.065C149.208 46.6748 148.988 46.1398 148.988 45.5859C148.988 45.032 149.208 44.497 149.599 44.1068Z" fill="white"/>
<path d="M155.784 50.8415C155.651 50.7093 155.469 50.6401 155.274 50.6401C155.085 50.6401 154.902 50.7156 154.77 50.8478C154.638 50.9799 154.562 51.1562 154.562 51.345C154.562 51.5338 154.638 51.7101 154.77 51.8422L155.223 52.2891H153.359C153.17 52.2891 152.987 52.3646 152.849 52.4968C152.717 52.629 152.641 52.8115 152.641 53.0004C152.641 53.1892 152.717 53.3717 152.849 53.5039C152.981 53.6361 153.17 53.7116 153.359 53.7116H155.223L154.77 54.1585C154.638 54.2906 154.562 54.4732 154.562 54.6557C154.562 54.8445 154.638 55.0208 154.77 55.1529C154.902 55.2851 155.085 55.3606 155.274 55.3606C155.463 55.3606 155.645 55.2851 155.784 55.1592L157.465 53.5039C157.484 53.485 157.497 53.4724 157.509 53.4535C157.516 53.4472 157.516 53.4409 157.522 53.4346L157.528 53.4284L157.535 53.4221C157.541 53.4158 157.547 53.4095 157.553 53.3969C157.56 53.3843 157.566 53.378 157.572 53.3654L157.579 53.3591C157.585 53.3528 157.585 53.3465 157.591 53.3402C157.598 53.3276 157.604 53.3214 157.61 53.3088C157.61 53.3088 157.61 53.3025 157.616 53.3025C157.623 53.2962 157.623 53.2899 157.629 53.2773C157.635 53.271 157.635 53.2647 157.635 53.2521V53.2458C157.635 53.2395 157.635 53.2395 157.642 53.2332C157.642 53.2269 157.648 53.2206 157.648 53.2081C157.648 53.2018 157.654 53.1892 157.654 53.1829V53.1766V53.1703C157.654 53.164 157.661 53.1514 157.661 53.1451C157.661 53.1325 157.667 53.1262 157.667 53.1136V53.1074C157.667 53.1011 157.667 53.1011 157.667 53.0948C157.667 53.0885 157.667 53.0822 157.667 53.0759C157.673 53.0318 157.673 52.9815 157.667 52.9374C157.667 52.9311 157.667 52.9248 157.667 52.9185C157.667 52.9122 157.667 52.9122 157.667 52.9059V52.8996C157.667 52.8871 157.667 52.8808 157.661 52.8682C157.661 52.8619 157.654 52.8493 157.654 52.843C157.654 52.8367 157.654 52.8367 157.654 52.8367V52.8304C157.654 52.8241 157.648 52.8115 157.648 52.8052C157.648 52.7989 157.642 52.7864 157.642 52.7801V52.7738V52.7675C157.642 52.7612 157.635 52.7486 157.635 52.7423C157.629 52.7297 157.629 52.7234 157.623 52.7108C157.623 52.7108 157.623 52.7045 157.616 52.7045C157.61 52.6982 157.61 52.6856 157.604 52.6794C157.598 52.6668 157.591 52.6605 157.585 52.6542L157.579 52.6479C157.572 52.6416 157.572 52.6353 157.566 52.6227C157.56 52.6164 157.553 52.6101 157.547 52.5975L157.541 52.5912L157.535 52.5849C157.528 52.5786 157.528 52.5724 157.522 52.5661C157.509 52.5472 157.49 52.5346 157.478 52.5157L155.784 50.8415Z" fill="white"/>
<path d="M183.765 117.402H91.7787C89.6878 117.402 88 115.709 88 113.625V85.0815C88 82.9918 89.6941 81.305 91.7787 81.305H183.765C185.856 81.305 187.544 82.9981 187.544 85.0815V113.625C187.55 115.709 185.856 117.402 183.765 117.402Z" fill="#F5F7FB"/>
<path d="M118.009 113.141H94.8707C93.6867 113.141 92.7231 112.184 92.7231 110.994V87.5927C92.7231 86.4094 93.6804 85.4464 94.8707 85.4464H118.009C119.193 85.4464 120.157 86.4031 120.157 87.5927V110.994C120.15 112.178 119.193 113.141 118.009 113.141Z" fill="#1976D2"/>
<path d="M154.058 90.5453H125.667C125.39 90.5453 125.164 90.3186 125.164 90.0415V89.9659C125.164 89.6888 125.39 89.4621 125.667 89.4621H154.058C154.335 89.4621 154.562 89.6888 154.562 89.9659V90.0415C154.562 90.3186 154.335 90.5453 154.058 90.5453Z" fill="#D8E1ED"/>
<path d="M177.946 96.5122H125.667C125.39 96.5122 125.164 96.2855 125.164 96.0084V95.9328C125.164 95.6557 125.39 95.429 125.667 95.429H177.946C178.223 95.429 178.45 95.6557 178.45 95.9328V96.0084C178.45 96.2855 178.223 96.5122 177.946 96.5122Z" fill="#D8E1ED"/>
<path d="M177.946 102.473H125.667C125.39 102.473 125.164 102.246 125.164 101.969V101.893C125.164 101.616 125.39 101.389 125.667 101.389H177.946C178.223 101.389 178.45 101.616 178.45 101.893V101.969C178.45 102.246 178.223 102.473 177.946 102.473Z" fill="#D8E1ED"/>
<path d="M177.946 108.433H125.667C125.39 108.433 125.164 108.207 125.164 107.929V107.854C125.164 107.577 125.39 107.35 125.667 107.35H177.946C178.223 107.35 178.45 107.577 178.45 107.854V107.929C178.45 108.213 178.223 108.433 177.946 108.433Z" fill="#D8E1ED"/>
<path fill-rule="evenodd" clip-rule="evenodd" d="M112.695 94.0065C112.695 94.0191 112.695 94.0317 112.695 94.0443V94.0506V94.0568V99.5642H111.278V95.6681L106.8 99.7719C106.668 99.8915 106.498 99.9607 106.321 99.9607C106.145 99.9607 105.975 99.8915 105.843 99.7719L101.365 95.6681V101.849H106.957V103.265H101.132C100.817 103.265 100.521 103.139 100.294 102.919C100.074 102.699 99.9478 102.397 99.9478 102.082V94.0568V94.0506V94.0443C99.9478 94.0317 99.9478 94.0191 99.9478 94.0065C99.9478 93.9939 99.9478 93.9876 99.9541 93.975C99.9541 93.9498 99.9604 93.931 99.9666 93.9058C99.9666 93.8932 99.9729 93.8806 99.9729 93.8743C99.9729 93.8617 99.9792 93.8491 99.9855 93.8428C99.9918 93.8303 99.9918 93.824 99.9981 93.8114C100.004 93.7988 100.004 93.7925 100.011 93.7799C100.017 93.7673 100.023 93.761 100.023 93.7484C100.03 93.7358 100.036 93.7296 100.042 93.717C100.049 93.7044 100.055 93.6981 100.061 93.6855C100.067 93.6729 100.074 93.6666 100.08 93.654C100.093 93.6351 100.111 93.6163 100.124 93.5974L100.13 93.5911L100.137 93.5848L100.143 93.5785C100.143 93.5785 100.149 93.5785 100.149 93.5722C100.156 93.5659 100.168 93.5533 100.174 93.547C100.181 93.5407 100.193 93.5344 100.2 93.5218C100.206 93.5156 100.219 93.5093 100.225 93.503C100.237 93.4967 100.244 93.4904 100.256 93.4841C100.263 93.4778 100.275 93.4715 100.282 93.4652C100.294 93.4589 100.3 93.4526 100.313 93.4463C100.319 93.44 100.326 93.44 100.338 93.4337H100.345C100.357 93.4274 100.363 93.4211 100.376 93.4211C100.382 93.4148 100.395 93.4148 100.401 93.4086H100.407H100.414C100.42 93.4023 100.433 93.4023 100.439 93.396C100.452 93.3897 100.458 93.3897 100.47 93.3897H100.477C100.489 93.3897 100.496 93.3834 100.508 93.3834C100.521 93.3834 100.533 93.3771 100.546 93.3771C100.559 93.3771 100.571 93.3708 100.578 93.3708C100.59 93.3708 100.603 93.3708 100.609 93.3708C100.622 93.3708 100.634 93.3708 100.647 93.3708H100.653H100.659H111.996H112.002H112.008C112.021 93.3708 112.033 93.3708 112.046 93.3708C112.059 93.3708 112.071 93.3708 112.077 93.3708C112.09 93.3708 112.103 93.3771 112.109 93.3771C112.122 93.3771 112.134 93.3834 112.147 93.3834C112.159 93.3834 112.166 93.3897 112.178 93.3897H112.185C112.197 93.3897 112.203 93.396 112.216 93.396C112.222 93.396 112.235 93.4023 112.241 93.4086H112.247H112.254C112.26 93.4148 112.273 93.4148 112.279 93.4211C112.292 93.4274 112.298 93.4274 112.31 93.4337C112.31 93.4337 112.317 93.4337 112.317 93.44C112.323 93.4463 112.329 93.4463 112.342 93.4526C112.355 93.4589 112.361 93.4652 112.373 93.4715H112.38C112.386 93.4778 112.392 93.4841 112.405 93.4841C112.418 93.4904 112.424 93.4967 112.436 93.503C112.443 93.5093 112.455 93.5156 112.462 93.5218C112.468 93.5281 112.481 93.5344 112.487 93.547C112.493 93.5533 112.506 93.5659 112.512 93.5722L112.518 93.5785L112.525 93.5848L112.531 93.5911C112.531 93.5911 112.531 93.5974 112.537 93.5974C112.562 93.6226 112.581 93.654 112.6 93.6855C112.606 93.6981 112.613 93.7044 112.619 93.717C112.625 93.7296 112.632 93.7358 112.638 93.7484C112.651 93.7673 112.657 93.7925 112.663 93.8114C112.669 93.824 112.669 93.8303 112.676 93.8428C112.682 93.8617 112.688 93.8869 112.695 93.9121C112.701 93.9373 112.701 93.9561 112.707 93.9813C112.695 93.9876 112.695 93.9939 112.695 94.0065ZM106.321 98.2928L110.169 94.7681H102.473L106.321 98.2928Z" fill="white"/>
<path d="M110.533 100.514C110.722 100.514 110.905 100.59 111.044 100.716L112.725 102.371C112.744 102.39 112.757 102.403 112.769 102.422C112.775 102.428 112.782 102.44 112.788 102.447C112.794 102.459 112.801 102.466 112.813 102.478C112.82 102.491 112.826 102.497 112.832 102.51C112.838 102.516 112.845 102.529 112.851 102.535C112.857 102.547 112.864 102.554 112.87 102.566C112.876 102.579 112.882 102.585 112.882 102.598C112.889 102.61 112.889 102.617 112.895 102.629C112.901 102.642 112.901 102.648 112.908 102.661C112.914 102.673 112.914 102.686 112.914 102.692C112.914 102.705 112.92 102.717 112.92 102.724C112.92 102.736 112.927 102.749 112.927 102.761C112.927 102.774 112.933 102.78 112.933 102.793C112.939 102.837 112.939 102.887 112.933 102.931C112.933 102.944 112.933 102.95 112.927 102.963C112.927 102.975 112.92 102.988 112.92 103.001C112.92 103.013 112.914 103.026 112.914 103.032C112.914 103.045 112.908 103.057 112.908 103.064C112.901 103.076 112.901 103.082 112.895 103.095C112.889 103.108 112.889 103.114 112.882 103.127C112.876 103.139 112.876 103.145 112.87 103.158C112.864 103.171 112.857 103.183 112.851 103.189C112.845 103.202 112.838 103.208 112.832 103.215C112.826 103.227 112.82 103.234 112.813 103.246C112.807 103.259 112.801 103.265 112.788 103.278C112.782 103.284 112.775 103.296 112.769 103.303C112.757 103.322 112.738 103.334 112.725 103.353L111.044 105.008C110.911 105.141 110.729 105.21 110.533 105.21C110.344 105.21 110.162 105.134 110.03 105.002C109.897 104.87 109.822 104.694 109.822 104.505C109.822 104.316 109.897 104.14 110.03 104.008L110.483 103.561H108.619C108.43 103.561 108.247 103.485 108.109 103.353C107.976 103.221 107.901 103.038 107.901 102.85C107.901 102.661 107.976 102.478 108.109 102.346C108.241 102.214 108.43 102.138 108.619 102.138H110.483L110.03 101.691C109.897 101.559 109.822 101.377 109.822 101.194C109.822 101.005 109.897 100.829 110.03 100.697C110.162 100.565 110.344 100.514 110.533 100.514Z" fill="white"/>
<path d="M244.182 168.013H152.195C150.104 168.013 148.417 166.319 148.417 164.236V135.692C148.417 133.603 150.111 131.916 152.195 131.916H244.182C246.273 131.916 247.961 133.609 247.961 135.692V164.236C247.961 166.319 246.266 168.013 244.182 168.013Z" fill="#F5F7FB"/>
<path d="M178.419 163.752H155.281C154.097 163.752 153.133 162.795 153.133 161.605V138.204C153.133 137.02 154.091 136.057 155.281 136.057H178.419C179.603 136.057 180.567 137.014 180.567 138.204V161.605C180.567 162.789 179.61 163.752 178.419 163.752Z" fill="#FFC800"/>
<path d="M214.474 141.156H186.083C185.806 141.156 185.58 140.93 185.58 140.652V140.577C185.58 140.3 185.806 140.073 186.083 140.073H214.474C214.751 140.073 214.978 140.3 214.978 140.577V140.652C214.978 140.93 214.751 141.156 214.474 141.156Z" fill="#D8E1ED"/>
<path d="M238.362 147.117H186.083C185.806 147.117 185.58 146.89 185.58 146.613V146.537C185.58 146.26 185.806 146.034 186.083 146.034H238.362C238.639 146.034 238.866 146.26 238.866 146.537V146.613C238.86 146.896 238.639 147.117 238.362 147.117Z" fill="#D8E1ED"/>
<path d="M238.362 153.084H186.083C185.806 153.084 185.58 152.857 185.58 152.58V152.504C185.58 152.227 185.806 152 186.083 152H238.362C238.639 152 238.866 152.227 238.866 152.504V152.58C238.86 152.857 238.639 153.084 238.362 153.084Z" fill="#D8E1ED"/>
<path d="M238.362 159.044H186.083C185.806 159.044 185.58 158.817 185.58 158.54V158.465C185.58 158.188 185.806 157.961 186.083 157.961H238.362C238.639 157.961 238.866 158.188 238.866 158.465V158.54C238.86 158.817 238.639 159.044 238.362 159.044Z" fill="#D8E1ED"/>
<path d="M168.998 152.806C169.432 152.378 169.734 151.83 169.86 151.239C169.986 150.641 169.93 150.024 169.697 149.457C169.464 148.891 169.073 148.406 168.569 148.066C168.066 147.727 167.467 147.544 166.856 147.544C166.245 147.544 165.647 147.727 165.143 148.066C164.64 148.406 164.243 148.891 164.016 149.457C163.783 150.024 163.726 150.641 163.852 151.239C163.978 151.837 164.274 152.384 164.715 152.806C165.603 153.681 166.151 153.681 166.863 153.681C167.436 153.681 168.003 153.844 168.494 154.147C168.985 154.455 169.376 154.889 169.627 155.405C169.665 155.487 169.722 155.563 169.797 155.626C169.867 155.689 169.949 155.733 170.037 155.764C170.125 155.796 170.219 155.808 170.308 155.802C170.402 155.796 170.49 155.77 170.572 155.733C170.654 155.695 170.73 155.638 170.793 155.563C170.856 155.493 170.9 155.412 170.931 155.324C170.963 155.235 170.975 155.141 170.969 155.053C170.963 154.958 170.937 154.87 170.9 154.789C170.484 153.945 169.823 153.253 168.998 152.806ZM165.2 150.609C165.2 150.282 165.294 149.961 165.477 149.69C165.66 149.42 165.918 149.206 166.22 149.08C166.523 148.954 166.856 148.922 167.178 148.985C167.499 149.048 167.795 149.206 168.021 149.439C168.254 149.671 168.412 149.961 168.475 150.282C168.538 150.603 168.506 150.937 168.38 151.239C168.254 151.541 168.04 151.799 167.77 151.981C167.499 152.164 167.178 152.258 166.85 152.258C166.409 152.258 165.994 152.082 165.679 151.774C165.376 151.472 165.2 151.05 165.2 150.609ZM174.13 151.176C174.055 151.232 173.973 151.27 173.878 151.295C173.79 151.32 173.696 151.327 173.601 151.308C173.507 151.295 173.419 151.264 173.343 151.213C173.268 151.163 173.192 151.106 173.135 151.031C172.915 150.735 172.632 150.483 172.317 150.295C171.995 150.106 171.643 149.98 171.271 149.929C171.133 149.911 171 149.848 170.893 149.753C170.786 149.659 170.717 149.533 170.679 149.394C170.641 149.3 170.622 149.199 170.629 149.099C170.635 148.998 170.66 148.897 170.704 148.809C170.748 148.721 170.811 148.639 170.893 148.576C170.969 148.513 171.063 148.469 171.158 148.444C171.353 148.394 171.529 148.299 171.674 148.161C171.819 148.022 171.926 147.852 171.989 147.664C172.052 147.475 172.065 147.273 172.027 147.078C171.989 146.883 171.907 146.701 171.775 146.55C171.649 146.398 171.485 146.279 171.303 146.203C171.12 146.128 170.918 146.103 170.723 146.128C170.528 146.153 170.339 146.229 170.175 146.342C170.012 146.455 169.886 146.612 169.797 146.789C169.76 146.871 169.703 146.946 169.634 147.009C169.564 147.072 169.483 147.122 169.394 147.147C169.306 147.179 169.212 147.192 169.124 147.185C169.029 147.179 168.941 147.16 168.853 147.116C168.771 147.078 168.695 147.022 168.632 146.952C168.569 146.883 168.525 146.801 168.494 146.713C168.462 146.625 168.45 146.531 168.456 146.443C168.462 146.348 168.481 146.26 168.525 146.172C168.683 145.838 168.909 145.542 169.193 145.303C169.476 145.064 169.804 144.888 170.156 144.787C170.509 144.687 170.881 144.661 171.246 144.718C171.611 144.775 171.958 144.901 172.273 145.102C172.581 145.303 172.846 145.568 173.047 145.876C173.249 146.184 173.381 146.537 173.438 146.896C173.494 147.261 173.469 147.632 173.368 147.985C173.268 148.337 173.091 148.671 172.858 148.954C173.412 149.25 173.891 149.659 174.269 150.162C174.326 150.238 174.363 150.32 174.389 150.414C174.414 150.502 174.42 150.597 174.401 150.691C174.382 150.785 174.357 150.874 174.307 150.949C174.263 151.05 174.2 151.119 174.13 151.176ZM162.435 149.929C162.064 149.98 161.711 150.106 161.39 150.295C161.069 150.483 160.792 150.735 160.571 151.031C160.458 151.182 160.288 151.283 160.105 151.308C159.916 151.333 159.727 151.283 159.582 151.176C159.437 151.069 159.33 150.892 159.305 150.71C159.28 150.521 159.33 150.332 159.437 150.188C159.815 149.684 160.294 149.275 160.848 148.979C160.609 148.696 160.439 148.369 160.338 148.01C160.237 147.657 160.212 147.28 160.269 146.921C160.325 146.556 160.458 146.21 160.659 145.895C160.861 145.587 161.125 145.322 161.434 145.121C161.742 144.919 162.095 144.787 162.46 144.737C162.826 144.68 163.197 144.705 163.55 144.806C163.903 144.907 164.236 145.083 164.514 145.322C164.797 145.561 165.024 145.857 165.181 146.191C165.263 146.361 165.269 146.556 165.213 146.732C165.15 146.908 165.017 147.053 164.847 147.135C164.677 147.217 164.482 147.223 164.306 147.166C164.129 147.103 163.985 146.971 163.903 146.801C163.814 146.625 163.689 146.468 163.525 146.354C163.361 146.241 163.178 146.166 162.977 146.14C162.782 146.115 162.58 146.14 162.397 146.216C162.215 146.291 162.051 146.411 161.925 146.562C161.799 146.713 161.711 146.896 161.673 147.091C161.635 147.286 161.648 147.487 161.711 147.676C161.774 147.865 161.881 148.035 162.026 148.173C162.171 148.312 162.347 148.406 162.542 148.457C162.643 148.482 162.731 148.526 162.807 148.589C162.882 148.652 162.952 148.727 162.996 148.822C163.04 148.91 163.065 149.011 163.071 149.111C163.078 149.212 163.059 149.313 163.021 149.407C162.989 149.546 162.914 149.671 162.807 149.766C162.706 149.848 162.574 149.911 162.435 149.929Z" fill="white"/>
<path d="M161.937 152.422C162.126 152.422 162.308 152.498 162.447 152.623L164.128 154.279C164.147 154.298 164.16 154.31 164.172 154.329C164.179 154.335 164.185 154.348 164.191 154.354C164.198 154.367 164.204 154.373 164.217 154.386C164.223 154.398 164.229 154.405 164.235 154.417C164.242 154.424 164.248 154.436 164.254 154.442C164.261 154.455 164.267 154.461 164.273 154.474C164.28 154.487 164.286 154.493 164.286 154.505C164.292 154.518 164.292 154.524 164.298 154.537C164.305 154.549 164.305 154.556 164.311 154.568C164.317 154.581 164.317 154.593 164.317 154.6C164.317 154.612 164.324 154.625 164.324 154.631C164.324 154.644 164.33 154.656 164.33 154.669C164.33 154.682 164.336 154.688 164.336 154.701C164.342 154.745 164.342 154.795 164.336 154.839C164.336 154.852 164.336 154.858 164.33 154.87C164.33 154.883 164.324 154.896 164.324 154.908C164.324 154.921 164.317 154.933 164.317 154.94C164.317 154.952 164.311 154.965 164.311 154.971C164.305 154.984 164.305 154.99 164.298 155.003C164.292 155.015 164.292 155.022 164.286 155.034C164.28 155.047 164.28 155.053 164.273 155.066C164.267 155.078 164.261 155.091 164.254 155.097C164.248 155.11 164.242 155.116 164.235 155.122C164.229 155.135 164.223 155.141 164.217 155.154C164.21 155.166 164.204 155.173 164.191 155.185C164.185 155.191 164.179 155.204 164.172 155.21C164.16 155.229 164.141 155.242 164.128 155.261L162.447 156.916C162.315 157.048 162.132 157.117 161.937 157.117C161.748 157.117 161.565 157.042 161.433 156.91C161.301 156.778 161.225 156.601 161.225 156.412C161.225 156.224 161.301 156.047 161.433 155.915L161.886 155.468H160.022C159.833 155.468 159.651 155.393 159.512 155.261C159.38 155.129 159.304 154.946 159.304 154.757C159.304 154.568 159.38 154.386 159.512 154.254C159.644 154.121 159.833 154.046 160.022 154.046H161.886L161.433 153.599C161.301 153.467 161.225 153.284 161.225 153.102C161.225 152.913 161.301 152.737 161.433 152.605C161.565 152.498 161.748 152.422 161.937 152.422Z" fill="white"/>
<path d="M270.997 153.964C271.942 148.167 276.911 143.887 282.787 143.805C308.287 143.465 373.218 142.88 376.7 145.643C381.04 149.086 383.307 150.848 382.967 156.318C382.652 161.341 377.179 248.029 377.179 248.029H255.662L270.997 153.964Z" fill="#616161"/>
<path d="M363.343 248.074C363.337 248.074 363.324 247.985 363.305 247.816C363.287 247.627 363.268 247.381 363.243 247.067C363.192 246.38 363.123 245.411 363.035 244.178C362.94 242.925 362.839 241.383 362.783 239.595C362.72 237.808 362.606 235.775 362.606 233.522C362.594 232.395 362.581 231.218 362.569 229.991C362.556 228.763 362.6 227.486 362.613 226.158C362.625 223.508 362.77 220.682 362.896 217.711C363.23 211.769 363.797 205.242 364.71 198.432C365.655 191.622 366.851 185.183 368.117 179.361C368.791 176.459 369.408 173.696 370.107 171.141C370.447 169.863 370.75 168.617 371.09 167.433C371.43 166.25 371.757 165.117 372.072 164.041C372.677 161.869 373.332 159.943 373.867 158.238C374.396 156.532 374.906 155.072 375.334 153.889C375.75 152.718 376.078 151.805 376.311 151.157C376.418 150.861 376.506 150.628 376.575 150.452C376.638 150.295 376.67 150.213 376.676 150.213C376.682 150.213 376.657 150.301 376.613 150.465C376.556 150.647 376.481 150.886 376.386 151.182C376.172 151.837 375.87 152.756 375.479 153.933C375.076 155.122 374.591 156.582 374.075 158.301C373.558 160.013 372.922 161.945 372.337 164.116C372.034 165.199 371.713 166.332 371.379 167.515C371.052 168.699 370.756 169.939 370.422 171.223C369.742 173.778 369.137 176.541 368.47 179.436C367.223 185.252 366.039 191.685 365.094 198.482C364.187 205.286 363.608 211.801 363.255 217.73C363.123 220.701 362.965 223.52 362.94 226.164C362.921 227.486 362.871 228.763 362.871 229.991C362.877 231.218 362.884 232.395 362.884 233.522C362.865 235.769 362.965 237.802 363.003 239.589C363.041 241.377 363.117 242.912 363.186 244.171C363.243 245.411 363.293 246.38 363.324 247.067C363.337 247.381 363.343 247.633 363.35 247.822C363.35 247.985 363.35 248.074 363.343 248.074Z" fill="#424242"/>
<path d="M295.005 187.443C295.005 187.43 295.062 187.405 295.188 187.373C295.314 187.342 295.509 187.317 295.755 187.342C296.246 187.38 296.983 187.663 297.531 188.393C298.104 189.104 298.243 190.344 297.707 191.42C297.449 191.955 297.052 192.459 296.517 192.843C295.982 193.227 295.327 193.453 294.634 193.497C293.947 193.535 293.242 193.384 292.694 192.994C292.134 192.616 291.8 192.006 291.686 191.414C291.479 190.206 291.97 189.123 292.619 188.506C293.985 187.342 295.194 187.304 295.169 187.417C295.163 187.43 295.1 187.424 294.98 187.449C294.861 187.474 294.684 187.531 294.47 187.625C294.042 187.814 293.406 188.116 292.814 188.701C292.253 189.274 291.838 190.294 292.039 191.345C292.146 191.861 292.436 192.371 292.915 192.686C293.381 193.013 293.998 193.151 294.615 193.114C295.232 193.076 295.83 192.868 296.303 192.534C296.781 192.201 297.147 191.741 297.392 191.263C297.89 190.294 297.795 189.211 297.31 188.55C296.838 187.877 296.183 187.568 295.736 187.493C295.276 187.398 295.012 187.48 295.005 187.443Z" fill="#212121"/>
<path d="M314.063 176.428C314.056 176.503 312.803 176.277 310.8 176.466C308.81 176.642 306.039 177.353 303.52 179.115C301.007 180.878 299.382 183.238 298.538 185.051C297.676 186.87 297.468 188.122 297.392 188.103C297.367 188.097 297.405 187.782 297.531 187.229C297.65 186.675 297.89 185.875 298.293 184.937C299.086 183.068 300.711 180.613 303.3 178.801C305.888 176.994 308.747 176.302 310.775 176.195C311.795 176.132 312.627 176.182 313.193 176.258C313.76 176.327 314.069 176.403 314.063 176.428Z" fill="#212121"/>
<path d="M278.821 198.986C278.802 198.973 278.89 198.747 279.104 198.356C279.318 197.966 279.665 197.431 280.175 196.821C281.176 195.6 282.927 194.133 285.245 193.346C287.569 192.553 289.848 192.654 291.385 193.006C292.16 193.176 292.771 193.39 293.174 193.573C293.577 193.749 293.791 193.875 293.778 193.894C293.753 193.963 292.865 193.541 291.328 193.271C289.811 192.994 287.606 192.944 285.364 193.711C283.122 194.473 281.403 195.858 280.376 197.003C279.331 198.149 278.878 199.024 278.821 198.986Z" fill="#212121"/>
<path d="M302.336 202.001C302.311 202.039 301.801 201.73 301.089 201.101C300.371 200.471 299.471 199.496 298.677 198.269C297.89 197.035 297.373 195.807 297.103 194.895C296.826 193.982 296.756 193.391 296.8 193.384C296.92 193.347 297.436 195.656 298.998 198.061C300.529 200.478 302.418 201.906 302.336 202.001Z" fill="#212121"/>
<path d="M336.043 188.468C336.043 188.456 336.099 188.431 336.225 188.399C336.351 188.368 336.546 188.343 336.792 188.368C337.283 188.405 338.02 188.689 338.568 189.419C339.141 190.13 339.28 191.37 338.744 192.446C338.486 192.981 338.089 193.485 337.554 193.869C337.019 194.253 336.364 194.479 335.671 194.523C334.985 194.567 334.279 194.41 333.731 194.02C333.171 193.642 332.837 193.032 332.724 192.44C332.516 191.232 333.007 190.149 333.656 189.532C335.022 188.368 336.231 188.33 336.206 188.443C336.2 188.456 336.137 188.45 336.017 188.475C335.898 188.5 335.721 188.557 335.507 188.651C335.079 188.84 334.443 189.142 333.851 189.727C333.29 190.3 332.875 191.32 333.076 192.371C333.183 192.887 333.473 193.397 333.952 193.711C334.418 194.039 335.035 194.177 335.652 194.139C336.269 194.102 336.868 193.894 337.34 193.56C337.819 193.227 338.184 192.767 338.429 192.289C338.927 191.32 338.833 190.237 338.348 189.576C337.875 188.903 337.22 188.594 336.773 188.519C336.313 188.424 336.049 188.506 336.043 188.468Z" fill="#212121"/>
<path d="M355.1 177.454C355.093 177.529 353.84 177.303 351.837 177.491C349.847 177.668 347.076 178.379 344.557 180.141C342.044 181.904 340.419 184.264 339.575 186.077C338.713 187.896 338.505 189.148 338.429 189.129C338.404 189.123 338.442 188.808 338.568 188.254C338.687 187.7 338.927 186.901 339.33 185.963C340.123 184.094 341.748 181.639 344.337 179.826C346.925 178.02 349.784 177.328 351.812 177.221C352.832 177.158 353.664 177.208 354.231 177.284C354.797 177.353 355.106 177.428 355.1 177.454Z" fill="#212121"/>
<path d="M319.856 200.012C319.838 199.999 319.926 199.773 320.14 199.382C320.354 198.992 320.7 198.457 321.211 197.847C322.212 196.626 323.963 195.159 326.28 194.372C328.604 193.579 330.884 193.68 332.421 194.032C333.195 194.202 333.806 194.416 334.209 194.599C334.612 194.775 334.827 194.901 334.814 194.92C334.789 194.989 333.901 194.567 332.364 194.297C330.846 194.02 328.642 193.969 326.4 194.737C324.158 195.499 322.439 196.884 321.412 198.029C320.367 199.175 319.913 200.05 319.856 200.012Z" fill="#212121"/>
<path d="M343.373 203.027C343.348 203.064 342.838 202.756 342.126 202.127C341.408 201.497 340.508 200.522 339.714 199.294C338.927 198.061 338.411 196.833 338.14 195.921C337.863 195.008 337.793 194.416 337.837 194.41C337.957 194.372 338.474 196.682 340.035 199.086C341.566 201.503 343.455 202.932 343.373 203.027Z" fill="#212121"/>
<path d="M183.585 186.807C183.585 186.807 194.518 168.818 196.98 156.941C199.436 145.071 212.139 126.232 216.233 121.323C220.327 116.407 236.714 110.68 236.714 110.68L242.76 107.426L289.565 103.316C289.565 103.316 320.702 106.589 330.124 115.186C339.545 123.784 346.92 143.434 346.92 153.266C346.92 163.091 356.436 248.187 356.436 248.187L241.097 248.036L243.685 206.079C243.685 206.079 229.754 196.664 226.07 188.475C222.386 180.286 224.433 184.384 224.433 184.384C224.433 184.384 211.358 212.166 206.849 215.439C202.34 218.712 149.967 234.781 149.967 234.781L142.793 207.307L183.585 186.807Z" fill="#1FB767"/>
<path d="M319.757 118.61C318.491 119 302.873 159.327 301.77 162.996C300.668 166.666 301.77 189.778 301.77 189.778L306.91 199.313C306.91 199.313 305.442 206.281 306.544 209.585L283.418 213.985C283.418 213.985 277.549 209.95 272.038 213.985L244.756 216.288C244.756 216.288 252.767 216.383 250.38 228.656C248.043 240.684 246.267 243.328 246.267 243.328L342.14 241.137C342.14 241.137 352.789 240.609 351.165 220.14C349.54 199.672 344.968 143.207 344.968 143.207C344.968 143.207 337.989 112.958 319.757 118.61Z" fill="#1FB767"/>
<path d="M301.556 186.555C301.543 186.561 301.467 186.391 301.329 186.058C301.184 185.693 300.989 185.208 300.749 184.604C300.498 183.974 300.195 183.2 299.899 182.281C299.597 181.362 299.213 180.33 298.898 179.159C298.558 177.995 298.186 176.711 297.878 175.32C297.519 173.935 297.242 172.431 296.939 170.851C296.398 167.679 295.969 164.167 295.818 160.453C295.686 156.74 295.837 153.202 296.133 149.999C296.322 148.4 296.48 146.883 296.738 145.473C296.857 144.768 296.952 144.082 297.084 143.434C297.223 142.786 297.355 142.163 297.481 141.565C297.714 140.369 298.016 139.311 298.256 138.38C298.489 137.442 298.734 136.649 298.942 136.001C299.144 135.384 299.301 134.887 299.427 134.515C299.54 134.175 299.61 133.999 299.622 134.005C299.635 134.012 299.591 134.194 299.502 134.54C299.395 134.918 299.263 135.422 299.087 136.045C298.898 136.693 298.671 137.492 298.463 138.436C298.243 139.374 297.96 140.432 297.745 141.628C297.626 142.225 297.506 142.842 297.38 143.491C297.254 144.139 297.172 144.825 297.059 145.524C296.813 146.927 296.675 148.444 296.492 150.036C296.215 153.228 296.076 156.746 296.209 160.441C296.36 164.135 296.776 167.635 297.298 170.788C297.588 172.362 297.852 173.86 298.199 175.244C298.495 176.635 298.848 177.913 299.175 179.084C299.471 180.261 299.836 181.293 300.113 182.212C300.39 183.137 300.668 183.918 300.901 184.553C301.115 185.164 301.285 185.655 301.417 186.026C301.512 186.366 301.568 186.549 301.556 186.555Z" fill="white"/>
<path d="M261.974 213.972C261.968 213.972 261.949 213.903 261.924 213.758C261.899 213.594 261.867 213.387 261.823 213.129C261.741 212.543 261.622 211.731 261.477 210.699C261.181 208.591 260.784 205.532 260.331 201.749C259.417 194.183 258.334 183.704 257.49 172.11C256.646 160.504 256.199 149.986 256.004 142.364C255.903 138.556 255.853 135.472 255.84 133.338C255.84 132.294 255.834 131.475 255.834 130.884C255.84 130.619 255.84 130.412 255.84 130.248C255.847 130.103 255.847 130.028 255.859 130.028C255.865 130.028 255.872 130.103 255.884 130.242C255.891 130.405 255.903 130.619 255.916 130.877C255.935 131.463 255.96 132.287 255.998 133.332C256.067 135.491 256.161 138.562 256.281 142.351C256.546 149.967 257.037 160.479 257.881 172.079C258.731 183.672 259.77 194.146 260.608 201.718C261.036 205.481 261.389 208.54 261.634 210.68C261.754 211.719 261.842 212.531 261.911 213.116C261.937 213.381 261.956 213.588 261.974 213.752C261.974 213.897 261.981 213.972 261.974 213.972Z" fill="white"/>
<path d="M224.312 184.906C224.287 184.912 224.111 184.516 223.808 183.779C223.512 183.043 223.071 181.986 222.517 180.683C221.409 178.077 219.752 174.527 217.781 170.675C215.804 166.861 214.009 163.412 212.674 160.837C212.031 159.572 211.521 158.546 211.181 157.829C210.841 157.111 210.665 156.708 210.684 156.696C210.709 156.683 210.929 157.061 211.313 157.759C211.723 158.515 212.264 159.509 212.913 160.711C214.254 163.21 216.144 166.647 218.121 170.505C220.099 174.363 221.724 177.938 222.769 180.582C223.292 181.904 223.695 182.98 223.947 183.735C224.205 184.478 224.337 184.893 224.312 184.906Z" fill="white"/>
<path d="M288.342 103.372C288.355 103.372 288.342 103.58 288.298 103.97C288.248 104.398 288.185 104.964 288.103 105.682C287.908 107.167 287.643 109.314 287.196 111.951C286.743 114.588 286.126 117.723 285.131 121.128C284.104 124.514 282.681 128.196 280.489 131.664C279.355 133.496 278.008 135.113 276.641 136.592L276.49 136.756L276.351 136.573C274.367 133.93 271.848 131.979 269.342 130.764C268.101 130.122 266.835 129.732 265.651 129.404C264.455 129.14 263.327 128.964 262.294 128.951C260.229 128.901 258.585 129.26 257.508 129.625C256.431 130.002 255.871 130.279 255.852 130.242C255.845 130.229 255.984 130.16 256.255 130.028C256.532 129.914 256.916 129.675 257.464 129.499C258.535 129.09 260.197 128.687 262.301 128.706C263.353 128.699 264.499 128.863 265.721 129.121C266.923 129.442 268.214 129.826 269.487 130.468C272.044 131.683 274.619 133.653 276.654 136.347L276.37 136.328C277.712 134.868 279.041 133.263 280.162 131.456C282.334 128.02 283.751 124.382 284.79 121.021C285.804 117.641 286.447 114.525 286.932 111.9C287.417 109.276 287.725 107.13 287.958 105.657C288.072 104.945 288.16 104.379 288.223 103.957C288.292 103.573 288.33 103.372 288.342 103.372Z" fill="white"/>
<path d="M288.973 103.838L281.862 94.4156L274.135 94.6611L249.019 107.923L288.973 103.838Z" fill="#1FB767"/>
<path d="M255.852 130.254C255.852 130.267 255.713 130.26 255.442 130.248C255.178 130.223 254.781 130.172 254.283 130.059C253.282 129.845 251.89 129.285 250.316 128.366C249.535 127.894 248.659 127.46 247.62 127.252C246.594 127.032 245.448 127 244.289 127.246C241.984 127.711 239.679 129.505 238.715 132.092L238.312 133.175L238.344 132.023C238.35 131.74 238.362 131.431 238.369 131.123C238.457 125.313 238.463 120.039 238.702 116.231C238.81 114.324 238.961 112.788 239.118 111.731C239.187 111.202 239.269 110.793 239.326 110.516C239.383 110.239 239.42 110.1 239.433 110.1C239.471 110.107 239.364 110.686 239.263 111.75C239.156 112.807 239.043 114.343 238.973 116.244C238.803 120.051 238.841 125.313 238.753 131.135C238.747 131.444 238.734 131.752 238.728 132.042L238.356 131.966C239.37 129.247 241.795 127.384 244.219 126.912C246.663 126.402 248.949 127.126 250.454 128.146C252.004 129.09 253.345 129.675 254.321 129.927C255.297 130.185 255.858 130.216 255.852 130.254Z" fill="white"/>
<path d="M281.862 48.7833V105.355C281.862 108.59 280.722 111.718 278.637 114.185C275.444 117.974 271.59 121.166 267.269 123.595L255.851 130.021L246.405 121.594C243.627 119.114 241.977 115.614 241.832 111.894C241.669 107.772 241.669 103.624 241.669 103.624C241.669 103.624 225.666 102.478 224.167 86.7053C223.461 79.2783 223.235 64.0717 223.197 50.0547C223.153 34.0614 235.421 20.7305 251.367 19.4087L251.821 19.3709C268.327 18.9744 281.918 32.2739 281.862 48.7833Z" fill="#F4A286"/>
<path d="M241.625 103.404C241.625 103.404 251.676 103.391 261.734 95.8506C261.734 95.8506 257.804 107.614 241.927 107.495L241.625 103.404Z" fill="#F29170"/>
<path d="M228.513 60.654C228.569 61.8499 229.627 62.7814 230.874 62.75C232.121 62.7122 233.085 61.7177 233.028 60.5218C232.972 59.326 231.913 58.3881 230.666 58.4259C229.426 58.4637 228.456 59.4644 228.513 60.654Z" fill="#212121"/>
<path d="M251.61 59.6789C251.666 60.8747 252.725 61.8126 253.971 61.7748C255.218 61.737 256.182 60.7426 256.132 59.5467C256.075 58.3508 255.017 57.413 253.77 57.4507C252.523 57.4885 251.553 58.483 251.61 59.6789Z" fill="#212121"/>
<path d="M243.804 73.6199C243.804 73.4815 242.274 73.343 239.805 73.236C239.181 73.2234 238.583 73.1479 238.444 72.7325C238.262 72.2982 238.463 71.6058 238.709 70.8631C239.169 69.3148 239.647 67.6972 240.151 65.9915C242.141 59.0617 243.527 53.3907 243.243 53.3152C242.966 53.2396 241.121 58.791 239.137 65.7145C238.665 67.4202 238.205 69.0504 237.777 70.6051C237.601 71.3289 237.26 72.1597 237.657 73.0661C237.865 73.5129 238.344 73.8151 238.753 73.8906C239.162 73.9787 239.509 73.9598 239.817 73.9472C242.28 73.8717 243.81 73.7584 243.804 73.6199Z" fill="#212121"/>
<path d="M251.089 74.7088C250.692 74.7214 250.907 77.3524 248.803 79.4105C246.706 81.475 243.872 81.4058 243.884 81.7771C243.859 81.9471 244.552 82.2366 245.742 82.1736C246.907 82.117 248.576 81.6009 249.861 80.3484C251.14 79.0895 251.606 77.5097 251.606 76.4208C251.612 75.3068 251.266 74.6774 251.089 74.7088Z" fill="#212121"/>
<path d="M249.711 47.065C250.007 47.707 252.4 47.1909 255.278 47.2979C258.156 47.3482 260.524 47.9902 260.852 47.3671C260.996 47.0713 260.543 46.4796 259.561 45.9195C258.584 45.3593 257.067 44.8746 255.341 44.8243C253.615 44.7802 252.072 45.183 251.071 45.6866C250.063 46.1964 249.585 46.7566 249.711 47.065Z" fill="#212121"/>
<path d="M227.537 50.9422C228.009 51.4583 229.634 50.7471 231.643 50.5519C233.646 50.2876 235.384 50.6149 235.73 50.0044C235.881 49.7085 235.567 49.1798 234.779 48.7204C234.005 48.2609 232.739 47.9399 231.366 48.0909C229.987 48.2483 228.834 48.8462 228.179 49.4694C227.512 50.1051 227.329 50.6904 227.537 50.9422Z" fill="#212121"/>
<path d="M263.277 32.8905C263.308 32.9094 263.34 32.9346 263.371 32.9535C266.048 34.7284 267.95 37.4664 268.655 40.6008C268.68 40.7141 268.706 40.8148 268.725 40.9155C269.713 45.3655 269.984 49.9602 271.017 54.3975C272.05 58.8412 271.861 62.2337 276.313 63.2344C279.122 63.8639 281.509 62.3029 282.511 60.7168C282.901 60.1 282.907 59.3321 282.901 58.6083C282.844 47.6691 285.042 43.4143 284.085 32.0471C283.821 28.9504 282.126 26.1684 279.456 24.576C276.931 23.0654 273.876 21.536 271.338 23.0088C268.787 24.4816 265.777 29.7183 263.9 31.9842" fill="#212121"/>
<path d="M277.126 56.3676C277.384 56.2291 287.713 52.2638 288.261 63.0834C288.809 73.903 277.825 72.2224 277.794 71.914C277.762 71.6056 277.126 56.3676 277.126 56.3676Z" fill="#F4A286"/>
<path d="M280.892 67.6466C280.936 67.6088 281.087 67.7662 281.414 67.8984C281.729 68.0242 282.271 68.0935 282.825 67.8543C283.946 67.3759 284.821 65.5129 284.771 63.5617C284.746 62.5735 284.494 61.6483 284.103 60.8867C283.732 60.1125 283.19 59.5838 282.611 59.5146C282.031 59.4139 281.641 59.779 281.521 60.0874C281.389 60.3958 281.471 60.6098 281.414 60.6287C281.383 60.6601 281.175 60.4587 281.238 60.0055C281.269 59.7915 281.383 59.5272 281.628 59.3069C281.88 59.0803 282.252 58.9544 282.655 58.9796C283.493 58.9922 284.286 59.7223 284.708 60.5594C285.18 61.3965 285.489 62.4351 285.514 63.5428C285.558 65.7269 284.544 67.8228 283.001 68.3578C282.252 68.597 281.603 68.3956 281.263 68.1564C280.923 67.9046 280.854 67.6655 280.892 67.6466Z" fill="#F29170"/>
<path d="M271.844 24.6517C274.142 20.1136 266.346 14.5182 260.879 13.2782C255.412 12.0383 248.604 15.2168 243.446 17.4135C240.19 18.7982 236.985 20.6234 233.452 20.7682C231.084 20.8689 228.754 20.1954 226.461 19.5912C224.169 18.987 221.788 18.4457 219.439 18.7982C217.096 19.1569 214.766 20.6109 214.054 22.8704C213.343 25.13 214.873 28.0253 217.241 28.1512C214.117 26.7539 209.973 29.2716 209.765 32.683C209.558 36.0944 213.368 39.0904 216.643 38.0896C215.012 37.0511 212.814 39.1722 213.166 41.073C213.513 42.9738 215.371 44.2264 217.197 44.8558C221.864 46.4608 227.066 45.3971 231.594 43.4396C236.128 41.4884 240.247 38.6875 244.725 36.6231C249.209 34.5586 256.697 30.8954 261.471 32.148C264.985 33.0669 267.706 36.9818 269.557 35.9181C271.346 34.8859 272.366 32.8403 272.574 30.7821C272.769 28.724 272.303 26.6658 271.844 24.6517Z" fill="#212121"/>
<path d="M215.904 27.9686C215.992 27.9056 216.528 28.7239 217.793 29.882C219.059 31.0212 221.15 32.4877 224.116 33.243C227.026 33.9983 230.899 33.9983 234.382 31.9779C237.921 30.033 240.787 26.4769 244.15 23.078C247.5 19.6541 251.569 16.9854 255.807 16.2489C260.014 15.4936 264.064 16.7273 266.432 18.968C268.812 21.2339 269.48 23.9844 269.461 25.7405C269.455 26.6405 269.285 27.314 269.159 27.7609C269.001 28.2015 268.894 28.4217 268.863 28.4092C268.762 28.384 269.14 27.4587 269.045 25.753C268.938 24.0914 268.183 21.5423 265.928 19.5282C263.692 17.5329 259.92 16.4629 255.99 17.2182C252.041 17.9609 248.187 20.4912 244.912 23.8396C241.612 27.1629 238.652 30.8135 234.867 32.8465C231.101 34.9676 226.944 34.8669 223.928 33.9794C220.842 33.0857 218.732 31.4555 217.516 30.1841C216.912 29.5358 216.49 28.9945 216.25 28.598C215.986 28.2015 215.873 27.9875 215.904 27.9686Z" fill="#424242"/>
<path d="M279.841 55.6691C279.804 55.7069 279.35 55.4111 278.872 54.5865C278.387 53.7746 277.952 52.4151 278.009 50.7157C277.958 47.2161 280.729 43.232 280.723 38.3981C280.767 36.0063 280.156 33.7279 278.998 32.0536C277.845 30.3857 276.17 29.3786 274.696 28.9192C273.21 28.4408 271.906 28.5415 271.05 28.7241C270.193 28.9318 269.746 29.1772 269.696 29.0891C269.664 29.0451 270.048 28.6737 270.93 28.3212C271.805 27.9939 273.235 27.7548 274.898 28.1828C276.541 28.5919 278.437 29.6115 279.804 31.4746C281.158 33.3188 281.844 35.8301 281.8 38.3981C281.794 40.9787 281.051 43.3704 280.282 45.372C279.52 47.3861 278.891 49.1799 278.777 50.7471C278.456 53.9697 279.993 55.6062 279.841 55.6691Z" fill="#424242"/>
<path d="M277.56 71.7379L275.463 69.793C274.915 69.2895 274.883 68.4335 275.387 67.8922L282.302 60.4337C282.806 59.8861 283.662 59.8546 284.204 60.3581L286.301 62.303C286.849 62.8065 286.881 63.6625 286.377 64.2038L279.468 71.6623C278.958 72.2099 278.108 72.2414 277.56 71.7379Z" fill="#212121"/>
<path d="M346.995 155.689C346.995 155.689 347.014 155.833 347.039 156.117C347.064 156.413 347.095 156.834 347.133 157.388C347.215 158.515 347.328 160.176 347.48 162.335C347.769 166.672 348.198 173.01 348.739 181.041C349.274 189.079 349.917 198.816 350.654 209.938C350.836 212.72 351.025 215.583 351.22 218.535C351.334 220.008 351.384 221.512 351.454 223.029C351.516 223.791 351.454 224.559 351.435 225.327C351.391 226.095 351.428 226.875 351.302 227.656C351.208 228.43 351.113 229.216 351.013 229.997C350.849 230.771 350.679 231.552 350.509 232.338C350.288 233.106 350.024 233.874 349.778 234.648C349.438 235.385 349.155 236.159 348.758 236.876C347.215 239.747 344.797 242.434 341.44 243.542L341.427 243.548H341.402C319.863 243.542 295.226 243.536 269.172 243.536C261.394 243.529 253.742 243.529 246.267 243.523H246.015L246.084 243.284C246.783 240.791 247.476 238.318 248.162 235.869C248.509 234.642 248.849 233.421 249.189 232.206C249.535 230.991 249.882 229.796 250.045 228.568C250.411 226.12 250.165 223.615 249.409 221.317C249.025 220.178 248.471 219.089 247.684 218.202C246.915 217.321 245.845 216.647 244.742 216.471L243.231 216.238L244.742 216.112C254.284 215.313 263.403 214.545 272.025 213.821L271.943 213.853C273.662 212.613 275.766 211.933 277.819 212.046C279.872 212.141 281.824 212.801 283.512 213.853L283.392 213.827C291.725 212.248 299.465 210.787 306.518 209.447L306.417 209.623C306.128 208.723 306.052 207.798 306.021 206.904C305.996 206.01 306.021 205.129 306.096 204.267C306.235 202.542 306.48 200.887 306.795 199.282L306.808 199.364C304.95 195.902 303.25 192.736 301.681 189.815L301.669 189.796V189.771C301.304 181.268 301.178 174.558 301.241 169.983C301.266 167.692 301.354 165.936 301.474 164.759C301.53 164.167 301.593 163.72 301.669 163.43C301.732 163.135 301.77 162.99 301.77 162.99C301.77 162.99 301.751 163.141 301.694 163.437C301.625 163.733 301.574 164.173 301.524 164.765C301.423 165.942 301.354 167.698 301.341 169.983C301.316 174.558 301.474 181.262 301.87 189.759L301.858 189.715C303.432 192.629 305.145 195.788 307.009 199.244L307.028 199.282L307.022 199.326C306.707 200.912 306.468 202.567 306.342 204.279C306.273 205.135 306.247 206.01 306.279 206.891C306.31 207.772 306.392 208.679 306.669 209.529L306.72 209.673L306.569 209.705C299.515 211.058 291.781 212.537 283.449 214.129L283.386 214.142L283.329 214.104C281.711 213.097 279.784 212.443 277.806 212.361C275.816 212.254 273.807 212.908 272.138 214.111L272.1 214.136L272.056 214.142C263.441 214.872 254.315 215.653 244.78 216.465V216.1C246.052 216.295 247.148 217.018 247.973 217.944C248.805 218.875 249.378 220.008 249.774 221.185C250.549 223.545 250.801 226.101 250.429 228.606C250.266 229.858 249.907 231.086 249.567 232.294C249.227 233.509 248.886 234.73 248.54 235.957C247.854 238.406 247.161 240.879 246.462 243.372L246.279 243.133C253.755 243.133 261.407 243.139 269.184 243.139C295.239 243.158 319.876 243.177 341.415 243.196L341.377 243.202C342.951 242.711 344.381 241.742 345.565 240.621C346.743 239.47 347.731 238.148 348.481 236.719C348.871 236.014 349.155 235.253 349.489 234.529C349.728 233.767 349.992 233.012 350.213 232.25C350.383 231.476 350.547 230.702 350.71 229.94C350.805 229.16 350.906 228.386 351 227.618C351.126 226.85 351.088 226.076 351.132 225.314C351.151 224.546 351.214 223.791 351.158 223.029C351.095 221.519 351.038 220.027 350.931 218.548C350.742 215.596 350.559 212.732 350.383 209.95C349.678 198.829 349.06 189.092 348.55 181.048C348.053 173.01 347.656 166.672 347.385 162.335C347.259 160.176 347.158 158.515 347.089 157.382C347.058 156.828 347.039 156.4 347.02 156.11C346.995 155.833 346.995 155.689 346.995 155.689Z" fill="white"/>
<path d="M326.085 115.482C326.098 115.514 325.619 115.778 324.769 116.3C323.919 116.816 322.729 117.622 321.349 118.749C318.585 120.971 315.259 124.659 312.501 129.329C309.742 133.999 307.91 138.588 306.593 141.886C305.964 143.503 305.441 144.838 305.063 145.813C304.893 146.241 304.748 146.594 304.635 146.877C304.534 147.116 304.471 147.242 304.458 147.242C304.446 147.236 304.484 147.104 304.559 146.852C304.654 146.562 304.773 146.204 304.918 145.763C305.239 144.819 305.718 143.459 306.335 141.785C307.588 138.456 309.383 133.836 312.167 129.128C314.944 124.42 318.345 120.719 321.173 118.528C322.584 117.421 323.805 116.646 324.687 116.162C325.115 115.91 325.474 115.753 325.707 115.633C325.953 115.52 326.079 115.469 326.085 115.482Z" fill="white"/>
<g opacity="0.3">
<path d="M297.186 143.654C294.043 150.471 292.784 158.225 293.061 165.721C293.338 173.224 294.239 180.746 293.502 188.217C292.765 195.688 290.17 203.31 284.59 208.339C283.923 208.943 283.192 209.528 282.789 210.334C282.386 211.14 282.424 212.254 283.136 212.808C283.772 213.299 284.666 213.185 285.453 213.047C290.794 212.122 296.197 211.461 301.538 210.529C302.684 210.328 306.532 209.579 306.532 209.579C306.532 209.579 306.022 206.652 306.205 205.192C306.375 203.857 306.897 199.307 306.897 199.307C306.74 198.608 306.23 198.073 305.877 197.406C302.363 190.879 301.45 186.051 301.45 186.051C299.623 182.319 298.805 178.574 297.961 175.087C295.624 165.426 295.693 155.903 297.186 143.654Z" fill="#212121"/>
</g>
<g opacity="0.3">
<path d="M238.659 132.64C239.1 133.747 239.534 134.855 239.975 135.963C240.108 136.296 240.278 136.674 240.611 136.8C241.266 137.052 241.795 136.246 242.104 135.617C243.338 133.124 245.889 131.33 248.654 131.016C250.896 130.758 253.201 131.406 255.411 130.946C253.459 129.782 251.481 128.611 249.315 127.913C247.149 127.214 244.743 127.031 242.62 127.85C240.498 128.668 238.735 130.625 238.577 132.891" fill="#212121"/>
</g>
<g opacity="0.3">
<path d="M256.912 129.839C259.532 129.883 262.184 129.933 264.734 130.537C267.285 131.148 269.766 132.369 271.429 134.396C273.211 136.574 273.879 139.425 274.603 142.144C274.741 142.666 274.993 143.289 275.529 143.346C275.85 143.384 276.152 143.189 276.41 142.994C280.825 139.752 283.747 134.786 285.341 129.549C286.934 124.313 287.306 118.786 287.394 113.31C285.284 117.081 284.365 121.373 282.973 125.464C281.581 129.556 279.522 133.672 275.907 136.032C276.026 135.107 275.661 134.169 275.082 133.439C274.502 132.709 273.727 132.161 272.928 131.683C268.059 128.744 261.925 127.995 256.49 129.675" fill="#212121"/>
</g>
<path d="M119.989 248.388C118.717 248.395 117.57 247.62 117.098 246.437L93.3804 186.933C91.2139 181.646 95.0997 175.855 100.818 175.855H174.919C179.693 175.855 183.931 178.895 185.468 183.408L205.092 241.207C205.514 242.459 206.692 243.303 208.014 243.309L230.378 243.416C232.374 243.428 233.987 246.343 233.987 248.338L206.937 248.029L119.989 248.388Z" fill="#424242"/>
<path d="M118.465 190.055C116.727 189.992 114.995 190.432 113.534 191.376C113.055 191.685 112.583 192.056 112.192 192.49C110.882 193.957 108.552 196.814 109.478 201.271C110.404 205.727 113.288 206.344 114.623 206.488C115.965 206.633 125.342 203.971 125.342 203.971C125.342 203.971 128.743 201.082 127.534 197.293C126.507 194.045 123.491 190.237 118.465 190.055Z" fill="#E53935"/>
<path d="M114 205.16C114 205.16 114.34 207.54 115.53 208.15C116.727 208.754 118.956 208.647 120.663 208.219C122.37 207.791 124.914 206.816 125.217 205.494C125.519 204.172 125.261 202.561 125.065 202.385C124.87 202.209 122.269 200.742 118.774 201.806C115.285 202.863 114 205.16 114 205.16Z" fill="#F5F5F5"/>
<g opacity="0.4">
<path d="M121.595 193.781C122.2 196.185 120.739 198.621 118.333 199.225C115.927 199.829 113.49 198.369 112.885 195.965C112.281 193.56 113.742 191.124 116.148 190.52C118.554 189.916 120.991 191.376 121.595 193.781Z" fill="white"/>
</g>
<g opacity="0.4">
<path d="M110.264 203.543C111.095 202.479 111.631 201.082 111.536 199.735C111.442 198.388 110.837 197.085 109.874 196.147C109.874 196.147 109.023 198.684 109.382 200.692C109.767 202.819 110.264 203.543 110.264 203.543Z" fill="white"/>
</g>
<g opacity="0.4">
<path d="M127.812 199.137C126.577 198.596 125.444 197.614 124.889 196.386C124.335 195.159 124.197 193.913 124.606 192.629C124.606 192.629 126.332 194.259 127.157 196.21C128.026 198.256 127.812 199.137 127.812 199.137Z" fill="white"/>
</g>
</g>
<defs>
<clipPath id="clip0_785_4149">
<rect width="472" height="204" rx="16" fill="white"/>
</clipPath>
</defs>
</svg>
