<svg width="472" height="204" viewBox="0 0 472 204" fill="none" xmlns="http://www.w3.org/2000/svg">
<g clip-path="url(#clip0_785_3903)">
<rect width="472" height="204" rx="16" fill="#FFE6EC"/>
<path d="M381.295 45.1091H191.905V34.5749C191.905 32.6824 193.442 31.1547 195.333 31.1547H377.861C379.758 31.1547 381.289 32.6881 381.289 34.5749V45.1091H381.295Z" fill="#D8E1ED"/>
<path d="M381.295 45.1092H191.905V159.589C191.905 161.481 193.442 163.009 195.333 163.009H377.861C379.758 163.009 381.289 161.476 381.289 159.589V45.1092H381.295Z" fill="#F5F7FB"/>
<path d="M199.098 40.1442C200.215 40.1442 201.121 39.2407 201.121 38.1263C201.121 37.0118 200.215 36.1083 199.098 36.1083C197.981 36.1083 197.076 37.0118 197.076 38.1263C197.076 39.2407 197.981 40.1442 199.098 40.1442Z" fill="#E53935"/>
<path d="M205.28 40.1442C206.398 40.1442 207.303 39.2407 207.303 38.1263C207.303 37.0118 206.398 36.1083 205.28 36.1083C204.163 36.1083 203.258 37.0118 203.258 38.1263C203.258 39.2407 204.163 40.1442 205.28 40.1442Z" fill="#FFC800"/>
<path d="M211.457 40.1442C212.574 40.1442 213.479 39.2407 213.479 38.1263C213.479 37.0118 212.574 36.1083 211.457 36.1083C210.34 36.1083 209.434 37.0118 209.434 38.1263C209.434 39.2407 210.34 40.1442 211.457 40.1442Z" fill="#1FB767"/>
<path d="M357.578 76.4895H215.622C213.725 76.4895 212.194 74.9561 212.194 73.0693V58.066C212.194 56.1735 213.731 54.6458 215.622 54.6458H357.572C359.469 54.6458 361 56.1792 361 58.066V73.0693C361.006 74.9618 359.469 76.4895 357.578 76.4895Z" fill="white"/>
<path d="M224.472 68.4178H218.427C217.353 68.4178 216.479 67.5514 216.479 66.474V60.3404C216.479 59.2688 217.347 58.3966 218.427 58.3966H224.472C225.547 58.3966 226.421 59.2631 226.421 60.3404V66.474C226.421 67.5457 225.547 68.4178 224.472 68.4178Z" fill="#1976D2"/>
<path d="M259.457 60.1865H233.7C233.449 60.1865 233.243 59.9813 233.243 59.7305V59.6678C233.243 59.417 233.449 59.2118 233.7 59.2118H259.457C259.709 59.2118 259.915 59.417 259.915 59.6678V59.7362C259.909 59.987 259.709 60.1865 259.457 60.1865Z" fill="#212121"/>
<path d="M339.763 65.5905H233.7C233.449 65.5905 233.243 65.3853 233.243 65.1344V65.066C233.243 64.8152 233.449 64.61 233.7 64.61H339.763C340.014 64.61 340.22 64.8152 340.22 65.066V65.1344C340.22 65.3853 340.014 65.5905 339.763 65.5905Z" fill="#D8E1ED"/>
<path d="M339.763 70.9887H233.7C233.449 70.9887 233.243 70.7835 233.243 70.5326V70.4642C233.243 70.2134 233.449 70.0082 233.7 70.0082H339.763C340.014 70.0082 340.22 70.2134 340.22 70.4642V70.5326C340.22 70.7892 340.014 70.9887 339.763 70.9887Z" fill="#D8E1ED"/>
<path d="M220.69 65.9325C220.558 65.9325 220.433 65.8926 220.318 65.8071L218.302 64.2965C218.027 64.0913 217.976 63.7093 218.176 63.4357C218.382 63.1621 218.764 63.1108 219.039 63.3103L220.61 64.4846L223.764 61.0701C223.992 60.8193 224.387 60.8022 224.632 61.0359C224.884 61.2639 224.901 61.6572 224.667 61.9023L221.136 65.7273C221.027 65.8698 220.861 65.9325 220.69 65.9325Z" fill="white"/>
<path d="M357.578 101.628H215.622C213.725 101.628 212.194 100.095 212.194 98.2077V83.2045C212.194 81.312 213.731 79.7843 215.622 79.7843H357.572C359.469 79.7843 361 81.3177 361 83.2045V98.2077C361.006 100.095 359.469 101.628 357.578 101.628Z" fill="white"/>
<path d="M224.472 93.5506H218.427C217.353 93.5506 216.479 92.6841 216.479 91.6068V85.4732C216.479 84.4015 217.347 83.5294 218.427 83.5294H224.472C225.547 83.5294 226.421 84.3958 226.421 85.4732V91.6068C226.421 92.6784 225.547 93.5506 224.472 93.5506Z" fill="#1976D2"/>
<path d="M259.457 85.325H233.7C233.449 85.325 233.243 85.1198 233.243 84.869V84.8006C233.243 84.5498 233.449 84.3445 233.7 84.3445H259.457C259.709 84.3445 259.915 84.5498 259.915 84.8006V84.869C259.909 85.1198 259.709 85.325 259.457 85.325Z" fill="#212121"/>
<path d="M339.763 90.7232H233.7C233.449 90.7232 233.243 90.518 233.243 90.2672V90.1988C233.243 89.948 233.449 89.7428 233.7 89.7428H339.763C340.014 89.7428 340.22 89.948 340.22 90.1988V90.2672C340.22 90.518 340.014 90.7232 339.763 90.7232Z" fill="#D8E1ED"/>
<path d="M339.763 96.1214H233.7C233.449 96.1214 233.243 95.9162 233.243 95.6654V95.597C233.243 95.3462 233.449 95.141 233.7 95.141H339.763C340.014 95.141 340.22 95.3462 340.22 95.597V95.6654C340.22 95.9219 340.014 96.1214 339.763 96.1214Z" fill="#D8E1ED"/>
<path d="M220.69 91.0709C220.558 91.0709 220.433 91.031 220.318 90.9455L218.302 89.4349C218.027 89.2297 217.976 88.8478 218.176 88.5742C218.382 88.3006 218.764 88.2493 219.039 88.4488L220.61 89.623L223.764 86.2086C223.992 85.9577 224.387 85.9406 224.632 86.1744C224.884 86.4024 224.901 86.7957 224.667 87.0408L221.136 90.8657C221.027 91.0025 220.861 91.0709 220.69 91.0709Z" fill="white"/>
<path d="M357.578 126.761H215.622C213.725 126.761 212.194 125.227 212.194 123.341V108.337C212.194 106.445 213.731 104.917 215.622 104.917H357.572C359.469 104.917 361 106.45 361 108.337V123.341C361.006 125.227 359.469 126.761 357.578 126.761Z" fill="white"/>
<path d="M224.472 118.683H218.427C217.353 118.683 216.479 117.817 216.479 116.74V110.606C216.479 109.534 217.347 108.662 218.427 108.662H224.472C225.547 108.662 226.421 109.529 226.421 110.606V116.74C226.421 117.811 225.547 118.683 224.472 118.683Z" stroke="#D8E1ED" stroke-width="1.5" stroke-miterlimit="10"/>
<path d="M259.457 110.458H233.7C233.449 110.458 233.243 110.253 233.243 110.002V109.933C233.243 109.683 233.449 109.477 233.7 109.477H259.457C259.709 109.477 259.915 109.683 259.915 109.933V110.002C259.909 110.253 259.709 110.458 259.457 110.458Z" fill="#D8E1ED"/>
<path d="M339.763 115.856H233.7C233.449 115.856 233.243 115.651 233.243 115.4V115.332C233.243 115.081 233.449 114.876 233.7 114.876H339.763C340.014 114.876 340.22 115.081 340.22 115.332V115.4C340.22 115.651 340.014 115.856 339.763 115.856Z" fill="#D8E1ED"/>
<path d="M339.763 121.254H233.7C233.449 121.254 233.243 121.049 233.243 120.798V120.73C233.243 120.479 233.449 120.274 233.7 120.274H339.763C340.014 120.274 340.22 120.479 340.22 120.73V120.798C340.22 121.055 340.014 121.254 339.763 121.254Z" fill="#D8E1ED"/>
<path d="M357.578 151.893H215.622C213.725 151.893 212.194 150.36 212.194 148.473V133.47C212.194 131.577 213.731 130.05 215.622 130.05H357.572C359.469 130.05 361 131.583 361 133.47V148.473C361.006 150.36 359.469 151.893 357.578 151.893Z" fill="white"/>
<path d="M224.472 143.816H218.427C217.353 143.816 216.479 142.95 216.479 141.872V135.739C216.479 134.667 217.347 133.795 218.427 133.795H224.472C225.547 133.795 226.421 134.661 226.421 135.739V141.872C226.421 142.944 225.547 143.816 224.472 143.816Z" fill="#1976D2"/>
<path d="M259.457 135.591H233.7C233.449 135.591 233.243 135.385 233.243 135.135V135.066C233.243 134.815 233.449 134.61 233.7 134.61H259.457C259.709 134.61 259.915 134.815 259.915 135.066V135.135C259.909 135.385 259.709 135.591 259.457 135.591Z" fill="#212121"/>
<path d="M339.763 140.989H233.7C233.449 140.989 233.243 140.784 233.243 140.533V140.464C233.243 140.213 233.449 140.008 233.7 140.008H339.763C340.014 140.008 340.22 140.213 340.22 140.464V140.533C340.22 140.784 340.014 140.989 339.763 140.989Z" fill="#D8E1ED"/>
<path d="M339.763 146.393H233.7C233.449 146.393 233.243 146.187 233.243 145.937V145.868C233.243 145.617 233.449 145.412 233.7 145.412H339.763C340.014 145.412 340.22 145.617 340.22 145.868V145.937C340.22 146.187 340.014 146.393 339.763 146.393Z" fill="#D8E1ED"/>
<path d="M220.69 141.336C220.558 141.336 220.433 141.297 220.318 141.211L218.302 139.7C218.027 139.495 217.976 139.113 218.176 138.84C218.382 138.566 218.764 138.515 219.039 138.714L220.61 139.889L223.764 136.474C223.992 136.223 224.387 136.206 224.632 136.44C224.884 136.668 224.901 137.061 224.667 137.306L221.136 141.131C221.027 141.268 220.861 141.336 220.69 141.336Z" fill="white"/>
<path d="M139.294 42.2761C150.847 27.0961 163.028 29.2394 171.479 32.9104C179.929 36.5814 185.608 45.8217 185.043 54.9992C184.894 57.4219 184.374 59.9756 185.363 62.193C186.951 65.7614 191.579 66.7704 194.253 69.6206C197.916 73.5196 197.104 79.6873 195.864 84.886C194.63 90.0847 193.328 96.0131 196.39 100.397C199.196 104.41 204.544 105.487 208.954 107.619C214.782 110.441 219.468 115.708 221.165 121.95C222.856 128.191 221.365 135.3 216.982 140.06C212.691 144.722 206.252 146.786 199.978 147.709C181.723 150.394 162.382 144.517 148.727 132.13C135.071 119.749 127.358 101.103 128.295 82.7142" fill="#212121"/>
<path d="M172.084 33.5603C172.079 33.6515 170.496 33.4121 167.982 33.794C165.456 34.1246 162.125 35.2647 158.44 36.5529C154.755 37.8412 151.201 38.5538 148.607 38.3884C147.316 38.32 146.287 38.1148 145.601 37.8925C144.916 37.6759 144.556 37.5049 144.562 37.4821C144.584 37.3795 146.076 38.0236 148.618 38.0635C151.155 38.1433 154.623 37.3966 158.291 36.1197C161.96 34.8371 165.359 33.7313 167.936 33.4748C169.216 33.3323 170.262 33.3323 170.982 33.395C171.696 33.452 172.084 33.5318 172.084 33.5603Z" fill="#424242"/>
<path d="M198.647 154.31C199.087 155.633 208.286 198.984 208.286 198.984L278.238 225.815L274.553 235.346L214.32 230.735C179.318 225.525 177.369 208.384 179.483 189.231L183.112 156.403L198.647 154.31Z" fill="#F4A286"/>
<path d="M98.0981 130.933C105.309 120.046 116.25 113.764 126.272 110.287L163.074 112.903C163.074 112.903 175.501 111.09 185.494 121.152L188.917 212.129L197.367 235.341H109.811L98.0981 130.933Z" fill="#E53935"/>
<path d="M186.837 158.506C186.831 158.512 186.757 158.466 186.625 158.363C186.471 158.249 186.277 158.101 186.031 157.919C185.768 157.731 185.471 157.457 185.066 157.206C184.66 156.944 184.203 156.653 183.689 156.323C183.14 156.038 182.54 155.707 181.872 155.376C181.175 155.108 180.449 154.721 179.609 154.476C177.969 153.871 175.998 153.461 173.81 153.262C171.621 153.073 169.187 153.159 166.662 153.706C164.142 154.248 161.525 155.262 159.12 156.876C156.709 158.449 154.458 160.678 153.183 163.539C152.572 164.97 152.218 166.555 152.378 168.151C152.538 169.741 153.115 171.326 154.126 172.614C155.12 173.908 156.6 174.814 158.171 175.008C159.725 175.225 161.411 174.638 162.154 173.304C162.914 171.993 162.742 170.34 162.222 168.966C161.96 168.271 161.605 167.615 161.177 167.028C160.743 166.446 160.24 165.911 159.703 165.432C157.566 163.488 154.949 162.376 152.441 161.812C149.921 161.236 147.481 161.202 145.293 161.413C140.899 161.863 137.482 163.049 135.134 163.796C133.985 164.183 133.083 164.485 132.431 164.708C132.14 164.805 131.911 164.879 131.729 164.942C131.569 164.993 131.489 165.016 131.483 165.004C131.483 164.999 131.557 164.959 131.711 164.896C131.889 164.822 132.117 164.736 132.403 164.622C133.008 164.389 133.911 164.047 135.077 163.63C137.414 162.832 140.825 161.59 145.259 161.094C147.47 160.86 149.949 160.871 152.521 161.442C155.075 162 157.766 163.123 159.983 165.118C160.263 165.363 160.531 165.626 160.783 165.905C161.045 166.173 161.291 166.469 161.52 166.777C161.971 167.398 162.348 168.082 162.628 168.818C163.171 170.26 163.394 172.033 162.537 173.538C162.12 174.273 161.428 174.854 160.628 175.168C159.834 175.487 158.954 175.573 158.109 175.47C156.4 175.259 154.817 174.284 153.755 172.905C152.681 171.537 152.075 169.867 151.909 168.196C151.749 166.509 152.121 164.845 152.761 163.363C154.092 160.387 156.412 158.124 158.874 156.528C161.337 154.892 164.011 153.877 166.576 153.341C169.147 152.806 171.616 152.737 173.833 152.948C176.049 153.17 178.032 153.609 179.683 154.242C180.529 154.499 181.255 154.903 181.957 155.188C182.632 155.536 183.231 155.878 183.774 156.18C184.283 156.528 184.74 156.836 185.14 157.109C185.54 157.377 185.825 157.662 186.083 157.862C186.311 158.061 186.5 158.221 186.648 158.346C186.78 158.443 186.837 158.5 186.837 158.506Z" fill="#FAFAFA"/>
<path d="M185.489 121.152L207.212 160.125L183.112 167.512L185.489 121.152Z" fill="#E53935"/>
<path d="M188.408 212.425C188.391 212.425 188.368 212.192 188.334 211.747C188.305 211.257 188.265 210.607 188.22 209.792C188.14 208.042 188.025 205.596 187.888 202.598C187.637 196.521 187.328 188.13 187.06 178.856C186.791 169.582 186.614 161.179 186.557 155.097C186.534 152.059 186.523 149.596 186.546 147.898C186.557 147.082 186.569 146.433 186.58 145.942C186.591 145.492 186.609 145.258 186.626 145.258C186.643 145.258 186.66 145.492 186.677 145.942C186.689 146.433 186.706 147.082 186.729 147.898C186.768 149.648 186.82 152.093 186.888 155.097C187.054 161.219 187.277 169.593 187.528 178.845C187.797 188.096 188.043 196.47 188.225 202.592C188.3 205.596 188.363 208.042 188.408 209.792C188.42 210.607 188.431 211.257 188.437 211.747C188.431 212.186 188.425 212.425 188.408 212.425Z" fill="#FAFAFA"/>
<path d="M191.905 133.02C191.916 133.031 191.739 133.151 191.408 133.367C191.082 133.595 190.557 133.863 189.877 134.2C188.505 134.821 186.363 135.511 183.632 135.551C180.929 135.596 177.587 134.952 174.576 132.917C173.816 132.427 173.09 131.84 172.456 131.121C171.827 130.403 171.302 129.514 171.147 128.494C170.993 127.496 171.187 126.362 171.93 125.547C172.667 124.709 173.89 124.458 174.947 124.68C176.01 124.891 176.992 125.518 177.541 126.453C178.078 127.376 178.187 128.476 178.009 129.463C177.832 130.46 177.381 131.367 176.781 132.119C176.175 132.877 175.398 133.436 174.598 133.88C172.981 134.741 171.262 135.077 169.685 135.26C168.096 135.442 166.599 135.425 165.251 135.311C162.543 135.066 160.429 134.382 159.034 133.818C158.332 133.533 157.806 133.276 157.457 133.088C157.109 132.9 156.926 132.792 156.932 132.78C156.937 132.769 157.132 132.843 157.497 133.003C157.857 133.162 158.394 133.39 159.103 133.647C160.509 134.16 162.611 134.781 165.285 134.986C166.616 135.077 168.091 135.072 169.65 134.878C171.204 134.684 172.873 134.336 174.404 133.504C175.158 133.082 175.89 132.547 176.444 131.84C176.998 131.139 177.415 130.289 177.575 129.377C177.735 128.471 177.627 127.49 177.152 126.675C176.684 125.877 175.81 125.313 174.861 125.125C173.918 124.931 172.884 125.159 172.279 125.849C171.65 126.527 171.467 127.525 171.604 128.42C171.736 129.326 172.21 130.147 172.799 130.825C173.393 131.503 174.09 132.079 174.827 132.558C177.735 134.553 180.992 135.22 183.643 135.214C186.317 135.22 188.443 134.587 189.82 134.023C191.179 133.447 191.876 132.974 191.905 133.02Z" fill="#FAFAFA"/>
<path d="M124.803 141C122.152 127.405 102.852 126.903 99.4748 140.339C99.4234 140.544 99.3719 140.755 99.3205 140.966C94.3554 162.137 111.153 224.698 115.667 228.301C120.181 231.903 124.655 236.002 132.374 232.804C136.882 230.934 183.751 189.618 183.751 189.618C183.751 189.618 194.59 199.982 198.201 199.081C201.812 198.18 208.725 187.549 208.725 187.549C208.725 187.549 215.422 197.576 216.262 197.73C218.656 198.169 219.873 195.478 218.97 194.127C218.067 192.776 209.531 174.13 209.531 174.13C209.531 174.13 216.262 173.407 214.908 171.149C214.908 171.149 214.736 169.08 210.188 169.479C205.64 169.878 205.64 164.674 197.212 165.209C188.785 165.745 171.261 167.877 146.647 186.694L135.277 194.703L124.803 141Z" fill="#F4A286"/>
<path d="M131.066 209.917C131.031 209.923 130.968 209.689 130.883 209.256C130.786 208.828 130.706 208.196 130.654 207.409C130.551 205.841 130.671 203.635 131.317 201.31C131.968 198.984 133.008 197.034 133.911 195.746C134.362 195.102 134.757 194.6 135.065 194.281C135.362 193.956 135.539 193.791 135.562 193.814C135.625 193.865 135.002 194.606 134.185 195.923C133.362 197.234 132.403 199.161 131.763 201.429C131.134 203.704 130.957 205.847 130.98 207.392C131.003 208.948 131.146 209.906 131.066 209.917Z" fill="#F29170"/>
<path d="M111.656 117.481C111.228 117.766 95.6181 122.423 93.1669 138.389C90.7101 154.356 92.1842 182.139 92.1842 182.139L134.522 179.238L122.387 123.107L111.656 117.481Z" fill="#E53935"/>
<path d="M201.647 196.863C201.567 196.846 201.687 196.293 201.664 195.416C201.647 194.538 201.412 193.324 200.79 192.132C200.161 190.946 199.287 190.069 198.567 189.556C197.853 189.037 197.327 188.826 197.356 188.752C197.367 188.706 197.944 188.809 198.744 189.288C199.544 189.755 200.521 190.656 201.189 191.921C201.852 193.187 202.047 194.503 201.984 195.421C201.932 196.35 201.692 196.881 201.647 196.863Z" fill="#F29170"/>
<path d="M205.538 192.132C205.395 192.149 205.355 190.211 204.098 188.29C202.881 186.346 201.127 185.497 201.207 185.372C201.23 185.32 201.698 185.457 202.355 185.879C203.012 186.295 203.835 187.03 204.486 188.039C205.132 189.048 205.458 190.103 205.555 190.878C205.663 191.648 205.589 192.132 205.538 192.132Z" fill="#F29170"/>
<path d="M205.537 182.048C205.572 182.003 205.937 182.179 206.423 182.613C206.909 183.046 207.486 183.758 207.897 184.67C208.303 185.583 208.446 186.495 208.434 187.144C208.428 187.794 208.314 188.182 208.257 188.176C208.114 188.17 208.257 186.58 207.469 184.859C206.72 183.12 205.446 182.157 205.537 182.048Z" fill="#F29170"/>
<path d="M129.357 152.743C129.357 152.749 129.283 152.749 129.135 152.731C128.963 152.714 128.752 152.692 128.495 152.663C127.935 152.578 127.101 152.526 126.032 152.498C123.901 152.475 120.747 152.737 117.176 154.134C113.633 155.513 109.668 158.135 106.829 162.319C105.452 164.389 104.372 166.948 104.554 169.661C104.646 171.001 105.04 172.363 105.789 173.526C106.531 174.689 107.651 175.647 109.005 176.074C110.348 176.508 111.845 176.451 113.085 175.88C114.342 175.322 115.216 174.153 115.57 172.882C115.902 171.594 115.776 170.231 115.416 168.989C115.056 167.74 114.456 166.583 113.725 165.58C110.697 161.527 106.263 159.435 102.515 158.968C98.7094 158.46 95.6069 159.35 93.6528 160.159C92.6644 160.569 91.9387 160.986 91.4474 161.259C91.2245 161.396 91.0417 161.504 90.8989 161.59C90.7732 161.664 90.7046 161.698 90.7046 161.692C90.7046 161.692 91.6131 160.894 93.5843 159.994C95.5383 159.133 98.6694 158.17 102.56 158.648C106.394 159.087 110.942 161.185 114.073 165.335C114.839 166.378 115.462 167.569 115.845 168.875C116.227 170.174 116.37 171.611 116.01 173.013C115.633 174.398 114.668 175.692 113.285 176.308C111.925 176.935 110.32 176.992 108.868 176.525C107.406 176.069 106.189 175.025 105.406 173.788C104.606 172.546 104.2 171.115 104.103 169.707C103.926 166.845 105.063 164.212 106.474 162.097C109.394 157.833 113.451 155.2 117.056 153.843C120.696 152.464 123.889 152.253 126.038 152.327C128.203 152.418 129.357 152.743 129.357 152.743Z" fill="#FAFAFA"/>
<path d="M127.906 129.833C127.917 129.862 127.535 130.038 126.832 130.329C126.483 130.483 126.049 130.648 125.529 130.797C125.009 130.95 124.426 131.161 123.758 131.287C123.095 131.441 122.364 131.606 121.564 131.697C120.77 131.834 119.913 131.874 119.016 131.942C117.21 131.999 115.222 131.902 113.165 131.549C111.114 131.167 109.211 130.569 107.537 129.89C106.714 129.52 105.926 129.183 105.229 128.779C104.514 128.414 103.886 128.009 103.315 127.633C102.732 127.279 102.257 126.88 101.829 126.556C101.395 126.236 101.046 125.928 100.772 125.661C100.212 125.142 99.9149 124.851 99.9378 124.823C100.006 124.749 101.212 125.923 103.497 127.354C104.069 127.707 104.697 128.089 105.411 128.437C106.103 128.824 106.886 129.138 107.703 129.497C109.36 130.147 111.228 130.722 113.245 131.099C115.267 131.446 117.222 131.555 118.998 131.526C119.884 131.475 120.73 131.452 121.512 131.327C122.301 131.253 123.027 131.11 123.684 130.979C126.329 130.42 127.872 129.736 127.906 129.833Z" fill="#FAFAFA"/>
<path d="M131.403 156.893C131.414 156.893 131.448 157.035 131.5 157.315C131.551 157.634 131.62 158.044 131.706 158.546C131.877 159.674 132.117 161.231 132.414 163.174C132.991 167.182 133.797 172.745 134.728 179.204L134.762 179.437L134.528 179.455C131.454 179.671 128.112 179.899 124.638 180.144C115.696 180.731 107.605 181.262 101.686 181.649C98.7835 181.82 96.4238 181.957 94.7269 182.054C93.9384 182.088 93.3099 182.117 92.8356 182.139C92.4014 182.157 92.1729 182.157 92.1729 182.139C92.1729 182.122 92.3957 182.094 92.8299 182.048C93.3042 182.003 93.9327 181.946 94.7154 181.877C96.4067 181.746 98.7664 181.558 101.663 181.33C107.577 180.908 115.667 180.327 124.604 179.688C128.077 179.455 131.42 179.227 134.494 179.021L134.294 179.272C133.425 172.802 132.677 167.233 132.14 163.22C131.894 161.271 131.7 159.709 131.557 158.574C131.5 158.067 131.454 157.657 131.42 157.332C131.397 157.041 131.391 156.893 131.403 156.893Z" fill="#FAFAFA"/>
<g opacity="0.2">
<path d="M110.879 117.036C110.457 118.524 111.639 119.926 112.411 121.271C113.902 123.859 113.982 126.983 114.113 129.964C114.359 135.42 114.919 140.909 116.622 146.102C118.324 151.289 121.255 156.192 125.575 159.543C129.894 162.895 135.711 164.525 141.007 163.146C146.304 161.766 150.778 157.092 151.206 151.648C151.629 146.25 148.372 141.359 146.487 136.28C145.036 132.364 144.39 128.209 143.556 124.116C142.722 120.023 141.659 115.902 139.482 112.339C137.305 108.77 133.86 105.789 129.74 105.037C125.626 104.29 120.924 106.228 119.256 110.059" fill="#212121"/>
</g>
<path d="M131.323 45.5994L131.334 50.3021L131.026 120.73C130.991 128.904 138.008 135.448 146.784 135.42C155.646 135.391 162.965 128.676 163.136 120.416C163.319 111.746 163.668 102.625 163.668 102.625C163.668 102.625 174.895 100.972 177.472 86.4422C178.752 79.2142 178.603 67.329 178.163 57.6043C177.769 48.8543 170.153 42.1906 161.411 42.9601L131.323 45.5994Z" fill="#F4A286"/>
<path d="M174.729 66.474C174.746 67.4601 173.923 68.2924 172.889 68.3266C171.855 68.3608 171.004 67.5969 170.987 66.6051C170.969 65.6189 171.792 64.7867 172.826 64.7525C173.861 64.7183 174.712 65.4878 174.729 66.474Z" fill="#212121"/>
<path d="M155.64 66.1377C155.657 67.1238 154.835 67.9561 153.8 67.9903C152.766 68.0245 151.915 67.2606 151.898 66.2688C151.881 65.2826 152.703 64.4504 153.738 64.4162C154.772 64.382 155.623 65.1515 155.64 66.1377Z" fill="#212121"/>
<path d="M162.702 78.8095C162.696 78.6955 163.953 78.5017 165.987 78.2794C166.501 78.2338 166.993 78.1426 167.084 77.7949C167.21 77.4243 167.004 76.8714 166.77 76.2672C166.307 75.0131 165.827 73.702 165.319 72.3282C163.302 66.7248 161.856 62.1189 162.085 62.0391C162.313 61.9593 164.13 66.4398 166.141 72.0432C166.627 73.4227 167.09 74.7395 167.53 76.005C167.713 76.5921 168.038 77.259 167.758 78.0229C167.616 78.4048 167.233 78.6784 166.901 78.7582C166.57 78.8551 166.279 78.8551 166.027 78.8665C163.97 78.9406 162.708 78.9292 162.702 78.8095Z" fill="#212121"/>
<path d="M163.668 102.631C163.668 102.631 153.829 103.087 144.201 97.0791C144.201 97.0791 148.766 107.174 163.41 106.068L163.668 102.631Z" fill="#F29170"/>
<path d="M161.759 83.6434C161.051 82.6743 159.794 82.1271 158.525 82.2411C157.651 82.3209 156.76 82.7256 156.211 83.4268C155.668 84.1279 155.537 85.1369 156.011 85.8209C156.543 86.5961 157.674 86.79 158.639 86.5334C159.605 86.2769 160.445 85.6613 161.245 85.0457C161.468 84.8746 161.691 84.6979 161.833 84.4585C161.97 84.2248 162.005 83.9113 161.845 83.7118" fill="#E57373"/>
<path d="M156.743 80.0978C157.068 80.0864 157.034 82.2696 158.879 83.8486C160.719 85.4333 163.056 85.2338 163.068 85.5359C163.096 85.6727 162.542 85.952 161.553 85.9577C160.588 85.9748 159.182 85.6385 158.057 84.6694C156.931 83.7004 156.463 82.4235 156.405 81.5286C156.343 80.6165 156.594 80.0807 156.743 80.0978Z" fill="#212121"/>
<path d="M157.274 60.2777C157.063 60.8193 155.057 60.5285 152.686 60.768C150.309 60.9618 148.389 61.6173 148.087 61.1214C147.95 60.882 148.292 60.3746 149.075 59.8616C149.846 59.3486 151.075 58.8641 152.498 58.7329C153.92 58.6018 155.217 58.8526 156.069 59.2175C156.937 59.5766 157.366 60.0155 157.274 60.2777Z" fill="#212121"/>
<path d="M175.798 62.2899C175.432 62.7403 174.055 62.2443 172.387 62.1873C170.718 62.079 169.295 62.4381 168.981 61.9536C168.844 61.7199 169.073 61.2639 169.701 60.8421C170.318 60.4202 171.341 60.0896 172.489 60.1409C173.638 60.1979 174.621 60.6311 175.198 61.1043C175.769 61.5945 175.958 62.0676 175.798 62.2899Z" fill="#212121"/>
<path d="M149.641 40.8111C153.595 45.9471 149.601 53.3176 145.155 58.0318C140.705 62.746 135.282 68.224 136.574 74.5741C138.071 81.9333 148.224 86.5562 146.795 93.9268C146.275 96.6173 144.173 98.9259 144.19 101.668C144.218 106.616 150.658 108.953 152.549 113.524C155.143 119.789 148.247 126.134 148.207 132.911C148.184 136.759 150.406 140.327 150.561 144.175C150.875 152.053 141.59 157.913 133.911 156.055C126.232 154.196 120.907 146.78 119.164 139.09C117.421 131.401 118.576 123.38 119.735 115.582C119.004 118.911 113.947 119.578 111.456 117.253C108.965 114.927 108.628 111.079 109.148 107.71C110.462 99.268 115.947 92.0742 118.507 83.9227C120.747 76.7973 120.69 69.1873 121.627 61.7769C122.564 54.3665 124.786 46.6311 130.403 41.6946C136.019 36.7581 145.818 36.0627 150.458 41.9226" fill="#212121"/>
<path d="M129.62 153.244C129.614 153.239 129.677 153.142 129.803 152.954C129.94 152.749 130.129 152.475 130.363 152.121C130.82 151.375 131.483 150.246 132.066 148.684C132.643 147.128 133.151 145.127 133.243 142.762C133.311 140.413 133.003 137.671 131.803 134.946C130.637 132.205 128.592 129.617 126.432 126.84C125.358 125.444 124.249 123.985 123.295 122.349C122.347 120.707 121.61 118.877 121.221 116.905C120.867 114.944 120.873 112.783 121.712 110.811C122.135 109.836 122.758 108.93 123.518 108.166C124.284 107.402 125.146 106.747 126.021 106.114C127.752 104.86 129.614 103.595 130.574 101.628C131.546 99.6784 131.523 97.3413 130.98 95.1752C129.917 90.7346 126.832 87.303 124.855 83.4496C123.855 81.5286 123.112 79.4536 123.015 77.3388C122.889 75.224 123.387 73.1662 124.164 71.325C125.769 67.6312 128.42 64.7753 131.037 62.4267C133.665 60.0668 136.265 58.0603 138.402 55.9683C140.556 53.899 142.224 51.75 143.264 49.6238C144.333 47.5147 144.818 45.4968 144.927 43.8437C145.047 42.1849 144.796 40.8909 144.544 40.0529C144.299 39.2093 144.093 38.7932 144.121 38.7818C144.121 38.7818 144.356 39.1865 144.636 40.0244C144.916 40.8567 145.201 42.1621 145.104 43.8494C145.024 45.531 144.55 47.5831 143.493 49.7321C142.464 51.8982 140.779 54.0986 138.625 56.1963C136.488 58.3168 133.894 60.3461 131.289 62.7061C128.7 65.0489 126.106 67.8763 124.546 71.4846C123.792 73.2802 123.318 75.2696 123.444 77.3046C123.541 79.3396 124.255 81.3461 125.244 83.233C126.232 85.1312 127.472 86.9382 128.637 88.8364C129.82 90.7289 130.854 92.7981 131.414 95.0497C131.974 97.2786 132.008 99.7354 130.974 101.816C129.94 103.919 127.992 105.219 126.272 106.462C125.404 107.089 124.552 107.727 123.821 108.463C123.089 109.198 122.507 110.047 122.101 110.971C121.301 112.835 121.284 114.91 121.621 116.814C121.992 118.729 122.707 120.525 123.627 122.138C124.552 123.745 125.649 125.204 126.712 126.601C128.855 129.377 130.911 132.005 132.083 134.81C133.283 137.597 133.574 140.384 133.477 142.762C133.363 145.156 132.814 147.174 132.208 148.735C131.591 150.303 130.906 151.42 130.42 152.156C130.169 152.521 129.957 152.783 129.82 152.965C129.7 153.159 129.626 153.244 129.62 153.244Z" fill="#424242"/>
<path d="M238.356 169.929L206.006 226.283C205.223 227.645 203.795 228.506 202.223 228.557L159.737 230.022C158.303 230.074 157.166 231.248 157.166 232.679C157.166 234.149 158.36 235.335 159.828 235.335H293.739C295.259 235.335 296.676 234.543 297.47 233.249L334.026 173.498C335.46 171.155 333.769 168.157 331.02 168.157H241.413C240.151 168.162 238.985 168.841 238.356 169.929Z" fill="#424242"/>
<path d="M280.449 201.184C278.341 204.462 275.09 206.126 273.193 204.912C271.296 203.692 271.467 200.056 273.576 196.778C275.684 193.5 278.935 191.836 280.832 193.05C282.729 194.27 282.563 197.912 280.449 201.184Z" fill="#E0E0E0"/>
<path d="M359.063 40.0815H338.071C336.997 40.0815 336.123 39.215 336.123 38.1376V16.9438C336.123 15.8722 336.992 15 338.071 15H359.063C360.138 15 361.012 15.8665 361.012 16.9438V38.1376C361.006 39.215 360.138 40.0815 359.063 40.0815Z" fill="#1976D2"/>
<path d="M353.961 22.9177C353.915 22.7353 353.818 22.57 353.687 22.4389C353.556 22.3078 353.39 22.2109 353.207 22.1653C353.024 22.1197 352.836 22.1197 352.653 22.171L342.774 24.9528C342.568 25.0098 342.38 25.1295 342.243 25.3005C342.105 25.4658 342.02 25.671 342.003 25.8876C341.985 26.1042 342.031 26.3151 342.14 26.5033C342.248 26.6914 342.408 26.8396 342.602 26.9308L347.071 29.0456L349.19 33.5033C349.276 33.6857 349.407 33.8396 349.579 33.9479C349.75 34.0562 349.945 34.1132 350.144 34.1132C350.173 34.1132 350.207 34.1132 350.236 34.1075C350.453 34.0904 350.659 34.0106 350.824 33.8681C350.99 33.7313 351.11 33.5432 351.167 33.338L353.955 23.4821C354.007 23.294 354.007 23.1002 353.961 22.9177ZM350.099 32.443L348.316 28.6922C348.259 28.5896 348.213 28.5098 348.168 28.4357L350.196 26.412C350.259 26.3436 350.299 26.2581 350.299 26.1669C350.299 26.0757 350.264 25.9845 350.196 25.9218C350.133 25.8591 350.042 25.8192 349.95 25.8192C349.859 25.8192 349.767 25.8534 349.705 25.9218L347.676 27.9454C347.602 27.9055 347.522 27.8599 347.419 27.7972L343.659 26.0187L352.63 23.4935L350.099 32.443Z" fill="white"/>
</g>
<defs>
<clipPath id="clip0_785_3903">
<rect width="472" height="204" rx="16" fill="white"/>
</clipPath>
</defs>
</svg>
