<svg width="13" height="20" viewBox="0 0 13 20" fill="none" xmlns="http://www.w3.org/2000/svg">
<path d="M10.25 0.9375H2.75C2.17047 0.939559 1.61527 1.17069 1.20548 1.58048C0.795688 1.99027 0.564559 2.54547 0.5625 3.125V16.875C0.564559 17.4545 0.795688 18.0097 1.20548 18.4195C1.61527 18.8293 2.17047 19.0604 2.75 19.0625H10.25C10.8295 19.0604 11.3847 18.8293 11.7945 18.4195C12.2043 18.0097 12.4354 17.4545 12.4375 16.875V3.125C12.4354 2.54547 12.2043 1.99027 11.7945 1.58048C11.3847 1.17069 10.8295 0.939559 10.25 0.9375ZM2.4375 5.9375H10.5625V14.0625H2.4375V5.9375ZM2.75 2.8125H10.25C10.3329 2.8125 10.4124 2.84542 10.471 2.90403C10.5296 2.96263 10.5625 3.04212 10.5625 3.125V4.0625H2.4375V3.125C2.4375 3.04212 2.47042 2.96263 2.52903 2.90403C2.58763 2.84542 2.66712 2.8125 2.75 2.8125ZM10.25 17.1875H2.75C2.66712 17.1875 2.58763 17.1546 2.52903 17.096C2.47042 17.0374 2.4375 16.9579 2.4375 16.875V15.9375H10.5625V16.875C10.5625 16.9579 10.5296 17.0374 10.471 17.096C10.4124 17.1546 10.3329 17.1875 10.25 17.1875Z" fill="#212121"/>
</svg>
