<svg width="472" height="204" viewBox="0 0 472 204" fill="none" xmlns="http://www.w3.org/2000/svg">
<g clip-path="url(#clip0_785_3658)">
<rect width="472" height="204" rx="16" fill="#FFF9E1"/>
<path d="M93.544 224.806H330.109C334.876 224.806 338.736 220.946 338.736 216.179V65.5732C338.736 60.8062 334.876 56.9453 330.109 56.9453H93.544C88.7775 56.9453 84.917 60.8062 84.917 65.5732V216.185C84.917 220.946 88.7775 224.806 93.544 224.806Z" fill="#424242"/>
<path d="M95.9075 205.372H327.748C329.856 205.372 331.567 203.66 331.567 201.552V67.8945C331.567 65.5318 329.654 63.6191 327.292 63.6191H96.3634C94.0009 63.6191 92.0884 65.5318 92.0884 67.8945V201.552C92.0884 203.66 93.7996 205.372 95.9075 205.372Z" fill="#616161"/>
<path d="M102.03 35.3076C98.1166 35.3076 94.9429 38.4816 94.9429 42.3958V56.9454H116.146V43.521C116.146 38.985 112.469 35.3017 107.928 35.3017H102.03V35.3076Z" fill="#424242"/>
<path d="M102.359 35.2899L111.2 35.2307L124.042 35.3076H218.389C226.4 35.3076 232.896 41.8037 232.896 49.8157V203.039V205.715H110.714V43.2604C110.353 35.3076 102.359 35.2899 102.359 35.2899Z" fill="white"/>
<path d="M127.991 63.3586H149.313L149.349 70.5001H148.33C147.993 67.9419 147.039 66.2187 145.458 65.3127C144.57 64.8153 143.244 64.5429 141.479 64.4955V83.1547C141.479 84.4575 141.704 85.322 142.16 85.7484C142.616 86.1747 143.564 86.3879 145.002 86.3879V87.288H132.379V86.3879C133.764 86.3879 134.682 86.1688 135.138 85.7365C135.594 85.3043 135.819 84.4397 135.819 83.1488V64.4955C134.09 64.5429 132.764 64.8153 131.84 65.3127C130.146 66.2365 129.187 67.9656 128.968 70.5001H127.95L127.991 63.3586Z" fill="#1976D2"/>
<path d="M166.652 190.591C166.652 191.171 166.179 191.645 165.598 191.645C165.018 191.645 164.544 191.171 164.544 190.591C164.544 190.011 165.018 189.537 165.598 189.537C166.185 189.537 166.652 190.011 166.652 190.591Z" fill="#D8E1ED"/>
<path d="M172.912 190.591C172.912 191.171 172.438 191.645 171.858 191.645C171.277 191.645 170.804 191.171 170.804 190.591C170.804 190.011 171.277 189.537 171.858 189.537C172.438 189.537 172.912 190.011 172.912 190.591Z" fill="#D8E1ED"/>
<path d="M179.162 190.591C179.162 191.171 178.688 191.645 178.108 191.645C177.528 191.645 177.054 191.171 177.054 190.591C177.054 190.011 177.528 189.537 178.108 189.537C178.688 189.537 179.162 190.011 179.162 190.591Z" fill="#D8E1ED"/>
<path d="M217.331 99.2852H164.338C164.124 99.2852 163.947 99.1075 163.947 98.8944C163.947 98.6812 164.124 98.5036 164.338 98.5036H217.331C217.545 98.5036 217.722 98.6812 217.722 98.8944C217.722 99.1135 217.55 99.2852 217.331 99.2852Z" fill="#212121"/>
<path d="M217.331 106.657H164.338C164.124 106.657 163.947 106.48 163.947 106.267C163.947 106.053 164.124 105.876 164.338 105.876H217.331C217.545 105.876 217.722 106.053 217.722 106.267C217.722 106.486 217.55 106.657 217.331 106.657Z" fill="#212121"/>
<path d="M217.331 114.03H164.338C164.124 114.03 163.947 113.852 163.947 113.639C163.947 113.426 164.124 113.249 164.338 113.249H217.331C217.545 113.249 217.722 113.426 217.722 113.639C217.722 113.858 217.55 114.03 217.331 114.03Z" fill="#212121"/>
<path d="M217.331 125.743H164.338C164.124 125.743 163.947 125.565 163.947 125.352C163.947 125.139 164.124 124.961 164.338 124.961H217.331C217.545 124.961 217.722 125.139 217.722 125.352C217.722 125.565 217.55 125.743 217.331 125.743Z" fill="#212121"/>
<path d="M217.331 133.116H164.338C164.124 133.116 163.947 132.938 163.947 132.725C163.947 132.512 164.124 132.334 164.338 132.334H217.331C217.545 132.334 217.722 132.512 217.722 132.725C217.722 132.938 217.55 133.116 217.331 133.116Z" fill="#212121"/>
<path d="M212.577 139.41H164.338C164.124 139.41 163.947 139.233 163.947 139.02C163.947 138.807 164.124 138.629 164.338 138.629H212.577C212.79 138.629 212.967 138.807 212.967 139.02C212.967 139.239 212.79 139.41 212.577 139.41Z" fill="#212121"/>
<path d="M217.331 144.633H164.338C164.124 144.633 163.947 144.455 163.947 144.242C163.947 144.029 164.124 143.851 164.338 143.851H217.331C217.545 143.851 217.722 144.029 217.722 144.242C217.722 144.455 217.55 144.633 217.331 144.633Z" fill="#212121"/>
<path d="M217.331 173.578H164.338C164.124 173.578 163.947 173.401 163.947 173.187C163.947 172.974 164.124 172.797 164.338 172.797H217.331C217.545 172.797 217.722 172.974 217.722 173.187C217.722 173.407 217.55 173.578 217.331 173.578Z" fill="#212121"/>
<path d="M196.608 152.005H164.338C164.124 152.005 163.947 151.828 163.947 151.615C163.947 151.402 164.124 151.224 164.338 151.224H196.608C196.821 151.224 196.998 151.402 196.998 151.615C196.998 151.828 196.827 152.005 196.608 152.005Z" fill="#212121"/>
<path d="M201.978 166.49H164.338C164.124 166.49 163.947 166.312 163.947 166.099C163.947 165.886 164.124 165.708 164.338 165.708H201.978C202.191 165.708 202.369 165.886 202.369 166.099C202.369 166.312 202.197 166.49 201.978 166.49Z" fill="#212121"/>
<path d="M157.832 99.2852H120.038C119.825 99.2852 119.647 99.1075 119.647 98.8944C119.647 98.6812 119.825 98.5036 120.038 98.5036H157.832C158.045 98.5036 158.223 98.6812 158.223 98.8944C158.223 99.1135 158.051 99.2852 157.832 99.2852Z" fill="#212121"/>
<path d="M157.832 106.657H120.038C119.825 106.657 119.647 106.48 119.647 106.267C119.647 106.053 119.825 105.876 120.038 105.876H157.832C158.045 105.876 158.223 106.053 158.223 106.267C158.223 106.486 158.051 106.657 157.832 106.657Z" fill="#212121"/>
<path d="M157.832 114.03H120.038C119.825 114.03 119.647 113.852 119.647 113.639C119.647 113.426 119.825 113.249 120.038 113.249H157.832C158.045 113.249 158.223 113.426 158.223 113.639C158.223 113.858 158.051 114.03 157.832 114.03Z" fill="#212121"/>
<path d="M214.606 65.745H163.72C163.507 65.745 163.33 65.5674 163.33 65.3542C163.33 65.1411 163.507 64.9634 163.72 64.9634H214.606C214.819 64.9634 214.997 65.1411 214.997 65.3542C215.003 65.5733 214.825 65.745 214.606 65.745Z" fill="#212121"/>
<path d="M183.437 73.1174H163.725C163.512 73.1174 163.334 72.9398 163.334 72.7266C163.334 72.5135 163.512 72.3358 163.725 72.3358H183.437C183.65 72.3358 183.827 72.5135 183.827 72.7266C183.827 72.9457 183.656 73.1174 183.437 73.1174Z" fill="#212121"/>
<path d="M222.296 73.1174H188.226C188.013 73.1174 187.835 72.9398 187.835 72.7266C187.835 72.5135 188.013 72.3358 188.226 72.3358H222.296C222.509 72.3358 222.687 72.5135 222.687 72.7266C222.687 72.9457 222.509 73.1174 222.296 73.1174Z" fill="#212121"/>
<path d="M222.291 80.4898H163.725C163.512 80.4898 163.334 80.3122 163.334 80.099C163.334 79.8859 163.512 79.7083 163.725 79.7083H222.291C222.504 79.7083 222.682 79.8859 222.682 80.099C222.682 80.3181 222.504 80.4898 222.291 80.4898Z" fill="#212121"/>
<path d="M183.537 87.6786H163.725C163.512 87.6786 163.334 87.5009 163.334 87.2878C163.334 87.0746 163.512 86.897 163.725 86.897H183.537C183.75 86.897 183.928 87.0746 183.928 87.2878C183.928 87.5068 183.756 87.6786 183.537 87.6786Z" fill="#212121"/>
<path d="M261.7 109.411C261.7 109.411 246.618 113.136 244.096 144.195C242.622 162.375 240.857 180.892 240.857 180.892L207.723 188.726L201.896 206.799L245.304 215.338C257.312 215.338 270.522 204.963 270.25 192.96L270.717 151.189L261.7 109.411Z" fill="#FFC800"/>
<path d="M341.289 109.666L348.022 156.346C348.993 163.097 348.507 169.978 346.601 176.521C346.601 176.521 347.181 199.462 346.583 207.077C345.564 220.093 339.874 227.08 339.874 227.08H264.943L261.242 157.548L261.704 109.411C261.704 109.411 278.461 103.3 285.039 102.572C289.16 102.116 307.024 101.524 321.649 102.868L341.289 109.666Z" fill="#FFC800"/>
<path d="M264.073 157.128C264.636 156.933 265.251 157.039 265.849 157.051C268.188 157.11 270.486 155.577 271.332 153.397C271.705 154.54 272.102 155.719 272.896 156.619C273.689 157.525 274.992 158.087 276.117 157.667C277.319 157.211 277.887 155.867 278.775 154.937C280.948 152.669 285.436 153.67 286.443 156.643C286.899 157.987 287.183 159.953 288.604 159.923C290.238 159.894 290.215 157.276 291.488 156.258C292.785 155.221 294.691 156.305 295.798 157.537C296.906 158.774 298.078 160.326 299.736 160.296C301.287 160.267 302.436 158.792 302.892 157.306C303.348 155.825 303.354 154.221 303.892 152.77C304.431 151.313 305.793 149.957 307.327 150.194C309.221 150.49 309.926 152.776 310.429 154.629C310.933 156.477 312.306 158.668 314.16 158.194C316.818 157.513 315.746 152.805 318.091 151.384C319.743 150.377 321.904 151.81 322.787 153.534C323.669 155.257 323.882 157.294 324.954 158.905C326.026 160.515 328.613 161.415 329.839 159.917C330.259 159.402 330.425 158.709 330.875 158.224C331.722 157.318 333.237 157.495 334.327 158.093C335.416 158.686 336.316 159.609 337.453 160.101C338.596 160.592 341.136 160.059 341.699 158.952L345.133 164.974C345.695 166.224 347.182 167.787 346.311 168.308C345.453 168.817 344.18 168.29 343.919 167.331C342.581 168.054 340.805 168.042 339.685 166.976C338.868 166.2 338.105 164.921 337.015 165.217C336.464 165.371 336.121 165.898 335.73 166.319C334.357 167.805 331.822 168.03 330.212 166.804C329.341 166.141 328.767 165.164 327.997 164.394C327.222 163.624 326.055 163.044 325.049 163.47C323.847 163.985 323.592 165.578 323.704 166.881C323.817 168.184 324.095 169.617 323.373 170.712C322.437 172.134 320.258 172.151 318.778 171.316C317.292 170.481 316.262 169.054 315.042 167.858C313.828 166.668 312.182 165.643 310.512 165.987C308.558 166.384 307.09 168.551 305.106 168.314C303.739 168.148 302.691 166.851 301.317 166.775C299.795 166.692 298.629 168.119 297.172 168.575C293.874 169.605 290.884 165.484 287.45 165.803C284.3 166.094 281.765 170.037 278.799 168.942C276.182 167.977 276.158 164.009 273.861 162.422C272.475 161.463 270.628 161.635 268.952 161.836C267.276 162.043 265.429 162.203 264.049 161.232C262.67 160.261 262.48 157.685 264.073 157.128Z" fill="white"/>
<path d="M261.533 154.386C261.871 153.628 261.628 152.651 260.971 152.142C260.313 151.633 259.313 151.633 258.656 152.142C257.91 152.722 257.714 153.758 257.667 154.7C257.619 155.642 257.655 156.636 257.211 157.465C256.761 158.294 255.594 158.827 254.854 158.241C254.268 157.779 254.25 156.921 254.167 156.18C254.085 155.44 253.711 154.558 252.965 154.522C252.219 154.487 251.758 155.334 251.621 156.068C251.485 156.802 251.432 157.655 250.846 158.117C250.017 157.874 249.845 156.814 249.656 155.967C249.466 155.126 248.679 154.155 247.927 154.57C247.554 154.777 247.417 155.233 247.228 155.618C247.038 156.003 246.636 156.382 246.233 156.228C245.564 155.973 245.919 154.694 245.25 154.439C244.806 154.274 244.404 154.741 244.161 155.144C243.711 155.884 243.255 156.672 243.231 157.536C243.207 158.401 243.8 159.348 244.67 159.39C245.179 159.414 245.653 159.129 246.15 159.035C247.21 158.833 248.282 159.508 248.874 160.408C249.466 161.309 249.679 162.404 249.875 163.464C251.171 162.173 253.599 162.339 254.712 163.79C255.665 165.033 255.914 167.112 257.454 167.42C258.466 167.621 259.455 166.792 259.798 165.815C260.142 164.838 260 163.766 259.858 162.742C260.544 163.316 261.231 163.884 261.918 164.459C262.072 163.541 262.232 162.617 262.386 161.699" fill="white"/>
<g opacity="0.3">
<path d="M343.901 219.287L317.28 211.062L300.375 209.511C300.375 209.511 295.532 217.949 291.233 217.552C286.935 217.156 284.004 215.326 284.004 215.326C284.004 215.326 282.369 224.208 278.065 223.545C273.754 222.882 275.975 196.394 275.975 196.394L320.868 187.346L351.93 196.838L343.901 219.287Z" fill="#212121"/>
</g>
<path d="M341.288 109.666C341.288 109.666 355.155 114.528 360.353 122.332C367.228 132.66 386.643 162.375 395.756 185.635C398.604 192.907 396.229 204.099 392.008 210.678C386.371 219.471 375.63 223.528 365.588 220.661L317.029 206.959L312.535 179.66L354.829 181.425L342.975 161.99L341.288 109.666Z" fill="#FFC800"/>
<path d="M379.128 152.811C378.128 151.49 375.783 151.591 374.907 152.994C374.166 154.179 374.166 156.145 372.793 156.411C371.792 156.607 370.999 155.636 370.336 154.854C369.672 154.078 368.47 153.373 367.724 154.072C367.026 154.724 367.393 156.115 366.582 156.63C365.853 157.098 364.941 156.376 364.45 155.665C363.959 154.955 363.36 154.072 362.496 154.155C360.726 154.321 361.105 157.957 359.328 157.992C358.422 158.01 357.883 156.968 357.049 156.624C355.959 156.174 354.793 157.009 353.91 157.785C353.33 158.294 352.738 158.821 352.401 159.514C352.063 160.207 352.051 161.119 352.572 161.682C353.354 162.528 354.763 162.179 355.77 161.616C356.776 161.054 357.86 160.32 358.979 160.604C360.874 161.083 361.56 164.204 363.508 163.991C365.279 163.796 365.747 160.912 367.523 160.722C369.359 160.527 370.697 163.476 372.414 162.777C373.213 162.451 373.533 161.462 374.273 161.024C374.978 160.61 375.884 160.787 376.624 161.143C377.364 161.492 378.027 162.001 378.809 162.244C379.59 162.487 380.573 162.38 381.035 161.711C381.497 161.036 380.94 159.852 380.141 160.023C380.786 159.917 381.426 159.816 382.071 159.71C382.089 159.194 382.101 158.679 382.118 158.17" fill="white"/>
<path d="M261.907 136.704C261.86 136.704 261.812 137.48 261.759 138.883C261.706 140.287 261.664 142.318 261.652 144.829C261.617 149.85 261.712 156.79 262.061 164.441C262.416 172.098 262.961 179.014 263.458 184.012C263.707 186.511 263.932 188.53 264.11 189.922C263.672 209.511 264.412 192.083 264.453 192.077C264.501 192.072 264.465 191.296 264.364 189.898C264.252 188.388 264.104 186.387 263.92 183.971C263.547 178.967 263.074 172.056 262.718 164.411C262.369 156.767 262.203 149.844 262.114 144.829C262.073 142.407 262.037 140.405 262.008 138.889C261.99 137.48 261.954 136.704 261.907 136.704Z" fill="white"/>
<path d="M259.181 110.898C259.015 111.022 260.927 113.539 262.271 117.145C263.645 120.739 263.87 123.896 264.077 123.872C264.237 123.89 264.314 120.615 262.899 116.908C261.507 113.189 259.293 110.779 259.181 110.898Z" fill="white"/>
<path d="M336.149 135.052C336.25 135.058 336.357 133.802 336.825 131.836C337.286 129.87 338.204 127.212 339.773 124.565C341.354 121.918 343.249 119.845 344.753 118.501C346.257 117.151 347.311 116.458 347.257 116.369C347.234 116.333 346.956 116.481 346.458 116.772C345.961 117.056 345.28 117.536 344.48 118.181C342.882 119.466 340.88 121.55 339.264 124.263C337.659 126.975 336.783 129.728 336.416 131.748C336.232 132.76 336.138 133.583 336.126 134.158C336.096 134.732 336.108 135.046 336.149 135.052Z" fill="white"/>
<path d="M355.35 181.655C355.303 181.839 359.027 182.621 363.077 184.853C367.151 187.05 369.821 189.762 369.951 189.62C370.005 189.573 369.401 188.832 368.264 187.796C367.127 186.76 365.428 185.469 363.361 184.338C361.295 183.213 359.282 182.484 357.801 182.088C356.309 181.685 355.362 181.584 355.35 181.655Z" fill="white"/>
<path d="M335.214 145.758C335.179 145.776 335.398 146.297 335.824 147.227C336.25 148.156 336.89 149.489 337.707 151.129C339.335 154.404 341.674 158.887 344.416 163.748C347.163 168.61 349.786 172.933 351.746 176.018C352.729 177.563 353.534 178.801 354.114 179.648C354.689 180.495 355.026 180.951 355.062 180.927C355.097 180.903 354.825 180.406 354.31 179.524C353.729 178.546 352.989 177.297 352.101 175.799C350.23 172.66 347.666 168.314 344.925 163.458C342.189 158.602 339.791 154.161 338.068 150.94C337.245 149.406 336.558 148.127 336.025 147.126C335.534 146.226 335.25 145.74 335.214 145.758Z" fill="white"/>
<path d="M369.951 221.467C369.951 221.455 369.868 221.425 369.69 221.366C369.483 221.301 369.228 221.224 368.914 221.123C368.186 220.91 367.185 220.62 365.912 220.247C363.248 219.495 359.458 218.423 354.751 217.097C345.224 214.461 332.02 210.802 317.099 206.668L317.312 206.905C316.886 204.306 316.436 201.564 315.974 198.775C314.861 192.042 313.789 185.558 312.806 179.607L312.54 179.932C325.229 179.571 336.135 180.465 343.85 181.075C347.675 181.401 350.731 181.655 352.88 181.839C353.898 181.916 354.704 181.981 355.29 182.028C355.539 182.04 355.746 182.052 355.912 182.064C356.054 182.07 356.125 182.07 356.125 182.058C356.125 182.052 356.054 182.034 355.918 182.011C355.752 181.987 355.55 181.963 355.302 181.928C354.716 181.863 353.916 181.768 352.898 181.649C350.802 181.419 347.741 181.093 343.88 180.726C336.171 180.015 325.258 179.044 312.522 179.37L312.202 179.376L312.255 179.695C313.232 185.653 314.292 192.137 315.4 198.87C315.861 201.653 316.311 204.395 316.738 206.994L316.767 207.178L316.945 207.225C331.884 211.281 345.112 214.876 354.645 217.464C359.37 218.719 363.177 219.732 365.853 220.442C367.138 220.774 368.151 221.034 368.885 221.218C369.205 221.295 369.465 221.354 369.672 221.407C369.856 221.461 369.945 221.479 369.951 221.467Z" fill="white"/>
<path d="M274.115 193.528C278.26 192.261 276.401 187.672 284.01 185.137C289.688 183.248 295.793 179.713 312.531 181.614L316.339 204.714L300.245 200.433L295.603 210.808C294.65 212.946 292.121 213.869 290.008 212.857L281.854 208.942C281.854 208.942 279.539 220.17 278.852 220.608C276.904 221.846 274.867 219.909 275.181 218.393C275.495 216.878 276.348 197.395 276.348 197.395C276.348 197.395 270.166 199.148 270.557 196.679C270.563 196.679 269.971 194.796 274.115 193.528Z" fill="#F4A286"/>
<path d="M286.384 211.056C286.514 211.02 285.857 209.297 286.278 207.154C286.657 205.005 287.894 203.631 287.782 203.554C287.746 203.518 287.385 203.809 286.953 204.412C286.52 205.011 286.059 205.958 285.851 207.077C285.644 208.196 285.739 209.244 285.922 209.961C286.106 210.677 286.337 211.08 286.384 211.056Z" fill="#F29170"/>
<path d="M282.791 202.168C282.743 202.139 282.489 202.423 282.21 202.98C281.938 203.53 281.683 204.371 281.648 205.318C281.618 206.272 281.82 207.118 282.056 207.693C282.293 208.267 282.53 208.569 282.578 208.539C282.702 208.486 282.009 207.13 282.086 205.336C282.128 203.536 282.909 202.228 282.791 202.168Z" fill="#F29170"/>
<path d="M194.754 227.004L172.881 169.812C171.798 166.94 173.87 164.157 176.931 164.068H246.972C248.956 164.015 250.738 165.27 251.348 167.159L268.939 220.993L314.757 223.883C315.633 223.895 316.332 224.605 316.332 225.476C316.332 226.34 315.639 227.051 314.774 227.069L194.754 227.004Z" fill="#424242"/>
<path d="M213.579 193.209C214.39 191.698 217.836 191.195 219.494 192.445C220.536 193.066 221.354 194.043 221.65 195.216C222.117 197.069 221.069 199.255 219.252 199.841C217.487 200.409 215.521 199.444 214.367 197.993C213.295 196.661 212.768 194.719 213.579 193.209Z" fill="white"/>
<path d="M278.53 23.4585C277.648 22.2564 275.682 23.3578 275.048 24.7079C274.415 26.0581 274.113 27.7872 272.769 28.4327C270.998 29.2795 268.298 27.7576 267.203 29.3861C266.362 30.6355 267.6 32.335 267.25 33.7977C266.623 36.4151 262.105 35.7755 260.826 38.1442C260.062 39.5535 260.862 41.259 261.465 42.7453C262.069 44.2316 262.306 46.2805 260.938 47.1273C259.6 47.9564 257.558 46.9971 256.427 48.0926C254.923 49.5552 257.173 52.0601 256.705 54.1031C256.361 55.6012 254.686 56.3414 253.182 56.673C251.684 57.0047 250.002 57.2356 249.008 58.4081C246.811 61.0018 250.026 65.0048 249.126 68.2854C248.581 70.2692 246.527 71.9391 247.012 73.9406C247.628 76.4928 251.779 76.8422 252.371 79.4063C252.874 81.5795 250.399 84.0666 251.761 85.8313C253.087 87.5486 256.054 85.9438 257.942 87.0156C260.121 88.2473 259.713 92.3273 262.146 92.9254C263.23 93.1919 264.361 92.5405 265.468 92.7004C268.15 93.0972 268.873 97.7338 271.585 97.5621C273.171 97.4614 274.415 95.5783 275.954 95.9632C277.458 96.3422 277.701 98.4977 279.004 99.3386C281.035 100.641 283.397 97.9411 285.813 97.8286C287.323 97.7575 288.779 98.7405 290.26 98.4622C291.675 98.1957 292.664 96.8219 292.966 95.4125C293.268 94.0032 293.031 92.5405 292.871 91.1075C291.983 83.2376 293.368 75.1249 296.82 67.9953" fill="#212121"/>
<path d="M286.206 108.174L286.437 95.7737C286.437 95.7737 274.115 93.9498 271.284 77.9673C269.875 70.0204 270.023 56.9395 270.527 46.245C271.083 34.4431 283.879 22.0313 293.477 22.8781L321.922 33.0338L321.91 38.2093L321.051 108.707C320.933 118.252 313.164 125.927 303.625 125.927C293.879 125.927 286.028 117.927 286.206 108.174Z" fill="#F4A286"/>
<path d="M275.482 57.3537C275.464 58.4373 276.37 59.3491 277.501 59.3906C278.632 59.432 279.567 58.5853 279.585 57.5018C279.603 56.4182 278.703 55.5004 277.566 55.4649C276.435 55.4235 275.505 56.2702 275.482 57.3537Z" fill="#212121"/>
<path d="M295.784 56.7794C295.767 57.8629 296.673 58.7748 297.804 58.8162C298.934 58.8577 299.87 58.011 299.888 56.9274C299.906 55.8439 299.006 54.9261 297.869 54.8846C296.738 54.8432 295.802 55.6899 295.784 56.7794Z" fill="#212121"/>
<path d="M287.499 69.5704C287.505 69.446 286.126 69.2328 283.893 68.9841C283.325 68.9368 282.792 68.8361 282.691 68.4512C282.549 68.0426 282.774 67.4327 283.041 66.7694C283.55 65.3956 284.077 63.9507 284.634 62.4407C286.842 56.2763 288.435 51.2073 288.186 51.1244C287.938 51.0356 285.942 55.9624 283.734 62.1269C283.201 63.6487 282.691 65.0936 282.212 66.4793C282.011 67.1247 281.655 67.859 281.957 68.6999C282.117 69.1203 282.538 69.4164 282.899 69.5112C283.26 69.6178 283.58 69.6177 283.858 69.6296C286.102 69.7125 287.493 69.6947 287.499 69.5704Z" fill="#212121"/>
<path d="M286.437 95.7737C286.437 95.7737 297.231 96.277 307.801 89.6685C307.801 89.6685 302.436 100.866 286.366 99.6524L286.437 95.7737Z" fill="#F29170"/>
<path d="M288.538 74.8879C289.313 73.8221 290.699 73.2181 292.084 73.3424C293.044 73.4313 294.026 73.8753 294.619 74.6451C295.217 75.4148 295.359 76.5221 294.844 77.28C294.263 78.1326 293.02 78.3458 291.954 78.0675C290.894 77.7833 289.97 77.1083 289.094 76.4333C288.851 76.2438 288.603 76.0484 288.449 75.7879C288.295 75.5273 288.259 75.1839 288.437 74.9648" fill="#E57373"/>
<path d="M294.043 70.9857C293.681 70.9679 293.723 73.3719 291.698 75.1127C289.679 76.8594 287.115 76.6344 287.103 76.9719C287.073 77.1199 287.683 77.4278 288.761 77.4397C289.821 77.4574 291.36 77.0903 292.604 76.0245C293.841 74.9587 294.35 73.5554 294.416 72.5666C294.481 71.56 294.202 70.9679 294.043 70.9857Z" fill="#212121"/>
<path d="M293.746 48.5246C293.977 49.1227 296.18 48.797 298.779 49.0635C301.384 49.2766 303.492 49.999 303.824 49.4543C303.972 49.1937 303.599 48.6371 302.74 48.0687C301.894 47.5003 300.544 46.9733 298.98 46.8253C297.417 46.6832 295.996 46.9556 295.061 47.3582C294.119 47.7549 293.646 48.2404 293.746 48.5246Z" fill="#212121"/>
<path d="M273.428 50.7393C273.825 51.2367 275.341 50.686 277.171 50.6268C279 50.5024 280.557 50.9051 280.907 50.3722C281.061 50.1116 280.806 49.6143 280.119 49.1524C279.444 48.6906 278.319 48.3235 277.058 48.3827C275.803 48.4478 274.719 48.9215 274.092 49.4426C273.452 49.9755 273.251 50.4965 273.428 50.7393Z" fill="#212121"/>
<path d="M279.28 25.9277C279.28 26.1113 279.831 26.2652 280.512 26.2652C281.193 26.2652 281.743 26.1172 281.743 25.9277C281.743 25.7442 281.193 25.5902 280.512 25.5902C279.831 25.5902 279.28 25.7382 279.28 25.9277Z" fill="#212121"/>
<path d="M280.322 29.0248C276.201 20.8174 285.586 13.9601 290.068 11.7158C294.551 9.4715 300.17 9.32938 304.48 11.8816C306.446 13.0423 308.163 14.7418 310.378 15.3043C315.494 16.5953 321.006 11.3664 325.761 13.6403C329.675 15.5116 330.332 21.374 334.263 23.2157C336.158 24.1039 338.361 23.8197 340.439 24.0447C342.517 24.2697 344.856 25.3948 345.129 27.4733C345.425 29.7828 342.991 32.2107 344.223 34.1885C345.733 36.6223 350.197 34.3543 352.127 36.4683C353.933 38.4402 351.808 42.4314 354.01 43.9474C355.621 45.0547 358.35 43.7223 359.535 45.2738C360.802 46.9378 358.439 49.0222 358.191 51.1007C357.936 53.2384 359.961 54.8728 361.678 56.1697C363.395 57.4724 365.201 59.5272 364.372 61.5169C363.419 63.8086 359.659 64.0159 359.014 66.4082C358.344 68.8775 361.666 71.6015 360.174 73.68C359.179 75.0657 356.9 74.6689 355.633 75.8059C353.525 77.7008 356.083 81.3426 355.041 83.9837C353.608 87.6255 347.361 86.0326 344.963 89.1237C343.631 90.8409 343.82 93.6774 341.931 94.7492C339.989 95.8566 337.591 94.1156 335.371 94.3821C331.753 94.8084 329.532 100.292 326.051 99.226C324.269 98.6812 322.96 96.4369 321.148 96.881C319.585 97.2659 318.975 99.4984 317.382 99.7471C315.233 100.085 314.635 96.9462 313.35 95.1874C311.639 92.8484 307.885 92.7181 306.298 90.2902C304.877 88.1051 305.901 85.1976 307.157 82.9118C308.406 80.6261 309.91 78.1272 309.3 75.5927C308.607 72.7088 305.28 70.204 306.446 67.4741C307.725 64.4896 313.297 64.7975 313.688 61.5761C314.055 58.5324 308.951 56.8033 309.531 53.7951C309.922 51.7758 312.693 50.9705 313.214 48.9808C313.818 46.6654 311.011 44.6876 311.053 42.2952C311.076 40.7615 312.243 39.5357 313.078 38.2507C313.913 36.9657 314.363 35.0471 313.196 34.0582C311.337 32.4771 308.536 35.361 306.197 34.6622C304.563 34.1707 303.965 32.2343 303.391 30.6296C303.391 30.6296 299.068 24.0743 291.336 25.0158C283.597 25.9574 280.322 29.0248 280.322 29.0248Z" fill="#212121"/>
<path d="M280.208 26.0641C278.662 27.6275 279.379 30.7304 281.451 31.4528C283.382 32.1279 285.412 30.9199 287.118 29.7889C288.823 28.6578 290.925 27.5149 292.808 28.3144C296.266 29.7829 295.283 36.0244 298.776 37.3923C300.209 37.9548 301.802 37.3982 303.306 37.0725C304.81 36.7468 306.675 36.8001 307.516 38.0851C308.641 39.8142 307.125 42.5915 308.635 43.9949C309.263 44.5812 310.246 44.6937 310.814 45.3391C311.732 46.3754 311.003 48.0512 309.991 48.9987C308.978 49.9462 307.658 50.6864 307.161 51.9832C306.373 54.044 308.102 56.1876 309.867 57.5141C311.631 58.8405 313.745 60.1847 314.13 62.358C314.751 65.8636 310.399 69.2449 311.874 72.484C312.703 74.3138 315.178 74.9356 317.055 74.2368C318.938 73.5381 320.288 71.8622 321.259 70.1035C325.232 62.8968 324.13 54.0676 322.792 45.9491C321.91 40.6255 320.898 35.1183 317.783 30.7126C314.556 26.1411 309.411 23.275 304.129 21.4275C300.091 20.0122 295.786 19.1003 291.541 19.6273C287.295 20.1543 283.109 22.2743 280.818 25.8865" fill="#212121"/>
<path d="M326.242 98.7583C326.242 98.7583 326.325 98.8412 326.526 98.9182C326.722 99.007 327.095 99.0307 327.474 98.8175C327.853 98.6162 328.243 98.2076 328.463 97.6154C328.575 97.3193 328.634 96.9699 328.575 96.6028C328.51 96.2297 328.338 95.8803 328.107 95.5428C327.628 94.8737 326.876 94.3466 326.047 93.8551C325.218 93.3696 324.3 92.8662 323.619 92.0076C323.282 91.5871 323.045 91.072 323.027 90.5212C323.033 89.9646 323.264 89.4198 323.649 88.9461C324.034 88.4724 324.531 88.0519 325.028 87.59C325.52 87.1341 326.059 86.6366 326.372 85.932C326.71 85.2391 326.627 84.3331 326.171 83.664C325.715 82.9948 325.028 82.5685 324.359 82.1776C323.684 81.7868 322.98 81.4433 322.34 80.9992C321.707 80.561 321.144 79.9866 321.002 79.2523C320.83 78.5121 321.18 77.766 321.742 77.1738C322.305 76.5757 323.009 76.0665 323.702 75.498C324.383 74.9236 325.099 74.2841 325.514 73.3781C325.934 72.4661 325.822 71.3469 325.342 70.4824C324.88 69.6 324.176 68.8954 323.43 68.2677C322.666 67.64 321.855 67.1307 321.138 66.4971C320.422 65.8753 319.759 65.1529 319.451 64.2824C319.137 63.4178 319.303 62.4467 319.8 61.6236C320.291 60.7886 321.002 60.0602 321.695 59.2845C322.382 58.5147 323.116 57.662 323.394 56.525C323.501 55.9506 323.465 55.3585 323.264 54.8018C323.045 54.2629 322.695 53.7774 322.275 53.4043C321.44 52.6463 320.451 52.1608 319.545 51.61C318.639 51.0712 317.757 50.4553 317.337 49.5848C316.899 48.7084 317.094 47.684 317.591 46.8194C318.083 45.9371 318.782 45.191 319.462 44.3856C320.126 43.5625 320.712 42.6387 320.931 41.5551C321.032 41.0162 321.008 40.43 320.795 39.9029C320.593 39.37 320.185 38.9495 319.735 38.6357C318.776 38.0554 317.716 37.9962 316.745 37.9251C315.768 37.86 314.797 37.8422 313.938 37.5757C313.068 37.3329 312.387 36.7348 312.15 35.8881C311.884 35.0531 311.901 34.1116 311.664 33.1819C311.457 32.2344 310.77 31.3757 309.93 30.9612C308.23 30.0611 306.359 30.3158 304.755 30.3572C303.937 30.375 303.138 30.3395 302.398 30.1263C301.658 29.9131 300.995 29.5341 300.403 29.0663C299.218 28.1307 298.306 26.9523 297.329 25.9219C296.37 24.8797 295.293 23.9559 294.067 23.4703C292.859 22.9729 291.598 22.8308 290.461 22.9433C288.146 23.1624 286.417 24.4474 285.475 25.7206C284.504 27.0115 284.167 28.255 284.048 29.0781C283.936 29.9131 284.007 30.3513 284.007 30.3513C284.037 30.3513 284.013 29.9131 284.167 29.0959C284.315 28.2965 284.688 27.0885 285.653 25.8627C286.595 24.6487 288.27 23.4526 290.485 23.2749C291.574 23.1861 292.776 23.3341 293.919 23.8197C295.068 24.2934 296.08 25.1758 297.022 26.2121C297.975 27.2365 298.881 28.4327 300.118 29.4275C300.734 29.919 301.456 30.3395 302.262 30.5822C303.067 30.825 303.92 30.8606 304.76 30.8487C306.418 30.8073 308.177 30.6059 309.681 31.4172C310.421 31.8021 310.96 32.4713 311.149 33.3121C311.362 34.1471 311.333 35.0886 311.629 36.0539C311.889 37.0428 312.795 37.8481 313.772 38.1027C314.749 38.4048 315.744 38.4107 316.709 38.4817C317.668 38.5469 318.663 38.6357 319.427 39.1094C319.782 39.3641 320.108 39.6957 320.262 40.1102C320.422 40.5188 320.445 40.9807 320.363 41.4426C320.173 42.3663 319.634 43.2368 319.007 44.0126C318.355 44.7883 317.615 45.57 317.076 46.5293C316.81 47.0089 316.597 47.5419 316.52 48.1163C316.443 48.6966 316.561 49.2947 316.798 49.8276C317.325 50.9054 318.314 51.5508 319.232 52.1075C320.161 52.67 321.12 53.1556 321.866 53.8307C322.245 54.1623 322.518 54.5709 322.701 55.0032C322.861 55.4473 322.891 55.9329 322.808 56.3947C322.583 57.3244 321.926 58.1298 321.251 58.8878C320.57 59.6517 319.836 60.4037 319.291 61.3275C318.728 62.2276 318.515 63.4415 318.9 64.46C319.267 65.4904 320.007 66.2602 320.759 66.9116C321.511 67.5748 322.352 68.0959 323.063 68.6822C323.779 69.2743 324.436 69.9435 324.845 70.7252C325.271 71.495 325.348 72.3891 325.011 73.153C324.667 73.9169 324.016 74.5269 323.353 75.0894C322.684 75.652 321.967 76.1671 321.351 76.8245C320.741 77.4521 320.28 78.4233 320.499 79.3352C320.688 80.259 321.381 80.9222 322.05 81.3782C322.737 81.846 323.453 82.1836 324.111 82.5625C324.768 82.9356 325.401 83.3442 325.786 83.9008C326.165 84.4456 326.242 85.1681 325.97 85.7543C325.407 86.9564 324.134 87.6611 323.335 88.7033C322.92 89.2185 322.648 89.8699 322.654 90.5212C322.678 91.1785 322.974 91.7589 323.341 92.2089C324.081 93.1208 325.058 93.6301 325.887 94.092C326.716 94.5598 327.444 95.0513 327.906 95.6672C328.391 96.2771 328.498 96.9877 328.285 97.5443C328.095 98.101 327.746 98.5036 327.403 98.705C327.059 98.9182 326.728 98.9122 326.532 98.8471C326.343 98.8056 326.248 98.7464 326.242 98.7583Z" fill="#424242"/>
<path d="M353.324 84.7418C353.324 84.7181 353.194 84.7359 352.975 84.647C352.756 84.57 352.478 84.3095 352.359 83.8595C352.247 83.4153 352.253 82.8113 352.513 82.1895C352.791 81.5855 353.395 81.023 353.916 80.2768C354.171 79.9038 354.426 79.4537 354.485 78.9208C354.556 78.3878 354.355 77.8134 353.999 77.3634C353.289 76.4574 352.116 75.954 351.394 74.9651C351.051 74.4736 350.92 73.8341 351.086 73.2182C351.252 72.5965 351.66 72.028 352.105 71.4654C352.555 70.9029 353.058 70.3521 353.508 69.7067C353.946 69.0731 354.349 68.2796 354.289 67.3913C354.254 66.5031 353.662 65.6918 352.922 65.2181C352.182 64.7206 351.323 64.4423 350.441 64.2647C349.553 64.1048 348.67 64.0337 347.794 63.8265C346.93 63.6251 346.059 63.2995 345.473 62.6481C344.887 61.9908 344.68 61.0729 344.786 60.1432C344.893 59.2076 345.218 58.272 345.514 57.3067C345.799 56.3415 346.136 55.3171 346.035 54.1979C346.018 53.6412 345.787 53.0905 345.491 52.6049C345.165 52.1312 344.709 51.7463 344.2 51.4917C342.157 50.4554 339.765 50.9291 337.983 49.7329C337.551 49.4546 337.201 49.0638 337.012 48.6078C336.84 48.14 336.804 47.6248 336.923 47.1096C337.166 46.0674 337.793 45.0963 338.285 44.0185C338.528 43.4797 338.752 42.8934 338.782 42.242C338.812 41.5907 338.569 40.9097 338.107 40.43C337.13 39.4589 335.81 39.3582 334.685 39.0858C333.554 38.8608 332.316 38.4877 332.05 37.4277C331.789 36.4033 332.494 35.2012 332.417 33.8747C332.34 31.2692 330.534 28.9005 328.136 28.0893C325.649 27.2839 323.239 28.4327 321.09 27.8939C320.024 27.6629 319.017 27.0471 318.68 26.0641C318.325 25.0811 318.52 23.9382 318.443 22.7894C318.402 22.215 318.266 21.5991 317.934 21.078C317.596 20.5628 317.081 20.1779 316.525 19.9707C315.406 19.5621 314.233 19.6568 313.173 19.9351C312.119 20.2135 311.148 20.6161 310.16 20.8056C309.177 21.0129 308.194 20.9181 307.312 20.5155C305.541 19.7042 304.268 18.129 302.77 16.9388C299.709 14.4931 295.801 13.972 292.633 14.6412C289.394 15.257 286.854 17.146 285.297 19.1949C283.71 21.2557 282.958 23.423 282.632 25.1995C282.307 26.9878 282.372 28.415 282.484 29.3565C282.597 30.304 282.757 30.7777 282.757 30.7777C282.792 30.7718 282.674 30.2862 282.603 29.3447C282.526 28.409 282.496 26.9997 282.857 25.2469C283.213 23.5059 283.988 21.3919 285.557 19.4022C287.103 17.4244 289.572 15.6242 292.716 15.0557C295.795 14.4339 299.561 14.9728 302.468 17.3237C303.919 18.4784 305.174 20.0891 307.104 20.9951C308.058 21.4452 309.206 21.5577 310.26 21.3386C311.314 21.1372 312.303 20.7346 313.31 20.474C314.292 20.2135 315.382 20.1483 316.323 20.5036C316.791 20.6813 317.194 20.9833 317.46 21.3919C317.721 21.8064 317.845 22.3097 317.875 22.8427C317.958 23.9027 317.727 25.0751 318.135 26.2772C318.562 27.5089 319.787 28.2314 320.954 28.4742C323.375 29.0308 325.762 27.9057 327.947 28.6637C330.09 29.3743 331.76 31.5712 331.819 33.9043C331.848 34.4906 331.73 35.0413 331.588 35.6453C331.452 36.2375 331.304 36.9007 331.475 37.5876C331.659 38.2627 332.174 38.8312 332.766 39.1095C333.352 39.4056 333.962 39.5418 334.554 39.672C335.709 39.9267 336.947 40.0865 337.681 40.8445C338.036 41.2176 338.22 41.7268 338.196 42.2361C338.178 42.7572 337.983 43.2842 337.752 43.7935C337.29 44.8239 336.639 45.8128 336.36 47.003C336.218 47.5952 336.254 48.2525 336.479 48.8388C336.722 49.425 337.166 49.8987 337.663 50.2185C338.67 50.8699 339.824 51.1008 340.908 51.243C341.979 51.391 343.045 51.5331 343.939 51.995C344.845 52.4273 345.431 53.3037 345.491 54.2689C345.585 55.2342 345.283 56.2231 344.999 57.1765C344.709 58.1358 344.378 59.0951 344.265 60.1136C344.147 61.1203 344.389 62.2336 345.094 62.9974C345.799 63.7673 346.77 64.1048 347.67 64.3061C348.576 64.5134 349.493 64.5785 350.334 64.7266C351.175 64.8865 351.986 65.1529 352.655 65.5971C353.324 66.0293 353.81 66.6926 353.845 67.4387C353.899 68.1789 353.567 68.8895 353.153 69.4994C352.732 70.1212 352.235 70.6719 351.785 71.2522C351.335 71.8266 350.903 72.4366 350.719 73.1472C350.53 73.8578 350.701 74.6276 351.098 75.1724C351.927 76.2501 353.099 76.7239 353.757 77.5529C354.088 77.9556 354.266 78.4411 354.212 78.9089C354.171 79.3768 353.952 79.7972 353.709 80.1643C353.218 80.9045 352.626 81.4612 352.33 82.1362C352.063 82.8054 352.087 83.439 352.223 83.9068C352.365 84.3806 352.691 84.653 352.934 84.7181C353.194 84.7832 353.324 84.7418 353.324 84.7418Z" fill="#424242"/>
<path d="M259.132 85.5589C259.109 85.5174 258.943 85.8017 258.451 85.8372C257.984 85.8787 257.232 85.5411 256.77 84.7417C256.296 83.9363 256.563 82.7342 256.693 81.3782C256.764 80.6854 256.657 79.9037 256.403 79.1694C256.166 78.4233 255.828 77.6772 255.668 76.8659C255.485 76.0665 255.68 75.196 256.332 74.6157C256.983 74.0413 257.913 73.7452 258.866 73.455C259.801 73.1352 260.92 72.9457 261.761 72.0397C262.158 71.5778 262.336 70.9205 262.223 70.3047C262.111 69.677 261.744 69.1618 261.353 68.7295C260.589 67.859 259.576 67.1721 259.203 66.1714C258.789 65.1529 259.547 64.0988 260.583 63.5777C261.59 62.9915 262.874 62.8908 264.1 62.3401C264.704 62.0677 265.314 61.6591 265.711 61.061C266.113 60.4747 266.297 59.7464 266.291 59.0535C266.285 57.6501 265.758 56.3829 265.19 55.24C264.633 54.103 264.076 52.9779 263.934 51.8173C263.763 50.6566 264.23 49.5552 265.018 48.7439C265.799 47.9149 266.776 47.2695 267.623 46.47C268.488 45.6943 269.145 44.6462 269.399 43.5625C269.684 42.4788 269.696 41.407 269.684 40.3944C269.642 38.3811 269.506 36.492 270.074 34.911C270.607 33.324 271.561 32.0745 272.555 31.1862C273.544 30.2802 274.592 29.7414 275.469 29.4038C277.257 28.7465 278.358 28.8886 278.346 28.8117C278.346 28.7939 278.08 28.7761 277.571 28.7702C277.067 28.8117 276.303 28.8649 275.386 29.1847C274.474 29.4986 273.378 30.0256 272.33 30.9375C271.282 31.8317 270.258 33.1108 269.672 34.7748C269.038 36.4506 269.169 38.4107 269.186 40.4003C269.186 41.3952 269.163 42.4315 268.89 43.4322C268.636 44.4389 268.067 45.339 267.244 46.0733C266.439 46.8253 265.45 47.4649 264.597 48.359C263.727 49.2177 263.141 50.5737 263.348 51.8824C263.674 54.4998 265.705 56.5072 265.687 59.0476C265.693 59.6576 265.539 60.2497 265.213 60.7294C264.894 61.215 264.396 61.5584 263.851 61.8071C262.756 62.3164 261.447 62.417 260.293 63.0743C259.73 63.3882 259.192 63.8086 258.842 64.3949C258.475 64.9752 258.428 65.7391 258.659 66.3609C259.162 67.6163 260.228 68.2736 260.938 69.0967C261.299 69.4994 261.601 69.9375 261.684 70.4054C261.773 70.8732 261.637 71.3647 261.347 71.7141C260.719 72.4306 259.642 72.6852 258.706 72.9931C257.753 73.2951 256.764 73.6031 256.006 74.284C255.633 74.6275 255.361 75.0775 255.242 75.5513C255.124 76.0309 255.153 76.5106 255.242 76.9488C255.432 77.8252 255.787 78.5654 256.03 79.2878C256.29 80.0044 256.397 80.6913 256.349 81.3604C256.261 82.6691 255.988 83.9482 256.557 84.8601C257.095 85.7188 257.924 86.0445 258.451 85.9556C259.008 85.8668 259.138 85.5352 259.132 85.5589Z" fill="#424242"/>
<g opacity="0.3">
<path d="M337.433 150.164V180.376L345.249 180.992L348.121 170.156L337.433 150.164Z" fill="#212121"/>
</g>
</g>
<defs>
<clipPath id="clip0_785_3658">
<rect width="472" height="204" rx="16" fill="white"/>
</clipPath>
</defs>
</svg>
