<svg width="472" height="204" viewBox="0 0 472 204" fill="none" xmlns="http://www.w3.org/2000/svg">
<g clip-path="url(#clip0_785_4395)">
<rect width="472" height="204" rx="16" fill="#E3F2FD"/>
<path d="M162.511 200.999H122.268C119.49 200.999 117.232 198.747 117.232 195.963V140.265C117.232 137.487 119.484 135.229 122.268 135.229H147.791L167.547 155.589V195.957C167.547 198.741 165.295 200.999 162.511 200.999Z" fill="#F5F7FB"/>
<path d="M147.792 135.229V150.906C147.792 153.492 149.889 155.589 152.475 155.589H167.548L147.792 135.229Z" fill="#D8E1ED"/>
<path d="M143.664 149.693H125.801C125.528 149.693 125.306 149.471 125.306 149.198V149.124C125.306 148.852 125.528 148.629 125.801 148.629H143.664C143.936 148.629 144.158 148.852 144.158 149.124V149.198C144.152 149.471 143.936 149.693 143.664 149.693Z" fill="#D8E1ED"/>
<path d="M158.977 159.165H125.801C125.528 159.165 125.306 158.942 125.306 158.67V158.596C125.306 158.324 125.528 158.101 125.801 158.101H158.977C159.249 158.101 159.472 158.324 159.472 158.596V158.67C159.472 158.948 159.249 159.165 158.977 159.165Z" fill="#D8E1ED"/>
<path d="M158.977 168.643H125.801C125.528 168.643 125.306 168.42 125.306 168.148V168.074C125.306 167.801 125.528 167.579 125.801 167.579H158.977C159.249 167.579 159.472 167.801 159.472 168.074V168.148C159.472 168.42 159.249 168.643 158.977 168.643Z" fill="#D8E1ED"/>
<path d="M158.977 178.121H125.801C125.528 178.121 125.306 177.898 125.306 177.626V177.551C125.306 177.279 125.528 177.057 125.801 177.057H158.977C159.249 177.057 159.472 177.279 159.472 177.551V177.626C159.472 177.898 159.249 178.121 158.977 178.121Z" fill="#D8E1ED"/>
<path d="M158.977 187.599H125.801C125.528 187.599 125.306 187.376 125.306 187.104V187.029C125.306 186.757 125.528 186.534 125.801 186.534H158.977C159.249 186.534 159.472 186.757 159.472 187.029V187.104C159.472 187.376 159.249 187.599 158.977 187.599Z" fill="#D8E1ED"/>
<path d="M139.779 190.141H110.822C109.381 190.141 108.211 188.972 108.211 187.531V177.397C108.211 175.955 109.381 174.786 110.822 174.786H139.779C141.221 174.786 142.39 175.955 142.39 177.397V187.531C142.39 188.972 141.221 190.141 139.779 190.141Z" fill="#1976D2"/>
<path d="M101.776 198.203V243.39C101.776 244.998 103.082 246.304 104.691 246.304H186.852C188.807 246.304 190.391 244.72 190.391 242.765L190.787 195.289H104.691C103.082 195.289 101.776 196.588 101.776 198.203Z" fill="#1FB767"/>
<path d="M167.554 195.369V246.322H187.286C189 246.322 190.385 244.924 190.385 243.197L190.781 195.282L167.554 195.369Z" fill="#212121"/>
<path d="M221.441 50.77L220.68 112.079C220.55 122.503 222.492 137.846 238.988 137.302C253.262 135.749 257.055 122.237 257.16 112.506C257.21 107.891 257.265 104.043 257.302 103.566C257.302 103.566 272.932 102.292 274.25 86.8563C274.887 79.3953 274.949 63.9289 274.844 49.9348C274.732 34.9015 263.075 22.4912 248.077 21.3962L246.586 21.2848C230.443 21.0497 221.224 34.6293 221.441 50.77Z" fill="#F4A286"/>
<path d="M257.309 103.566C257.309 103.566 247.527 103.424 237.627 96.1485C237.627 96.1485 241.711 107.792 257.229 107.526L257.309 103.566Z" fill="#F29170"/>
<path d="M247.904 61.6092C247.861 62.7167 246.895 63.5891 245.738 63.5706C244.588 63.5458 243.684 62.6363 243.728 61.5288C243.771 60.4212 244.736 59.5488 245.893 59.5674C247.044 59.5921 247.947 60.5078 247.904 61.6092Z" fill="#212121"/>
<path d="M254.933 74.2481C254.933 74.112 256.424 73.9635 258.837 73.8336C259.449 73.8151 260.031 73.7346 260.161 73.3325C260.334 72.9056 260.13 72.2313 259.889 71.5075C259.425 69.9979 258.942 68.4204 258.435 66.7624C256.424 60.0066 255.019 54.4758 255.292 54.3954C255.564 54.315 257.414 59.7282 259.425 66.484C259.907 68.1481 260.365 69.7381 260.804 71.2538C260.984 71.9591 261.318 72.7695 260.947 73.6542C260.749 74.0934 260.279 74.3904 259.883 74.4646C259.487 74.5574 259.146 74.5389 258.843 74.5327C256.424 74.4832 254.926 74.3842 254.933 74.2481Z" fill="#212121"/>
<path d="M247.354 50.0031C247.106 50.5785 245.033 50.1454 242.552 50.2691C240.071 50.3434 238.036 50.9436 237.745 50.3929C237.615 50.1268 238.005 49.6009 238.846 49.0874C239.681 48.5738 240.987 48.1283 242.478 48.0664C243.963 48.0046 245.299 48.3511 246.166 48.7904C247.038 49.2359 247.459 49.7308 247.354 50.0031Z" fill="#212121"/>
<path d="M271.912 54.7916C271.639 55.2618 269.622 54.7421 267.178 54.6617C264.734 54.5441 262.705 54.8968 262.445 54.408C262.334 54.1729 262.736 53.7583 263.59 53.3871C264.437 53.0158 265.743 52.7312 267.209 52.7869C268.676 52.8488 269.969 53.2324 270.804 53.6717C271.639 54.1172 272.035 54.5688 271.912 54.7916Z" fill="#212121"/>
<path d="M221.868 62.3019C221.614 62.1658 211.48 58.3858 211.046 68.971C210.613 79.5562 221.33 77.8116 221.361 77.5085C221.392 77.2053 221.868 62.3019 221.868 62.3019Z" fill="#F4A286"/>
<path d="M218.292 73.3634C218.248 73.3263 218.1 73.4871 217.784 73.6171C217.475 73.7408 216.949 73.8212 216.405 73.5861C215.303 73.1283 214.437 71.3156 214.462 69.404C214.474 68.4389 214.715 67.5295 215.087 66.7871C215.439 66.0261 215.965 65.5065 216.535 65.426C217.098 65.3209 217.487 65.6735 217.605 65.9766C217.735 66.2798 217.661 66.4839 217.716 66.5087C217.747 66.5334 217.951 66.3416 217.883 65.9024C217.846 65.692 217.735 65.4384 217.494 65.2219C217.246 65.0053 216.881 64.8816 216.485 64.9125C215.668 64.9373 214.901 65.6549 214.493 66.4777C214.041 67.3006 213.744 68.3213 213.732 69.404C213.713 71.5384 214.722 73.5799 216.238 74.0872C216.974 74.31 217.605 74.112 217.933 73.8769C218.261 73.6171 218.329 73.3881 218.292 73.3634Z" fill="#F29170"/>
<path d="M252.433 81.5793C252.551 81.3133 250.472 80.6884 249.018 78.7458C248.288 77.7869 247.867 76.7414 247.551 75.9804C247.242 75.2133 247.007 74.7307 246.896 74.7679C246.79 74.7988 246.815 75.3247 246.982 76.1598C247.162 76.9888 247.521 78.1705 248.343 79.2593C249.154 80.3605 250.249 81.0163 251.047 81.3318C251.858 81.6473 252.402 81.6721 252.433 81.5793Z" fill="#212121"/>
<path d="M295.342 36.0832C295.175 35.4645 294.723 34.951 294.167 34.6231C292.96 33.9117 291.568 34.0045 290.219 33.9859C286.123 33.9179 282.058 32.6682 278.612 30.4596C276.997 28.1334 275.184 25.9434 273.21 23.9142C268.532 19.0886 264.684 15.8098 260.699 14.2012C255.545 12.1287 246.932 11.2874 241.562 12.6979C236.191 14.1085 231.365 18.4638 230.623 23.9637C227.609 21.4148 223.086 21.4395 219.417 22.9119L219.325 22.8748C215.241 24.3287 212.921 28.6469 211.714 32.8105C210.508 36.974 209.994 41.4284 207.785 45.1651C207.321 45.9446 206.777 46.8787 207.179 47.6954C207.488 48.3264 208.286 48.5801 208.986 48.4811C209.678 48.3821 210.297 47.9985 210.885 47.6211C210.427 48.71 209.975 49.805 209.518 50.8938C210.996 51.1537 212.525 51.0299 213.96 50.5969C214.826 54.4944 215.86 58.9426 216.868 61.5842C218.576 61.5781 220.141 61.7018 221.193 62.6483C222.622 63.9351 223.266 66.3541 225.642 65.4385C226.855 64.9683 227.956 62.4318 228.364 61.2007C231.05 53.022 231.947 44.2556 230.975 35.7058C232.664 33.8993 234.712 32.4269 236.952 31.3876L236.767 31.5546C241.079 30.0574 245.961 28.585 250.051 30.6081C253.225 32.1794 255.094 35.4707 257.463 38.1C261.962 43.0802 268.031 45.7899 274.738 46.0807C274.967 50.4237 274.602 56.5669 274.831 60.9161L278.488 53.9562V53.9933C278.785 53.486 279.032 52.9725 279.274 52.4529L279.354 52.2982V52.2796C279.732 51.4506 280.097 50.6278 280.579 49.805C280.592 49.8174 280.604 49.8297 280.623 49.8421C282.98 51.9208 286.445 48.7409 284.589 46.2106C284.217 45.7095 283.778 45.2579 283.277 44.8929C284.353 45.9013 285.956 46.39 287.367 45.957C288.777 45.5239 289.873 44.0948 289.749 42.6224C289.662 41.6202 288.944 40.7231 288.041 40.321C289.941 40.4695 291.89 40.055 293.548 39.1084C294.643 38.4712 295.707 37.4504 295.342 36.0832Z" fill="#212121"/>
<path d="M235.48 25.7331C235.511 25.7702 234.831 26.1414 233.933 27.1498C233.042 28.152 232.04 29.9028 231.564 32.2785C231.322 33.4601 231.168 34.7778 231.168 36.2007C231.161 37.6237 231.273 39.1455 231.384 40.7479C231.489 42.3502 231.601 44.0453 231.502 45.8085C231.452 46.687 231.347 47.584 231.155 48.4811C230.963 49.3596 230.728 50.3185 230.066 51.0733C229.54 51.6919 228.656 51.9641 227.888 51.8033C227.115 51.6672 226.428 51.2589 225.927 50.6959C224.931 49.539 224.683 48.0666 224.436 46.7674L224.758 46.8045C224.225 47.9676 223.687 49.1183 222.877 50.0401C222.085 50.9619 220.989 51.5744 219.87 51.6734C219.313 51.7229 218.756 51.6362 218.279 51.395C217.791 51.1599 217.438 50.7577 217.197 50.3309C216.968 49.8978 216.844 49.4214 216.869 48.9636C216.893 48.5058 217.073 48.0728 217.364 47.7634L217.525 47.9119C216.337 49.2668 215.074 49.9968 214.208 50.3989C213.769 50.6031 213.416 50.7206 213.181 50.8011C212.94 50.8753 212.816 50.9 212.81 50.8939C212.804 50.8815 212.927 50.832 213.156 50.7454C213.385 50.6526 213.726 50.5103 214.152 50.2999C214.994 49.8669 216.213 49.1183 217.351 47.7758L217.512 47.9243C216.992 48.4749 216.961 49.44 217.407 50.2195C217.63 50.6031 217.958 50.9619 218.385 51.1599C218.812 51.3702 219.319 51.4445 219.826 51.395C220.847 51.296 221.874 50.7206 222.617 49.8421C223.378 48.9636 223.904 47.8439 224.423 46.6746L224.646 46.1797L224.751 46.7117C224.999 48.0047 225.265 49.4153 226.168 50.4608C226.62 50.9619 227.245 51.3331 227.925 51.4506C228.6 51.5806 229.318 51.3578 229.775 50.832C230.357 50.1762 230.592 49.273 230.784 48.4069C230.97 47.5345 231.075 46.656 231.13 45.7899C231.236 44.0577 231.13 42.3749 231.038 40.7664C230.939 39.1641 230.834 37.636 230.852 36.1946C230.864 34.7531 231.032 33.4168 231.298 32.2166C231.811 29.81 232.869 28.0406 233.81 27.0508C234.775 26.0609 235.48 25.7331 235.48 25.7331Z" fill="#424242"/>
<path d="M283.246 40.7539C283.252 40.7601 283.209 40.7972 283.122 40.8591C283.017 40.9333 282.894 41.0261 282.739 41.1375C282.572 41.2612 282.355 41.4097 282.083 41.5582C281.817 41.7128 281.514 41.8984 281.142 42.0531C279.707 42.7336 277.412 43.4142 274.534 43.2409C271.688 43.0801 268.267 42.0717 265.216 39.8012C262.129 37.5802 259.425 34.3137 257.21 30.577C256.084 28.7087 255.174 26.7908 254.159 25.0215C253.157 23.2521 252.05 21.6127 250.707 20.3197C249.383 19.0205 247.842 18.0616 246.258 17.6223C245.466 17.3872 244.674 17.3316 243.913 17.3501C243.152 17.3934 242.428 17.5419 241.766 17.7646C240.436 18.21 239.359 18.9462 238.549 19.701C237.732 20.462 237.181 21.2724 236.804 21.9591C236.099 23.3758 236.062 24.2914 236.006 24.2729C236 24.2729 236.006 24.2172 236.018 24.112C236.037 23.9821 236.062 23.8275 236.092 23.6419C236.167 23.2274 236.346 22.6273 236.68 21.8972C237.045 21.1858 237.584 20.3506 238.407 19.5525C239.229 18.7668 240.318 17.9935 241.68 17.5171C242.36 17.2821 243.109 17.115 243.895 17.0655C244.68 17.0408 245.516 17.0903 246.333 17.3254C247.978 17.7708 249.568 18.7545 250.936 20.0722C252.316 21.3899 253.448 23.0541 254.463 24.8359C255.484 26.6176 256.399 28.5293 257.513 30.3852C259.71 34.0972 262.376 37.3266 265.402 39.529C268.397 41.7809 271.738 42.7893 274.541 42.9873C277.368 43.1852 279.639 42.5604 281.074 41.9232C282.535 41.286 283.221 40.7106 283.246 40.7539Z" fill="#424242"/>
<path d="M284.651 33.9736C284.663 33.9921 284.465 34.1282 284.094 34.3572C283.729 34.5923 283.166 34.8831 282.454 35.1925C281.743 35.508 280.858 35.7988 279.855 36.0463C278.853 36.2752 277.727 36.4423 276.533 36.4856C275.345 36.5166 274.206 36.4237 273.192 36.2567C272.177 36.0773 271.28 35.8421 270.543 35.5699C269.813 35.31 269.232 35.0563 268.854 34.846C268.471 34.6418 268.266 34.518 268.279 34.4995C268.31 34.4376 269.164 34.8769 270.624 35.3348C271.354 35.5699 272.245 35.7741 273.241 35.9349C274.243 36.0773 275.351 36.1577 276.52 36.1267C277.684 36.0834 278.791 35.9288 279.781 35.7246C280.765 35.5018 281.644 35.242 282.355 34.9573C283.797 34.4067 284.62 33.9117 284.651 33.9736Z" fill="#424242"/>
<path d="M269.393 62.3639C269.349 63.4715 268.384 64.3439 267.227 64.3253C266.076 64.3006 265.173 63.391 265.216 62.2835C265.26 61.176 266.225 60.3036 267.382 60.3221C268.533 60.3469 269.436 61.2564 269.393 62.3639Z" fill="#212121"/>
<path d="M365.852 118.81C365.852 114.325 361.564 114.325 361.564 114.325C359.93 112.178 358.093 112.957 358.093 112.957L351.151 117.634C350.13 119.391 343.392 126.017 343.392 126.017C341.554 124.65 341.554 121.922 339.351 118.606C337.149 115.29 332.162 115.68 332.162 115.68C332.162 115.68 336.041 124.452 336.449 129.915C336.858 135.378 333.467 150.603 333.467 150.603L353.087 156.115C353.087 156.115 354.325 147.763 356.521 147.083C359.169 146.272 360.642 142.368 360.642 142.368C363.5 136.578 369.31 128.158 370.127 123.864C370.956 119.589 365.852 118.81 365.852 118.81Z" fill="#F4A286"/>
<path d="M219.954 109.11C232.452 116.96 245.044 119.917 257.802 114.832L276.977 119.732L295.842 245.746L185.237 246.705L190.688 217.437L204.399 112.277L219.954 109.11Z" fill="#1976D2"/>
<path d="M276.973 119.732C276.973 119.732 291.884 125.925 297.576 136.77C303.269 147.615 312.414 178.059 312.414 178.059L329.262 147.12L360.533 155.113C360.533 155.113 337.256 219.311 331.409 225.157C325.011 231.554 307.575 238.007 299.037 233.027C290.498 228.047 288.76 209.147 288.76 209.147L276.973 119.732Z" fill="#1976D2"/>
<path d="M278.003 172.435C277.917 172.435 277.849 166.837 277.849 159.932C277.849 153.028 277.917 147.429 278.003 147.429C278.09 147.429 278.158 153.028 278.158 159.932C278.158 166.843 278.09 172.435 278.003 172.435Z" fill="white"/>
<path d="M283.841 126.933C283.884 126.952 283.581 127.731 283.11 128.999C282.64 130.268 282.015 132.018 281.409 133.986C280.803 135.953 280.326 137.753 279.998 139.065C279.67 140.376 279.478 141.187 279.435 141.181C279.417 141.175 279.435 140.97 279.491 140.593C279.547 140.216 279.646 139.677 279.782 139.015C280.054 137.692 280.499 135.873 281.112 133.893C281.724 131.919 282.387 130.169 282.906 128.919C283.166 128.294 283.389 127.793 283.556 127.453C283.723 127.106 283.822 126.921 283.841 126.933Z" fill="white"/>
<path d="M202.37 159.468L205.829 111.986C205.829 111.986 179.793 114.399 171.18 132.767C163.922 148.24 143.881 194.806 141.734 201.172C135.442 219.862 145.274 245.561 185.807 244.07L190.429 218.661L202.37 159.468Z" fill="#1976D2"/>
<path d="M154.399 201.401C154.399 201.389 154.504 201.389 154.702 201.389C154.937 201.395 155.228 201.407 155.575 201.419C156.336 201.457 157.431 201.518 158.786 201.648C160.141 201.772 161.75 201.964 163.513 202.335C165.277 202.7 167.195 203.269 169.076 204.179C170.95 205.094 172.615 206.202 173.97 207.408C175.306 208.627 176.339 209.926 176.94 211.157C177.546 212.388 177.8 213.489 177.837 214.257C177.893 214.634 177.849 214.937 177.855 215.135C177.849 215.333 177.843 215.438 177.831 215.438C177.794 215.438 177.806 215.018 177.719 214.269C177.645 213.52 177.36 212.45 176.742 211.262C176.129 210.068 175.102 208.812 173.778 207.625C172.435 206.455 170.789 205.366 168.939 204.463C167.089 203.572 165.196 203.003 163.457 202.62C161.713 202.236 160.11 202.026 158.767 201.871C157.419 201.716 156.33 201.617 155.575 201.543C155.228 201.506 154.937 201.475 154.709 201.45C154.498 201.432 154.393 201.413 154.399 201.401Z" fill="white"/>
<path d="M182.256 199C182.293 199.013 182.058 199.73 181.606 200.869C181.161 202.007 180.499 203.554 179.731 205.255C178.989 206.907 178.315 208.404 177.776 209.598C177.281 210.712 176.966 211.398 176.929 211.38C176.891 211.367 177.127 210.65 177.578 209.511C178.024 208.373 178.686 206.826 179.453 205.125C180.196 203.473 180.87 201.976 181.408 200.782C181.903 199.675 182.213 198.988 182.256 199Z" fill="white"/>
<path d="M196.66 161.633C196.573 161.633 196.505 158.627 196.505 154.915C196.505 151.203 196.573 148.19 196.66 148.19C196.747 148.19 196.815 151.197 196.815 154.915C196.815 158.62 196.747 161.633 196.66 161.633Z" fill="white"/>
<g opacity="0.3">
<path d="M169.329 201.89C165.747 199.897 161.632 199.044 157.542 198.796C155.94 198.697 154.35 198.883 152.778 199.217C150.643 199.669 148.181 200.745 147.717 202.279C152.63 200.739 159.869 201.753 164.899 202.855C169.973 203.962 174.1 206.839 176.927 211.38C175.715 207.556 172.844 203.845 169.329 201.89Z" fill="#212121"/>
</g>
<path d="M192.83 141.41C192.811 141.416 192.725 141.144 192.589 140.661C192.459 140.172 192.254 139.473 191.97 138.619C191.407 136.912 190.466 134.598 189.074 132.229C187.676 129.865 186.117 127.917 184.892 126.593C184.279 125.931 183.772 125.411 183.407 125.058C183.048 124.706 182.856 124.502 182.868 124.483C182.881 124.465 183.103 124.638 183.487 124.966C183.877 125.287 184.415 125.789 185.046 126.438C186.315 127.731 187.923 129.674 189.334 132.062C190.739 134.456 191.66 136.807 192.168 138.545C192.428 139.411 192.601 140.129 192.694 140.624C192.805 141.131 192.848 141.41 192.83 141.41Z" fill="white"/>
<path d="M202.39 246.687L173.384 176.704C172.06 173.512 173.718 170.92 177.09 170.92H182.924C185.307 170.92 186.928 169.608 187.082 167.56L187.274 164.987C187.429 162.939 189.056 161.627 191.438 161.627H219.17C221.329 161.627 223.773 162.71 225.592 164.467L227.845 166.645C229.664 168.408 232.101 169.484 234.261 169.484H269.584C272.956 169.484 276.737 172.07 278.018 175.269L306.777 246.68H202.39V246.687Z" fill="#FF735D"/>
<path d="M202.39 246.687L173.384 176.704C172.06 173.512 173.718 170.92 177.09 170.92H182.924C185.307 170.92 186.928 169.608 187.082 167.56L187.274 164.987C187.429 162.939 189.056 161.627 191.438 161.627H219.17C221.329 161.627 223.773 162.71 225.592 164.467L227.845 166.645C229.664 168.408 232.101 169.484 234.261 169.484H269.584C272.956 169.484 276.737 172.07 278.018 175.269L306.777 246.68H202.39V246.687Z" fill="#E53935"/>
<path d="M197.594 222.918L186.654 180.62C185.937 177.836 187.756 175.04 190.299 175.04H276.055C277.751 175.04 279.242 176.327 279.706 178.189L295.632 241.849C296.331 244.645 295.211 246.322 292.675 246.291L206.392 246.316C204.721 246.297 203.255 245.029 202.791 243.191L197.594 222.918Z" fill="#E0E0E0"/>
<path d="M203.522 244.776L198.863 178.171C198.696 175.808 200.571 173.803 202.94 173.803H291.797V244.782H203.522V244.776Z" fill="#EBEBEB"/>
<path d="M202.531 246.297L213.099 177.632C213.588 175.392 215.598 173.796 217.931 173.796H307.815C311.366 173.796 313.754 177.366 312.35 180.564L292.94 243.402L202.531 246.297Z" fill="#FAFAFA"/>
<path d="M202.39 246.656L224.188 182.346C225.097 179.668 227.523 177.873 230.251 177.873H322.919C325.908 177.873 328.011 180.93 327.058 183.881L306.782 246.687L202.39 246.656Z" fill="#E53935"/>
<path d="M361.032 149.75L318.092 158.232C315.122 158.819 312.245 156.889 311.657 153.92L299.92 94.4915C299.332 91.5219 301.262 88.6452 304.232 88.0574L331.469 82.6813L356.843 100.245L365.351 143.322C365.926 146.279 363.996 149.162 361.032 149.75Z" fill="#F5F7FB"/>
<path d="M331.463 82.6742L334.767 99.4027C335.312 102.162 337.991 103.956 340.751 103.412L356.838 100.238L331.463 82.6742Z" fill="#D8E1ED"/>
<path d="M329.137 99.1247L311.615 102.583C311.349 102.639 311.089 102.46 311.033 102.194L311.021 102.126C310.965 101.859 311.145 101.6 311.411 101.544L328.933 98.0852C329.199 98.0295 329.459 98.2089 329.515 98.475L329.527 98.5431C329.583 98.8091 329.41 99.069 329.137 99.1247Z" fill="#D8E1ED"/>
<path d="M346.003 106.363L313.452 112.791C313.186 112.846 312.926 112.667 312.87 112.401L312.858 112.333C312.802 112.067 312.982 111.807 313.248 111.751L345.799 105.323C346.065 105.268 346.325 105.447 346.381 105.713L346.393 105.781C346.443 106.053 346.269 106.313 346.003 106.363Z" fill="#D8E1ED"/>
<path d="M347.834 115.086L315.282 121.514C315.016 121.569 314.756 121.39 314.701 121.124L314.688 121.056C314.633 120.79 314.812 120.53 315.078 120.474L347.63 114.047C347.896 113.991 348.156 114.17 348.211 114.436L348.224 114.504C348.279 114.777 348.106 115.036 347.834 115.086Z" fill="#D8E1ED"/>
<path d="M349.673 123.815L317.121 130.243C316.855 130.299 316.595 130.119 316.54 129.853L316.527 129.785C316.472 129.519 316.651 129.259 316.917 129.203L349.469 122.776C349.735 122.72 349.995 122.899 350.05 123.165L350.063 123.233C350.118 123.499 349.945 123.759 349.673 123.815Z" fill="#D8E1ED"/>
<path d="M351.509 132.538L318.958 138.966C318.692 139.022 318.432 138.842 318.376 138.576L318.364 138.508C318.308 138.242 318.487 137.982 318.753 137.927L351.305 131.499C351.571 131.443 351.831 131.623 351.887 131.889L351.899 131.957C351.955 132.223 351.775 132.482 351.509 132.538Z" fill="#D8E1ED"/>
<path d="M353.429 141.261L320.877 147.689C320.611 147.745 320.351 147.565 320.295 147.299L320.283 147.231C320.227 146.965 320.407 146.705 320.673 146.65L353.225 140.222C353.491 140.166 353.75 140.346 353.806 140.612L353.818 140.68C353.874 140.952 353.701 141.212 353.429 141.261Z" fill="#D8E1ED"/>
<path d="M334.142 140.036L302.797 146.229C301.38 146.507 300.006 145.586 299.728 144.175L297.5 132.915C297.222 131.499 298.144 130.125 299.554 129.847L330.906 123.654C332.323 123.376 333.696 124.298 333.975 125.708L336.202 136.968C336.474 138.384 335.559 139.758 334.142 140.036Z" fill="#FFC800"/>
<path d="M359.888 103.752C362.332 105.998 361.627 107.155 359.3 110.699C359.3 110.699 364.485 110.427 362.821 115.754C362.821 115.754 367.987 115.185 367.492 119.54C367.492 119.54 371.39 123.357 369.367 125.819C367.337 128.282 359.981 132.717 358.124 131.957C356.268 131.196 356.25 128.56 356.25 128.56C356.25 128.56 354.041 127.564 353.428 126.401C352.816 125.238 353.868 123.605 353.868 123.605C353.868 123.605 351.665 123.203 351.541 121.167C351.417 119.051 354.771 115.278 354.771 115.278C354.771 115.278 350.929 117.171 350.075 116.49C349.221 115.81 348.008 115.11 348.918 113.873C349.833 112.636 353.082 109.864 353.082 109.864C353.082 109.864 357.45 101.506 359.888 103.752Z" fill="#F4A286"/>
<path d="M356.664 128.863C356.62 128.814 357.165 128.226 358.006 127.23C358.848 126.259 360.042 124.811 361.793 123.766C363.507 122.72 365.078 121.872 366.044 121.031C367.034 120.214 367.423 119.497 367.491 119.54C367.541 119.552 367.25 120.363 366.272 121.291C365.326 122.237 363.729 123.153 362.047 124.18C360.364 125.188 359.176 126.537 358.254 127.465C357.357 128.405 356.707 128.913 356.664 128.863Z" fill="#F29170"/>
<path d="M353.793 124.366C353.694 124.267 355.599 122.213 358.043 119.775C359.269 118.575 360.32 117.406 361.23 116.694C362.121 115.964 362.802 115.698 362.826 115.754C362.863 115.822 362.269 116.181 361.459 116.96C360.642 117.715 359.634 118.915 358.39 120.128C355.952 122.565 353.892 124.465 353.793 124.366Z" fill="#F29170"/>
<path d="M354.771 115.278C354.672 115.154 355.848 114.22 357.154 112.977C358.484 111.739 359.127 110.421 359.257 110.471C359.4 110.502 358.892 112.036 357.5 113.329C356.145 114.622 354.84 115.371 354.771 115.278Z" fill="#F29170"/>
<path d="M187.062 101.58H146.819C144.041 101.58 141.783 99.3285 141.783 96.5445V40.8468C141.783 38.069 144.035 35.8109 146.819 35.8109H172.342L192.098 56.1709V96.5384C192.092 99.3285 189.84 101.58 187.062 101.58Z" fill="#F5F7FB"/>
<path d="M172.336 35.817V51.4938C172.336 54.0798 174.434 56.177 177.02 56.177H192.093L172.336 35.817Z" fill="#D8E1ED"/>
<path d="M168.21 50.2813H150.347C150.075 50.2813 149.852 50.0585 149.852 49.7863V49.712C149.852 49.4398 150.075 49.217 150.347 49.217H168.21C168.482 49.217 168.705 49.4398 168.705 49.712V49.7863C168.705 50.0585 168.482 50.2813 168.21 50.2813Z" fill="#D8E1ED"/>
<path d="M183.529 59.7531H150.353C150.081 59.7531 149.858 59.5304 149.858 59.2581V59.1839C149.858 58.9116 150.081 58.6889 150.353 58.6889H183.529C183.802 58.6889 184.024 58.9116 184.024 59.1839V59.2581C184.018 59.5365 183.802 59.7531 183.529 59.7531Z" fill="#D8E1ED"/>
<path d="M183.529 69.2309H150.353C150.081 69.2309 149.858 69.0082 149.858 68.7359V68.6617C149.858 68.3894 150.081 68.1667 150.353 68.1667H183.529C183.802 68.1667 184.024 68.3894 184.024 68.6617V68.7359C184.018 69.0082 183.802 69.2309 183.529 69.2309Z" fill="#D8E1ED"/>
<path d="M183.529 78.7087H150.353C150.081 78.7087 149.858 78.4859 149.858 78.2137V78.1394C149.858 77.8672 150.081 77.6444 150.353 77.6444H183.529C183.802 77.6444 184.024 77.8672 184.024 78.1394V78.2137C184.018 78.4859 183.802 78.7087 183.529 78.7087Z" fill="#D8E1ED"/>
<path d="M183.529 88.1803H150.353C150.081 88.1803 149.858 87.9576 149.858 87.6854V87.6111C149.858 87.3389 150.081 87.1161 150.353 87.1161H183.529C183.802 87.1161 184.024 87.3389 184.024 87.6111V87.6854C184.018 87.9638 183.802 88.1803 183.529 88.1803Z" fill="#D8E1ED"/>
<path d="M164.324 90.729H135.367C133.926 90.729 132.756 89.5598 132.756 88.1183V77.9847C132.756 76.5432 133.926 75.3739 135.367 75.3739H164.324C165.766 75.3739 166.935 76.5432 166.935 77.9847V88.1183C166.935 89.5598 165.766 90.729 164.324 90.729Z" fill="#1FB767"/>
</g>
<defs>
<clipPath id="clip0_785_4395">
<rect width="472" height="204" rx="16" fill="white"/>
</clipPath>
</defs>
</svg>
