<svg width="16" height="16" viewBox="0 0 16 16" fill="none" xmlns="http://www.w3.org/2000/svg">
<path d="M8 0.5C3.85813 0.5 0.5 3.85813 0.5 8C0.5 12.1419 3.85813 15.5 8 15.5C12.1419 15.5 15.5 12.1419 15.5 8C15.5 3.85813 12.1419 0.5 8 0.5ZM8 12.6875C7.4825 12.6875 7.0625 12.2675 7.0625 11.75C7.0625 11.2325 7.4825 10.8125 8 10.8125C8.5175 10.8125 8.9375 11.2325 8.9375 11.75C8.9375 12.2675 8.5175 12.6875 8 12.6875ZM9.2925 8.3125C8.87875 8.69438 8.625 8.945 8.625 9.25H7.375C7.375 8.38188 7.96813 7.83437 8.44438 7.39375C8.94375 6.9325 9.25 6.62437 9.25 6.125C9.25 5.43563 8.68937 4.875 8 4.875C7.31063 4.875 6.75 5.43563 6.75 6.125H5.5C5.5 4.74625 6.62125 3.625 8 3.625C9.37875 3.625 10.5 4.74625 10.5 6.125C10.5 7.19688 9.83063 7.815 9.2925 8.3125Z" fill="#212121"/>
</svg>
